<?xml version="1.0" encoding="UTF-8" standalone="no"?>
<!-- Created with Inkscape (http://www.inkscape.org/) -->

<svg
   xmlns:dc="http://purl.org/dc/elements/1.1/"
   xmlns:cc="http://creativecommons.org/ns#"
   xmlns:rdf="http://www.w3.org/1999/02/22-rdf-syntax-ns#"
   xmlns:svg="http://www.w3.org/2000/svg"
   xmlns="http://www.w3.org/2000/svg"
   xmlns:sodipodi="http://sodipodi.sourceforge.net/DTD/sodipodi-0.dtd"
   xmlns:inkscape="http://www.inkscape.org/namespaces/inkscape"
   width="45"
   height="45"
   id="svg3781"
   version="1.1"
   inkscape:version="0.48.3.1 r9886"
   sodipodi:docname="onair.svg">
  <defs
     id="defs3783" />
  <sodipodi:namedview
     id="base"
     pagecolor="#000000"
     bordercolor="#666666"
     borderopacity="1.0"
     inkscape:pageopacity="1"
     inkscape:pageshadow="2"
     inkscape:zoom="3.959798"
     inkscape:cx="4.4375228"
     inkscape:cy="-7.1471232"
     inkscape:document-units="px"
     inkscape:current-layer="layer1"
     showgrid="false"
     fit-margin-top="0"
     fit-margin-left="0"
     fit-margin-right="0"
     fit-margin-bottom="0"
     inkscape:window-width="1920"
     inkscape:window-height="1025"
     inkscape:window-x="-2"
     inkscape:window-y="-3"
     inkscape:window-maximized="1" />
  <metadata
     id="metadata3786">
    <rdf:RDF>
      <cc:Work
         rdf:about="">
        <dc:format>image/svg+xml</dc:format>
        <dc:type
           rdf:resource="http://purl.org/dc/dcmitype/StillImage" />
        <dc:title />
      </cc:Work>
    </rdf:RDF>
  </metadata>
  <g
     inkscape:label="Livello 1"
     inkscape:groupmode="layer"
     id="layer1"
     transform="translate(-215.521,-112.83361)">
    <path
       style="opacity:0.8;fill:#ffffff;display:inline"
       d="m 238.17899,150.14781 c -0.18875,-0.10319 -2.3988,-1.96968 -4.91122,-4.14777 l -4.56804,-3.96017 -4.41871,-0.0416 c -4.26768,-0.0402 -4.42868,-0.0475 -4.71023,-0.21293 -0.40152,-0.23588 -0.64668,-0.6325 -0.70845,-1.14608 -0.0287,-0.23842 -0.0406,-2.81586 -0.0263,-5.72761 0.0281,-5.76334 0.009,-5.53048 0.49729,-5.97039 0.39139,-0.35242 0.57396,-0.36567 5.10606,-0.37084 l 4.34374,-0.005 4.66014,-4.03863 c 4.89522,-4.24237 4.96018,-4.2908 5.58075,-4.15968 0.4226,0.0893 0.79835,0.36313 0.97595,0.71124 0.16258,0.31867 0.16457,0.51889 0.14331,14.35243 l -0.0216,14.02924 -0.20018,0.28068 c -0.22504,0.31554 -0.75376,0.59016 -1.1415,0.5929 -0.14181,7.8e-4 -0.41228,-0.0826 -0.60103,-0.18575 z m 12.43933,-0.0546 c -0.51529,-0.23401 -0.7421,-0.60674 -0.7421,-1.21961 0,-0.49083 0.0145,-0.52321 0.59644,-1.33394 1.637,-2.28048 2.76981,-4.64659 3.36607,-7.03075 0.5089,-2.03484 0.71217,-3.89471 0.63543,-5.81431 -0.16571,-4.14616 -1.44362,-7.8588 -3.86772,-11.23677 -0.76567,-1.06696 -0.90682,-1.3775 -0.82441,-1.81367 0.17269,-0.91397 1.15562,-1.41827 1.96832,-1.00986 0.4942,0.24837 1.61989,1.7951 2.65601,3.64942 1.32977,2.37987 2.25546,5.18496 2.65438,8.04337 0.18056,1.2938 0.20493,4.5473 0.0436,5.8126 -0.51032,4.00105 -1.97248,7.69214 -4.33128,10.93396 -0.84143,1.1564 -1.33701,1.3909 -2.15468,1.01956 z m -3.80661,-3.72035 c -0.53058,-0.36055 -0.75623,-1.03031 -0.52973,-1.57239 0.0711,-0.17023 0.33174,-0.61711 0.57917,-0.99311 2.26003,-3.43439 3.03823,-7.46008 2.22163,-11.49263 -0.37497,-1.85171 -1.24118,-3.91234 -2.28728,-5.44127 -0.5895,-0.86157 -0.70007,-1.18813 -0.59391,-1.75402 0.0726,-0.38689 0.53306,-0.84651 0.96445,-0.96266 0.44712,-0.1204 0.93073,0.0137 1.29463,0.35918 0.74893,0.71087 2.19949,3.4158 2.78049,5.18489 1.54531,4.70539 1.13993,9.69107 -1.14454,14.0759 -0.66653,1.27935 -1.48801,2.45987 -1.84485,2.65118 -0.43142,0.2313 -1.05364,0.2075 -1.44006,-0.0551 z m -3.87697,-3.87397 c -0.33187,-0.20233 -0.57527,-0.58593 -0.64911,-1.02303 -0.049,-0.29034 0.003,-0.44394 0.45203,-1.34094 0.77375,-1.54474 1.07718,-2.58455 1.22017,-4.18118 0.0684,-0.76438 -0.0691,-2.04841 -0.32874,-3.07119 -0.1811,-0.71311 -0.67258,-1.84864 -1.23151,-2.8453 -0.078,-0.13917 -0.14368,-0.4162 -0.1459,-0.61561 -0.0141,-1.27419 1.50724,-1.87601 2.359,-0.93322 0.14993,0.16595 0.48221,0.71298 0.73841,1.21562 1.77218,3.47686 1.84336,7.47165 0.19607,11.0046 -0.50963,1.09303 -0.89072,1.65311 -1.23641,1.81715 -0.40424,0.19182 -1.03555,0.17947 -1.37401,-0.0268 z"
       id="path3014"
       inkscape:connector-curvature="0"
       inkscape:export-filename="/home/paolo/Desktop/unicaradio/imgs/tmp/onair.png"
       inkscape:export-xdpi="90"
       inkscape:export-ydpi="90" />
  </g>
</svg>
