<?xml version="1.0" encoding="UTF-8" standalone="no"?>
<!-- Created with Inkscape (http://www.inkscape.org/) -->

<svg
   xmlns:dc="http://purl.org/dc/elements/1.1/"
   xmlns:cc="http://creativecommons.org/ns#"
   xmlns:rdf="http://www.w3.org/1999/02/22-rdf-syntax-ns#"
   xmlns:svg="http://www.w3.org/2000/svg"
   xmlns="http://www.w3.org/2000/svg"
   xmlns:sodipodi="http://sodipodi.sourceforge.net/DTD/sodipodi-0.dtd"
   xmlns:inkscape="http://www.inkscape.org/namespaces/inkscape"
   width="1024"
   height="1024"
   id="svg4084"
   version="1.1"
   inkscape:version="0.48.3.1 r9886"
   sodipodi:docname="Nuovo documento 6">
  <defs
     id="defs4086" />
  <sodipodi:namedview
     id="base"
     pagecolor="#ffffff"
     bordercolor="#666666"
     borderopacity="1.0"
     inkscape:pageopacity="0.0"
     inkscape:pageshadow="2"
     inkscape:zoom="0.52839523"
     inkscape:cx="1279.7978"
     inkscape:cy="286.41733"
     inkscape:document-units="px"
     inkscape:current-layer="layer1"
     showgrid="false"
     inkscape:window-width="1920"
     inkscape:window-height="1025"
     inkscape:window-x="-2"
     inkscape:window-y="-3"
     inkscape:window-maximized="1" />
  <metadata
     id="metadata4089">
    <rdf:RDF>
      <cc:Work
         rdf:about="">
        <dc:format>image/svg+xml</dc:format>
        <dc:type
           rdf:resource="http://purl.org/dc/dcmitype/StillImage" />
        <dc:title></dc:title>
      </cc:Work>
    </rdf:RDF>
  </metadata>
  <g
     inkscape:label="Livello 1"
     inkscape:groupmode="layer"
     id="layer1"
     transform="translate(0,-28.362183)">
    <g
       id="g4726">
      <rect
         y="28.362183"
         x="0"
         height="1024"
         width="1024"
         id="rect4718"
         style="fill:#ff0000;fill-opacity:1;stroke:none" />
      <g
         transform="matrix(0.87394737,0,0,0.87394737,64.538931,68.114181)"
         id="g4722">
        <path
           sodipodi:type="arc"
           style="fill:#ffffff;fill-opacity:1;stroke:none"
           id="path3993"
           sodipodi:cx="67.85714"
           sodipodi:cy="195.75926"
           sodipodi:rx="80"
           sodipodi:ry="78.571426"
           d="m 147.85714,195.75926 c 0,43.3938 -35.81722,78.57143 -80,78.57143 -44.18278,0 -80,-35.17763 -80,-78.57143 0,-43.3938 35.81722,-78.57142 80,-78.57142 44.18278,0 80,35.17762 80,78.57142 z"
           transform="matrix(5.8641975,0,0,5.9708192,114.07235,-628.4811)" />
        <path
           style="fill:#ff0000;fill-opacity:1;stroke:none"
           d="m 218.79004,247.15042 0,586.4214 L 922.49382,540.3584 218.79004,247.15042 z"
           id="path3995"
           sodipodi:nodetypes="cccc"
           inkscape:connector-curvature="0" />
      </g>
    </g>
    <g
       id="g4732"
       transform="matrix(0.5,0,0,0.5,1100.0133,542.23968)"
       inkscape:export-filename="/mnt/storage/paolo/desktop/iTunesArtwork.png"
       inkscape:export-xdpi="90"
       inkscape:export-ydpi="90">
      <rect
         style="fill:#ff0000;fill-opacity:1;stroke:none"
         id="rect4734"
         width="1024"
         height="1024"
         x="0"
         y="28.362183" />
      <g
         id="g4736"
         transform="matrix(0.87394737,0,0,0.87394737,64.538931,68.114181)">
        <path
           transform="matrix(5.8641975,0,0,5.9708192,114.07235,-628.4811)"
           d="m 147.85714,195.75926 c 0,43.3938 -35.81722,78.57143 -80,78.57143 -44.18278,0 -80,-35.17763 -80,-78.57143 0,-43.3938 35.81722,-78.57142 80,-78.57142 44.18278,0 80,35.17762 80,78.57142 z"
           sodipodi:ry="78.571426"
           sodipodi:rx="80"
           sodipodi:cy="195.75926"
           sodipodi:cx="67.85714"
           id="path4738"
           style="fill:#ffffff;fill-opacity:1;stroke:none"
           sodipodi:type="arc" />
        <path
           inkscape:connector-curvature="0"
           sodipodi:nodetypes="cccc"
           id="path4740"
           d="m 218.79004,247.15042 0,586.4214 L 922.49382,540.3584 218.79004,247.15042 z"
           style="fill:#ff0000;fill-opacity:1;stroke:none" />
      </g>
    </g>
    <g
       transform="matrix(0.140625,0,0,0.140625,1694.1811,912.40305)"
       id="g4742"
       inkscape:export-filename="/mnt/storage/paolo/desktop/Icon-72@2x.png"
       inkscape:export-xdpi="90"
       inkscape:export-ydpi="90">
      <rect
         y="28.362183"
         x="0"
         height="1024"
         width="1024"
         id="rect4744"
         style="fill:#ff0000;fill-opacity:1;stroke:none" />
      <g
         transform="matrix(0.87394737,0,0,0.87394737,64.538931,68.114181)"
         id="g4746">
        <path
           sodipodi:type="arc"
           style="fill:#ffffff;fill-opacity:1;stroke:none"
           id="path4748"
           sodipodi:cx="67.85714"
           sodipodi:cy="195.75926"
           sodipodi:rx="80"
           sodipodi:ry="78.571426"
           d="m 147.85714,195.75926 c 0,43.3938 -35.81722,78.57143 -80,78.57143 -44.18278,0 -80,-35.17763 -80,-78.57143 0,-43.3938 35.81722,-78.57142 80,-78.57142 44.18278,0 80,35.17762 80,78.57142 z"
           transform="matrix(5.8641975,0,0,5.9708192,114.07235,-628.4811)" />
        <path
           style="fill:#ff0000;fill-opacity:1;stroke:none"
           d="m 218.79004,247.15042 0,586.4214 L 922.49382,540.3584 218.79004,247.15042 z"
           id="path4750"
           sodipodi:nodetypes="cccc"
           inkscape:connector-curvature="0" />
      </g>
    </g>
    <g
       id="g4752"
       transform="matrix(0.11132812,0,0,0.11132812,1889.4078,947.34372)"
       inkscape:export-filename="/mnt/storage/paolo/desktop/Icon@2x.png"
       inkscape:export-xdpi="90"
       inkscape:export-ydpi="90">
      <rect
         style="fill:#ff0000;fill-opacity:1;stroke:none"
         id="rect4754"
         width="1024"
         height="1024"
         x="0"
         y="28.362183" />
      <g
         id="g4756"
         transform="matrix(0.87394737,0,0,0.87394737,64.538931,68.114181)">
        <path
           transform="matrix(5.8641975,0,0,5.9708192,114.07235,-628.4811)"
           d="m 147.85714,195.75926 c 0,43.3938 -35.81722,78.57143 -80,78.57143 -44.18278,0 -80,-35.17763 -80,-78.57143 0,-43.3938 35.81722,-78.57142 80,-78.57142 44.18278,0 80,35.17762 80,78.57142 z"
           sodipodi:ry="78.571426"
           sodipodi:rx="80"
           sodipodi:cy="195.75926"
           sodipodi:cx="67.85714"
           id="path4758"
           style="fill:#ffffff;fill-opacity:1;stroke:none"
           sodipodi:type="arc" />
        <path
           inkscape:connector-curvature="0"
           sodipodi:nodetypes="cccc"
           id="path4760"
           d="m 218.79004,247.15042 0,586.4214 L 922.49382,540.3584 218.79004,247.15042 z"
           style="fill:#ff0000;fill-opacity:1;stroke:none" />
      </g>
    </g>
    <g
       id="g4782"
       transform="matrix(0.0703125,0,0,0.0703125,2018.7488,992.07482)"
       inkscape:export-filename="/mnt/storage/paolo/desktop/Icon-72.png"
       inkscape:export-xdpi="90"
       inkscape:export-ydpi="90">
      <rect
         y="28.362183"
         x="0"
         height="1024"
         width="1024"
         id="rect4764"
         style="fill:#ff0000;fill-opacity:1;stroke:none" />
      <g
         transform="matrix(0.87394737,0,0,0.87394737,64.538931,68.114181)"
         id="g4766">
        <path
           sodipodi:type="arc"
           style="fill:#ffffff;fill-opacity:1;stroke:none"
           id="path4768"
           sodipodi:cx="67.85714"
           sodipodi:cy="195.75926"
           sodipodi:rx="80"
           sodipodi:ry="78.571426"
           d="m 147.85714,195.75926 c 0,43.3938 -35.81722,78.57143 -80,78.57143 -44.18278,0 -80,-35.17763 -80,-78.57143 0,-43.3938 35.81722,-78.57142 80,-78.57142 44.18278,0 80,35.17762 80,78.57142 z"
           transform="matrix(5.8641975,0,0,5.9708192,114.07235,-628.4811)" />
        <path
           style="fill:#ff0000;fill-opacity:1;stroke:none"
           d="m 218.79004,247.15042 0,586.4214 L 922.49382,540.3584 218.79004,247.15042 z"
           id="path4770"
           sodipodi:nodetypes="cccc"
           inkscape:connector-curvature="0" />
      </g>
    </g>
    <g
       transform="matrix(0.05664063,0,0,0.05664063,2146.1351,1011.471)"
       id="g4788"
       inkscape:export-filename="/mnt/storage/paolo/desktop/Icon-Small@2x.png"
       inkscape:export-xdpi="90"
       inkscape:export-ydpi="90">
      <rect
         style="fill:#ff0000;fill-opacity:1;stroke:none"
         id="rect4790"
         width="1024"
         height="1024"
         x="0"
         y="28.362183" />
      <g
         id="g4792"
         transform="matrix(0.87394737,0,0,0.87394737,64.538931,68.114181)">
        <path
           transform="matrix(5.8641975,0,0,5.9708192,114.07235,-628.4811)"
           d="m 147.85714,195.75926 c 0,43.3938 -35.81722,78.57143 -80,78.57143 -44.18278,0 -80,-35.17763 -80,-78.57143 0,-43.3938 35.81722,-78.57142 80,-78.57142 44.18278,0 80,35.17762 80,78.57142 z"
           sodipodi:ry="78.571426"
           sodipodi:rx="80"
           sodipodi:cy="195.75926"
           sodipodi:cx="67.85714"
           id="path4794"
           style="fill:#ffffff;fill-opacity:1;stroke:none"
           sodipodi:type="arc" />
        <path
           inkscape:connector-curvature="0"
           sodipodi:nodetypes="cccc"
           id="path4796"
           d="m 218.79004,247.15042 0,586.4214 L 922.49382,540.3584 218.79004,247.15042 z"
           style="fill:#ff0000;fill-opacity:1;stroke:none" />
      </g>
    </g>
    <text
       sodipodi:linespacing="125%"
       id="text4798"
       y="1192.4089"
       x="302.80365"
       style="font-size:40px;font-style:normal;font-weight:normal;line-height:125%;letter-spacing:0px;word-spacing:0px;fill:#000000;fill-opacity:1;stroke:none;font-family:Sans"
       xml:space="preserve"><tspan
         y="1192.4089"
         x="302.80365"
         id="tspan4800"
         sodipodi:role="line">1024</tspan></text>
    <text
       sodipodi:linespacing="125%"
       id="text4802"
       y="1181.0537"
       x="1279.3455"
       style="font-size:40px;font-style:normal;font-weight:normal;line-height:125%;letter-spacing:0px;word-spacing:0px;fill:#000000;fill-opacity:1;stroke:none;font-family:Sans"
       xml:space="preserve"><tspan
         y="1181.0537"
         x="1279.3455"
         id="tspan4804"
         sodipodi:role="line">512</tspan></text>
    <text
       sodipodi:linespacing="125%"
       id="text4806"
       y="1189.5701"
       x="1742.0673"
       style="font-size:40px;font-style:normal;font-weight:normal;line-height:125%;letter-spacing:0px;word-spacing:0px;fill:#000000;fill-opacity:1;stroke:none;font-family:Sans"
       xml:space="preserve"><tspan
         y="1189.5701"
         x="1742.0673"
         id="tspan4808"
         sodipodi:role="line">144</tspan></text>
    <text
       sodipodi:linespacing="125%"
       id="text4810"
       y="1164.021"
       x="1921.8569"
       style="font-size:40px;font-style:normal;font-weight:normal;line-height:125%;letter-spacing:0px;word-spacing:0px;fill:#000000;fill-opacity:1;stroke:none;font-family:Sans"
       xml:space="preserve"><tspan
         y="1164.021"
         x="1921.8569"
         id="tspan4812"
         sodipodi:role="line">114</tspan></text>
    <text
       sodipodi:linespacing="125%"
       id="text4814"
       y="1141.3108"
       x="2039.1934"
       style="font-size:40px;font-style:normal;font-weight:normal;line-height:125%;letter-spacing:0px;word-spacing:0px;fill:#000000;fill-opacity:1;stroke:none;font-family:Sans"
       xml:space="preserve"><tspan
         y="1141.3108"
         x="2039.1934"
         id="tspan4816"
         sodipodi:role="line">72</tspan></text>
    <text
       sodipodi:linespacing="125%"
       id="text4818"
       y="1145.0958"
       x="2152.7446"
       style="font-size:40px;font-style:normal;font-weight:normal;line-height:125%;letter-spacing:0px;word-spacing:0px;fill:#000000;fill-opacity:1;stroke:none;font-family:Sans"
       xml:space="preserve"><tspan
         y="1145.0958"
         x="2152.7446"
         id="tspan4820"
         sodipodi:role="line">58</tspan></text>
    <text
       sodipodi:linespacing="125%"
       id="text4822"
       y="1138.4719"
       x="2279.5437"
       style="font-size:40px;font-style:normal;font-weight:normal;line-height:125%;letter-spacing:0px;word-spacing:0px;fill:#000000;fill-opacity:1;stroke:none;font-family:Sans"
       xml:space="preserve"><tspan
         y="1138.4719"
         x="2279.5437"
         id="tspan4824"
         sodipodi:role="line">57</tspan></text>
    <g
       id="g4772"
       transform="matrix(0.05566406,0,0,0.05566406,2277.0782,1000.8664)"
       inkscape:export-filename="/mnt/storage/paolo/desktop/Icon.png"
       inkscape:export-xdpi="90"
       inkscape:export-ydpi="90">
      <rect
         style="fill:#ff0000;fill-opacity:1;stroke:none"
         id="rect4774"
         width="1024"
         height="1024"
         x="0"
         y="28.362183" />
      <g
         id="g4776"
         transform="matrix(0.87394737,0,0,0.87394737,64.538931,68.114181)">
        <path
           transform="matrix(5.8641975,0,0,5.9708192,114.07235,-628.4811)"
           d="m 147.85714,195.75926 c 0,43.3938 -35.81722,78.57143 -80,78.57143 -44.18278,0 -80,-35.17763 -80,-78.57143 0,-43.3938 35.81722,-78.57142 80,-78.57142 44.18278,0 80,35.17762 80,78.57142 z"
           sodipodi:ry="78.571426"
           sodipodi:rx="80"
           sodipodi:cy="195.75926"
           sodipodi:cx="67.85714"
           id="path4778"
           style="fill:#ffffff;fill-opacity:1;stroke:none"
           sodipodi:type="arc" />
        <path
           inkscape:connector-curvature="0"
           sodipodi:nodetypes="cccc"
           id="path4780"
           d="m 218.79004,247.15042 0,586.4214 L 922.49382,540.3584 218.79004,247.15042 z"
           style="fill:#ff0000;fill-opacity:1;stroke:none" />
      </g>
    </g>
    <g
       transform="matrix(0.04882813,0,0,0.04882813,2387.7908,1001.4364)"
       id="g4826"
       inkscape:export-filename="/mnt/storage/paolo/desktop/Icon-Small-50.png"
       inkscape:export-xdpi="90"
       inkscape:export-ydpi="90">
      <rect
         y="28.362183"
         x="0"
         height="1024"
         width="1024"
         id="rect4828"
         style="fill:#ff0000;fill-opacity:1;stroke:none" />
      <g
         transform="matrix(0.87394737,0,0,0.87394737,64.538931,68.114181)"
         id="g4830">
        <path
           sodipodi:type="arc"
           style="fill:#ffffff;fill-opacity:1;stroke:none"
           id="path4832"
           sodipodi:cx="67.85714"
           sodipodi:cy="195.75926"
           sodipodi:rx="80"
           sodipodi:ry="78.571426"
           d="m 147.85714,195.75926 c 0,43.3938 -35.81722,78.57143 -80,78.57143 -44.18278,0 -80,-35.17763 -80,-78.57143 0,-43.3938 35.81722,-78.57142 80,-78.57142 44.18278,0 80,35.17762 80,78.57142 z"
           transform="matrix(5.8641975,0,0,5.9708192,114.07235,-628.4811)" />
        <path
           style="fill:#ff0000;fill-opacity:1;stroke:none"
           d="m 218.79004,247.15042 0,586.4214 L 922.49382,540.3584 218.79004,247.15042 z"
           id="path4834"
           sodipodi:nodetypes="cccc"
           inkscape:connector-curvature="0" />
      </g>
    </g>
    <text
       xml:space="preserve"
       style="font-size:40px;font-style:normal;font-weight:normal;line-height:125%;letter-spacing:0px;word-spacing:0px;fill:#000000;fill-opacity:1;stroke:none;font-family:Sans"
       x="2398.7727"
       y="1097.8083"
       id="text4836"
       sodipodi:linespacing="125%"
       transform="translate(0,28.362183)"><tspan
         sodipodi:role="line"
         id="tspan4838"
         x="2398.7727"
         y="1097.8083">50</tspan></text>
    <text
       xml:space="preserve"
       style="font-size:40px;font-style:normal;font-weight:normal;line-height:125%;letter-spacing:0px;word-spacing:0px;fill:#000000;fill-opacity:1;stroke:none;font-family:Sans"
       x="2522.7329"
       y="1086.4532"
       id="text4840"
       sodipodi:linespacing="125%"
       transform="translate(0,28.362183)"><tspan
         sodipodi:role="line"
         id="tspan4842"
         x="2522.7329"
         y="1086.4532">29</tspan></text>
    <g
       id="g4844"
       transform="matrix(0.02832031,0,0,0.02832031,2509.8585,1023.0181)"
       inkscape:export-filename="/mnt/storage/paolo/desktop/Icon-Small.png"
       inkscape:export-xdpi="90"
       inkscape:export-ydpi="90">
      <rect
         style="fill:#ff0000;fill-opacity:1;stroke:none"
         id="rect4846"
         width="1024"
         height="1024"
         x="0"
         y="28.362183" />
      <g
         id="g4848"
         transform="matrix(0.87394737,0,0,0.87394737,64.538931,68.114181)">
        <path
           transform="matrix(5.8641975,0,0,5.9708192,114.07235,-628.4811)"
           d="m 147.85714,195.75926 c 0,43.3938 -35.81722,78.57143 -80,78.57143 -44.18278,0 -80,-35.17763 -80,-78.57143 0,-43.3938 35.81722,-78.57142 80,-78.57142 44.18278,0 80,35.17762 80,78.57142 z"
           sodipodi:ry="78.571426"
           sodipodi:rx="80"
           sodipodi:cy="195.75926"
           sodipodi:cx="67.85714"
           id="path4850"
           style="fill:#ffffff;fill-opacity:1;stroke:none"
           sodipodi:type="arc" />
        <path
           inkscape:connector-curvature="0"
           sodipodi:nodetypes="cccc"
           id="path4852"
           d="m 218.79004,247.15042 0,586.4214 L 922.49382,540.3584 218.79004,247.15042 z"
           style="fill:#ff0000;fill-opacity:1;stroke:none" />
      </g>
    </g>
  </g>
</svg>
