<?xml version="1.0" encoding="UTF-8" standalone="no"?>
<!-- Created with Inkscape (http://www.inkscape.org/) -->

<svg
   xmlns:dc="http://purl.org/dc/elements/1.1/"
   xmlns:cc="http://creativecommons.org/ns#"
   xmlns:rdf="http://www.w3.org/1999/02/22-rdf-syntax-ns#"
   xmlns:svg="http://www.w3.org/2000/svg"
   xmlns="http://www.w3.org/2000/svg"
   xmlns:xlink="http://www.w3.org/1999/xlink"
   xmlns:sodipodi="http://sodipodi.sourceforge.net/DTD/sodipodi-0.dtd"
   xmlns:inkscape="http://www.inkscape.org/namespaces/inkscape"
   width="354.33069"
   height="354.33069"
   id="svg2"
   version="1.1"
   inkscape:version="0.48.1 r9760"
   sodipodi:docname="cover.svg"
   inkscape:export-filename="/home/paolo/programmazione/unicaradio-apps/apps/android/res/drawable/cover.png"
   inkscape:export-xdpi="88.900002"
   inkscape:export-ydpi="88.900002">
  <defs
     id="defs4">
    <linearGradient
       id="linearGradient3762">
      <stop
         style="stop-color:#555555;stop-opacity:1;"
         offset="0"
         id="stop3765" />
      <stop
         id="stop3771"
         offset="0.44999999"
         style="stop-color:#aaaaaa;stop-opacity:1;" />
      <stop
         style="stop-color:#aaaaaa;stop-opacity:0.90588236;"
         offset="0.49942529"
         id="stop3773" />
      <stop
         id="stop3775"
         offset="0.55000001"
         style="stop-color:#aaaaaa;stop-opacity:1;" />
      <stop
         style="stop-color:#555555;stop-opacity:1;"
         offset="1"
         id="stop3767" />
    </linearGradient>
    <linearGradient
       id="linearGradient3760">
      <stop
         style="stop-color:#7f0000;stop-opacity:1;"
         offset="0"
         id="stop3762" />
      <stop
         id="stop3768"
         offset="0.84334379"
         style="stop-color:#a80000;stop-opacity:1;" />
      <stop
         style="stop-color:#7f0000;stop-opacity:1;"
         offset="1"
         id="stop3764" />
    </linearGradient>
    <inkscape:perspective
       sodipodi:type="inkscape:persp3d"
       inkscape:vp_x="0 : 526.18109 : 1"
       inkscape:vp_y="0 : 1000 : 0"
       inkscape:vp_z="744.09448 : 526.18109 : 1"
       inkscape:persp3d-origin="372.04724 : 350.78739 : 1"
       id="perspective10" />
    <inkscape:perspective
       id="perspective3600"
       inkscape:persp3d-origin="0.5 : 0.33333333 : 1"
       inkscape:vp_z="1 : 0.5 : 1"
       inkscape:vp_y="0 : 1000 : 0"
       inkscape:vp_x="0 : 0.5 : 1"
       sodipodi:type="inkscape:persp3d" />
    <inkscape:perspective
       id="perspective3631"
       inkscape:persp3d-origin="0.5 : 0.33333333 : 1"
       inkscape:vp_z="1 : 0.5 : 1"
       inkscape:vp_y="0 : 1000 : 0"
       inkscape:vp_x="0 : 0.5 : 1"
       sodipodi:type="inkscape:persp3d" />
    <inkscape:perspective
       id="perspective3653"
       inkscape:persp3d-origin="0.5 : 0.33333333 : 1"
       inkscape:vp_z="1 : 0.5 : 1"
       inkscape:vp_y="0 : 1000 : 0"
       inkscape:vp_x="0 : 0.5 : 1"
       sodipodi:type="inkscape:persp3d" />
    <radialGradient
       inkscape:collect="always"
       xlink:href="#linearGradient3760"
       id="radialGradient3770"
       cx="67.85714"
       cy="195.75926"
       fx="67.85714"
       fy="195.75926"
       r="80.991028"
       gradientTransform="matrix(1,0,0,0.98236134,0,3.4529319)"
       gradientUnits="userSpaceOnUse" />
    <linearGradient
       inkscape:collect="always"
       xlink:href="#linearGradient3762"
       id="linearGradient3769"
       x1="0"
       y1="875.19684"
       x2="354.33071"
       y2="875.19684"
       gradientUnits="userSpaceOnUse" />
  </defs>
  <sodipodi:namedview
     id="base"
     pagecolor="#ffffff"
     bordercolor="#666666"
     borderopacity="1.0"
     inkscape:pageopacity="0"
     inkscape:pageshadow="2"
     inkscape:zoom="2.3114001"
     inkscape:cx="177.16534"
     inkscape:cy="177.16534"
     inkscape:document-units="mm"
     inkscape:current-layer="g4146"
     showgrid="false"
     units="mm"
     inkscape:window-width="1920"
     inkscape:window-height="1025"
     inkscape:window-x="-2"
     inkscape:window-y="-3"
     inkscape:window-maximized="1"
     inkscape:snap-bbox="true"
     inkscape:bbox-paths="true"
     inkscape:bbox-nodes="true"
     inkscape:snap-bbox-edge-midpoints="true"
     inkscape:snap-bbox-midpoints="true"
     inkscape:object-paths="true"
     inkscape:snap-intersection-paths="true"
     inkscape:snap-midpoints="true"
     inkscape:snap-smooth-nodes="true"
     inkscape:object-nodes="true"
     inkscape:snap-object-midpoints="false"
     inkscape:snap-center="true"
     inkscape:snap-global="false" />
  <metadata
     id="metadata7">
    <rdf:RDF>
      <cc:Work
         rdf:about="">
        <dc:format>image/svg+xml</dc:format>
        <dc:type
           rdf:resource="http://purl.org/dc/dcmitype/StillImage" />
        <dc:title></dc:title>
      </cc:Work>
    </rdf:RDF>
  </metadata>
  <g
     inkscape:label="Livello 1"
     inkscape:groupmode="layer"
     id="layer1"
     transform="translate(0,-698.03149)">
    <rect
       style="fill:#ffffff;fill-opacity:1;stroke:none"
       id="rect3777"
       width="354.33072"
       height="354.33072"
       x="0"
       y="698.03149"
       rx="17.627953"
       ry="17.627953" />
    <rect
       style="fill:url(#linearGradient3769);fill-opacity:1;stroke:#000000;stroke-width:1.76283919999999994;stroke-miterlimit:4;stroke-opacity:1;stroke-dasharray:none"
       id="rect3042"
       width="352.56787"
       height="352.56787"
       x="0.8814196"
       y="698.9129"
       rx="17.628393"
       ry="17.628393" />
    <g
       transform="matrix(1.0361668,-0.27764006,0.28034041,1.0462447,-218.0754,136.0963)"
       style="font-size:17.34588623px;font-style:normal;font-weight:normal;line-height:125%;letter-spacing:0px;word-spacing:0px;fill:#000000;fill-opacity:1;stroke:none;font-family:Sans"
       id="text2988">
      <g
         id="g4146"
         transform="translate(3.8889089,7.9613768)">
        <g
           id="g3530"
           transform="translate(1.7244954,0.45762894)">
          <path
             d="m 37.933459,719.45583 -17.501728,-1.49405 0.243926,4.23823 5.518838,0.76227 c -0.386219,2.07342 -0.579327,5.92543 -0.579326,11.55602 -1e-6,7.82601 0.558997,15.13363 1.676995,21.92289 1.117993,6.76898 2.998258,11.09867 5.640801,12.98909 0.975697,0.71146 2.083528,1.31111 3.323499,1.79896 1.239947,0.46753 2.540887,0.81309 3.902825,1.03669 1.361905,0.2236 2.693336,0.3354 3.994296,0.3354 4.26869,0 7.897094,-0.8944 10.885222,-2.6832 1.849743,-1.11799 3.374282,-2.5104 4.573622,-4.17724 1.199269,-1.68715 2.337591,-3.62839 3.414971,-5.82374 0.609777,-1.23995 1.087466,-2.78481 1.433069,-4.63461 0.365849,-1.84975 0.619939,-3.92313 0.76227,-6.22012 0.162576,-2.29695 0.243885,-4.72605 0.243927,-7.28731 -4.2e-5,-2.84577 -0.07119,-5.67125 -0.213436,-8.47645 -0.142332,-2.82543 -0.304949,-5.24437 -0.487853,-7.25681 -0.162658,-2.01234 -0.284621,-3.37426 -0.36589,-4.08577 l -12.501234,-0.97571 c 0.142262,0.95544 0.294716,2.58161 0.457362,4.87854 0.162589,2.27669 0.294716,4.92939 0.39638,7.9581 0.101608,3.02879 0.152426,5.84411 0.152454,8.44595 -2.8e-5,3.29304 -0.08134,6.0677 -0.243926,8.324 -0.162646,2.25634 -0.416736,3.87235 -0.76227,4.84804 -0.691153,2.07339 -1.626203,3.64875 -2.805155,4.72607 -1.179002,1.05703 -2.429125,1.58554 -3.750371,1.58553 -1.23998,1e-5 -2.357975,-0.46752 -3.35399,-1.40258 -0.99605,-0.95537 -1.687174,-2.25631 -2.073375,-3.90283 -0.18296,-0.89437 -0.467541,-2.96775 -0.853743,-6.22012 -0.365904,-3.25233 -0.711466,-7.0027 -1.036688,-11.25111 -0.325248,-4.26868 -0.487866,-8.21215 -0.487853,-11.83044 -1.3e-5,-3.00838 0.132114,-5.5696 0.396381,-7.68369 m 1.737976,-1.49405 c -0.121978,1.89049 -0.18296,4.07566 -0.182944,6.55553 -1.6e-5,3.71993 0.142275,7.85651 0.426871,12.40976 0.304892,4.55333 0.680945,8.59844 1.12816,12.13535 0.447182,3.53695 0.904543,5.82376 1.372087,6.86043 1.036668,2.33765 2.164827,3.50646 3.38448,3.50644 0.731758,2e-5 1.443209,-0.39636 2.134358,-1.18914 0.6911,-0.79274 1.270425,-1.8091 1.737976,-3.04908 0.874044,-2.23597 1.311078,-5.94568 1.311105,-11.12915 -2.7e-5,-2.07334 -0.04068,-4.07557 -0.121963,-6.00669 -0.101663,-1.91072 -0.23379,-4.02475 -0.396381,-6.34209 -0.142316,-2.31725 -0.304934,-4.75652 -0.487853,-7.31779 -0.162643,-2.58151 -0.264279,-4.30932 -0.304908,-5.18344 l 16.221114,1.25012 c 0.406502,2.64259 0.731737,5.75265 0.975706,9.33019 0.264211,3.57763 0.396338,7.13489 0.396381,10.67179 -4.3e-5,3.92318 -0.182988,7.59224 -0.548835,11.00718 -0.365932,3.41499 -0.975748,6.40309 -1.829449,8.9643 -0.447239,1.36194 -1.331472,2.91697 -2.652701,4.66509 -1.321305,1.72783 -2.754372,3.31335 -4.299205,4.75657 -1.5449,1.44324 -2.886495,2.51042 -4.024788,3.20154 -2.418965,1.36192 -5.376571,2.04288 -8.872827,2.04288 -2.642556,0 -5.264763,-0.41671 -7.86663,-1.25012 -2.581567,-0.85374 -4.827721,-2.08354 -6.738471,-3.68939 -1.260292,-1.09766 -2.337633,-2.75433 -3.232026,-4.97 -0.874072,-2.23598 -1.595688,-4.90901 -2.164848,-8.01909 -0.548835,-3.13037 -0.945215,-6.34206 -1.189142,-9.63509 -0.243926,-3.29298 -0.365889,-6.53517 -0.36589,-9.72658 1e-6,-4.85816 0.233764,-9.05572 0.701289,-12.5927 l -5.24442,-1.25013 -0.243927,-7.74466 20.977681,1.73797"
             style="font-size:62.44519043px;font-variant:normal;font-stretch:normal;text-align:start;line-height:125%;writing-mode:lr-tb;text-anchor:start;fill:#000000;font-family:Pokemon Hollow;-inkscape-font-specification:Pokemon Hollow"
             id="path3906"
             inkscape:connector-curvature="0" />
          <path
             d="m 66.533843,754.4288 c 0.142289,1.11802 0.243925,2.41896 0.304909,3.90282 0.04065,1.48391 0.132124,3.56744 0.274417,6.25062 0.121961,2.70353 0.213433,4.53297 0.274417,5.48835 0.08131,0.93505 0.213433,2.05305 0.396381,3.35399 l 11.495037,-1.25013 c -0.406558,-3.39463 -0.60983,-6.55551 -0.609816,-9.48264 -1.4e-5,-4.00444 0.376039,-7.75481 1.12816,-11.25111 0.264239,-1.1383 0.650455,-2.1445 1.158651,-3.01859 0.528491,-0.87404 1.138307,-1.53468 1.829449,-1.9819 0.691107,-0.44717 1.392395,-0.67077 2.103866,-0.6708 0.731759,3e-5 1.433047,0.21346 2.103867,0.6403 0.691102,0.4269 1.331408,1.06721 1.920921,1.92093 0.589464,0.85376 1.128135,1.97176 1.616013,3.35399 0.670772,1.89045 1.250097,4.5838 1.737977,8.08006 0.508152,3.47597 0.762242,6.6775 0.76227,9.60461 -2.8e-5,1.118 -0.08134,2.38845 -0.243926,3.81135 l 9.238714,-0.27442 c -3e-5,-0.58948 0.17275,-2.27664 0.51835,-5.06147 0.34552,-2.80515 0.5183,-5.21392 0.51834,-7.22633 -4e-5,-3.92313 -0.76231,-7.39908 -2.28681,-10.42785 -1.341631,-2.68317 -2.398645,-4.61425 -3.171046,-5.79326 -0.752138,-1.19927 -2.032751,-2.34776 -3.841842,-3.44546 -1.626204,-0.996 -3.679251,-1.49402 -6.159145,-1.49405 -2.947465,3e-5 -6.382761,0.74198 -10.305896,2.22583 l -1.250123,-1.9819 -10.000988,1.25012 0.487853,13.47694 m 11.495038,-14.72706 c 2.256305,-0.75208 4.197551,-1.32124 5.823746,-1.70749 1.626156,-0.40651 3.181186,-0.60978 4.665094,-0.60982 1.992041,4e-5 3.74018,0.43708 5.244421,1.31111 1.809091,1.03672 3.760501,2.80519 5.854236,5.3054 2.093662,2.50028 3.394602,4.81758 3.902822,6.95191 1.0773,4.32971 1.61597,8.11057 1.61601,11.34258 -4e-5,1.7075 -0.11184,3.50645 -0.3354,5.39687 -0.22364,1.87011 -0.5692,4.27888 -1.03669,7.22633 l -12.745152,0.76227 c 0.04063,-1.01636 0.06096,-2.47992 0.06098,-4.39068 -2.6e-5,-7.96825 -1.097695,-14.74737 -3.293008,-20.33737 -0.853765,-2.09368 -1.68718,-3.14053 -2.500247,-3.14056 -1.057034,3e-5 -2.225848,1.46359 -3.506444,4.39068 -0.304925,0.71147 -0.559015,1.52456 -0.76227,2.43927 -0.182961,0.91474 -0.325251,1.94126 -0.426872,3.07957 -0.08132,1.13834 -0.121979,2.47993 -0.121963,4.02479 -1.6e-5,3.1304 0.182929,7.10436 0.548835,11.9219 l -14.970991,1.73798 c -0.243927,-1.78879 -0.467526,-3.56742 -0.670798,-5.33589 -0.203272,-1.76846 -0.36589,-3.4048 -0.487853,-4.90902 -0.101636,-1.52453 -0.152454,-3.16087 -0.152454,-4.90902 0,-0.7521 0.04065,-1.8396 0.121963,-3.26252 l -0.548834,-17.77615 11.98289,-1.52454 1.737977,2.0124"
             style="font-size:62.44519043px;font-variant:normal;font-stretch:normal;text-align:start;line-height:125%;writing-mode:lr-tb;text-anchor:start;fill:#000000;font-family:Pokemon Hollow;-inkscape-font-specification:Pokemon Hollow"
             id="path3908"
             inkscape:connector-curvature="0" />
          <path
             d="m 116.72172,779.15685 -1.49405,-41.19309 -12.50123,5.24442 -0.9757,4.23822 4.23821,-2.25632 0.73178,34.72904 10.00099,-0.76227 m 2.0124,1.49405 -13.75136,0.76227 -0.73178,-32.71664 -4.512638,1.00619 1.494048,-7.50074 15.48933,-6.49454 2.0124,44.94346 m -9.51314,-61.43899 c -2.31731,0.7115 -3.47596,2.47997 -3.47595,5.3054 0.16261,1.32132 0.81308,2.29702 1.95141,2.92712 1.15864,0.63019 2.31729,0.94526 3.47595,0.94521 1.17897,-0.14224 2.05304,-0.72157 2.62221,-1.73797 0.58948,-1.03664 0.88422,-2.26644 0.88424,-3.68939 -0.12198,-0.85369 -0.7013,-1.70743 -1.73798,-2.56123 -1.01637,-0.87402 -2.02257,-1.31105 -3.01859,-1.31111 -0.10164,6e-5 -0.33541,0.0407 -0.70129,0.12197 M 108.73313,717.23 c 1.44322,6e-5 2.68318,0.24399 3.71988,0.73178 1.057,0.46759 1.92091,1.04691 2.59172,1.73798 0.67078,0.67085 1.12814,1.26034 1.37208,1.76847 0.24392,0.54889 0.36588,1.14854 0.36589,1.79896 -1e-5,0.99608 -0.21345,2.01244 -0.6403,3.04908 -0.42689,1.01641 -0.94523,1.89047 -1.55504,2.62221 -0.60982,0.73182 -1.18915,1.15869 -1.73797,1.28061 -1.05703,0.16266 -1.84979,0.24397 -2.37829,0.24393 -1.3416,4e-5 -2.51041,-0.23372 -3.50644,-0.70129 -0.99604,-0.46748 -1.7888,-1.14844 -2.37828,-2.04289 -0.58949,-0.89434 -0.95538,-1.94119 -1.09767,-3.14055 0,-1.72776 0.4167,-3.34377 1.25012,-4.84804 0.85374,-1.50416 2.18517,-2.33757 3.9943,-2.50025"
             style="font-size:62.44519043px;font-variant:normal;font-stretch:normal;text-align:start;line-height:125%;writing-mode:lr-tb;text-anchor:start;fill:#000000;font-family:Pokemon Hollow;-inkscape-font-specification:Pokemon Hollow"
             id="path3910"
             inkscape:connector-curvature="0" />
          <path
             d="m 142.94382,740.12861 c -2.35798,-1.36189 -4.84806,-2.04285 -7.47025,-2.04289 -2.88648,4e-5 -5.64081,0.86394 -8.26301,2.59172 -2.62221,1.72785 -4.92935,4.44153 -6.92141,8.14105 -0.87407,1.68718 -1.62618,3.52679 -2.25632,5.51884 -0.63015,1.99208 -0.94522,3.96382 -0.94522,5.91522 0,4.39068 1.68716,7.78532 5.06148,10.18393 2.82547,2.03272 5.95586,3.04908 9.39117,3.04908 3.08972,0 6.27092,-0.85374 9.54362,-2.56123 0.77241,-0.40654 1.6973,-1.13832 2.77467,-2.19534 1.09764,-1.05701 2.10384,-2.175 3.01859,-3.35399 0.93502,-1.19929 1.50418,-2.09369 1.70748,-2.68319 l -7.25681,-1.52454 c -0.69115,1.32128 -1.48391,2.4596 -2.37828,3.41497 -0.89442,0.95539 -1.83964,1.677 -2.83565,2.16485 -0.99605,0.48786 -2.02257,0.73179 -3.07957,0.73178 -1.68717,10e-6 -3.25237,-0.59965 -4.69559,-1.79896 -1.66684,-1.36191 -2.50025,-3.4861 -2.50024,-6.37258 -1e-5,-2.07336 0.43702,-4.10608 1.3111,-6.09816 0.87406,-2.01237 2.11402,-3.65888 3.71988,-4.93952 1.60584,-1.30091 3.42512,-1.95138 5.45786,-1.95141 1.21961,3e-5 2.2563,0.22363 3.11006,0.6708 0.87405,0.4269 1.48386,1.2908 1.82945,2.59172 l 7.31779,-1.89043 c -0.0204,-0.32521 -0.15248,-0.87404 -0.39638,-1.6465 -0.24395,-0.77241 -0.78262,-1.70746 -1.61601,-2.80516 -0.81312,-1.11796 -2.02258,-2.15465 -3.62841,-3.11006 m 1.31111,-1.43307 c 1.30091,0.83345 2.46973,1.9921 3.50644,3.47595 1.05699,1.46359 1.87007,2.82551 2.43927,4.08577 0.56913,1.23999 0.94518,2.13438 1.12816,2.68319 l -11.3121,2.50025 c -0.18296,-1.01634 -0.72163,-1.68713 -1.61601,-2.01239 -0.89442,-0.32521 -1.82947,-0.48783 -2.80515,-0.48786 -5.16313,0.48788 -7.74468,3.56745 -7.74467,9.23872 0.14228,4.49233 1.55502,6.99257 4.23822,7.50074 1.2806,1e-5 2.43925,-0.31506 3.47596,-0.94521 1.03666,-0.63014 1.9209,-1.46355 2.6527,-2.50025 0.75208,-1.057 1.37206,-2.23598 1.85994,-3.53694 l 11.31209,2.28681 c -0.122,0.40656 -0.41674,1.21965 -0.88423,2.43927 -0.52854,1.36193 -1.7685,3.18122 -3.71988,5.45786 -1.93112,2.27665 -4.0858,3.87233 -6.46406,4.78705 -2.86615,1.118 -5.71196,1.677 -8.53743,1.677 -4.51265,0 -8.5171,-1.47372 -12.01338,-4.42117 -1.58552,-1.38224 -2.73401,-2.98809 -3.44546,-4.81755 -0.73178,-1.82944 -1.09767,-3.76052 -1.09767,-5.79325 0,-2.11402 0.29475,-4.19755 0.88424,-6.25062 0.58949,-2.05303 1.3111,-3.92313 2.16484,-5.61031 1.118,-2.19531 2.34779,-4.06541 3.68939,-5.61031 1.34159,-1.56516 2.74417,-2.83561 4.20773,-3.81135 1.48388,-0.996 2.99826,-1.72778 4.54314,-2.19534 1.54485,-0.46749 3.09988,-0.70125 4.66509,-0.70129 3.21168,4e-5 6.16929,0.85378 8.87283,2.56123"
             style="font-size:62.44519043px;font-variant:normal;font-stretch:normal;text-align:start;line-height:125%;writing-mode:lr-tb;text-anchor:start;fill:#000000;font-family:Pokemon Hollow;-inkscape-font-specification:Pokemon Hollow"
             id="path3912"
             inkscape:connector-curvature="0" />
          <path
             d="m 169.31838,745.06812 c -1.58554,1.05704 -2.3783,2.58158 -2.37829,4.57362 -1e-5,1.38228 0.30489,2.31733 0.91473,2.80516 0.42685,0.2846 0.9147,0.42689 1.46356,0.42687 l 0,6.49454 c -0.52853,0.0813 -0.94524,0.12198 -1.25012,0.12196 -1.58554,2e-5 -3.15074,-0.51832 -4.69559,-1.55503 -1.74815,-1.15863 -2.62222,-2.66284 -2.62221,-4.51264 -1e-5,-0.89437 0.21342,-1.79893 0.64031,-2.71368 0.44718,-0.93503 1.057,-1.78877 1.82945,-2.56123 0.77241,-0.77241 1.6973,-1.4432 2.77466,-2.01239 1.09765,-0.56914 2.20548,-0.92486 3.3235,-1.06718 m 0.24393,-5.36638 12.74516,-5.73228 0.24392,17.04437 c 0.16259,1.05704 0.2439,2.25634 0.24393,3.59791 -3e-5,1.179 -0.0407,2.05307 -0.12196,2.62221 l 0.36589,18.69087 -13.72087,0.73178 0,-1.85994 c -2.23601,0.91473 -4.49233,1.37209 -6.76896,1.37209 -1.74815,0 -3.39466,-0.26425 -4.93951,-0.79276 -1.52455,-0.52851 -2.84582,-1.23996 -3.96381,-2.13436 -1.80913,-1.50421 -3.22186,-3.52676 -4.23822,-6.06767 -1.01636,-2.56122 -1.52454,-5.26473 -1.52454,-8.11056 0,-4.89883 1.41274,-8.85247 4.23822,-11.86092 2.43926,-2.5612 4.94967,-4.50245 7.53123,-5.82375 2.60187,-1.32123 5.25457,-1.98187 7.9581,-1.9819 0.75209,3e-5 1.32125,0.0204 1.70749,0.061 l 0.24393,0.24393 m 1.49405,0.76227 0,0.85374 c -0.32526,-0.0406 -0.82328,-0.061 -1.49405,-0.061 -1.26031,3e-5 -2.53076,0.15248 -3.81136,0.45736 -1.28063,0.30494 -2.61206,0.77247 -3.99429,1.40258 -1.36194,0.63017 -2.70353,1.42293 -4.02479,2.37828 -1.32128,0.95541 -2.52058,2.02259 -3.59792,3.20154 -0.99603,1.07736 -1.79896,2.22585 -2.40877,3.44546 -0.60982,1.19933 -1.06718,2.45961 -1.37209,3.78086 -0.30491,1.30096 -0.45736,2.61206 -0.45736,3.93331 0,2.58157 0.49801,4.98018 1.49405,7.19584 1.01636,2.19534 2.38844,3.8825 4.11626,5.06147 1.36191,0.95538 3.31332,1.43307 5.85424,1.43307 3.31332,0 6.54534,-0.7521 9.69608,-2.25632 l 0,3.87233 10.00098,-0.73178 -0.27441,-38.23548 -9.72657,4.26872"
             style="font-size:62.44519043px;font-variant:normal;font-stretch:normal;text-align:start;line-height:125%;writing-mode:lr-tb;text-anchor:start;fill:#000000;font-family:Pokemon Hollow;-inkscape-font-specification:Pokemon Hollow"
             id="path3914"
             inkscape:connector-curvature="0" />
          <path
             d="m 193.52809,732.44492 c 2.33761,-0.52846 4.00444,-0.87403 5.00049,-1.03669 0.99601,-0.1829 2.01237,-0.27437 3.04908,-0.27441 0.89438,4e-5 1.78877,0.11184 2.68319,0.3354 1.70746,0.40658 2.56121,1.32131 2.56123,2.74417 -2e-5,1.13836 -0.52853,2.47996 -1.58552,4.02479 -1.05704,1.5449 -2.41896,3.02878 -4.08577,4.45166 -1.66685,1.4026 -3.37433,2.49011 -5.12246,3.26251 l -2.50024,-13.50743 m 2.01239,1.52454 1.73798,8.9643 c 1.34157,-0.28455 2.83562,-1.4432 4.48215,-3.47595 1.6668,-2.03268 2.50022,-3.65886 2.50024,-4.87853 -2e-5,-0.6301 -0.24395,-1.00616 -0.73178,-1.12816 -2.07339,-0.52847 -3.46581,-0.79272 -4.17724,-0.79276 -1.32128,4e-5 -2.59173,0.43707 -3.81135,1.3111 m 7.34829,13.90381 c -0.7318,0.73181 -1.52457,1.49408 -2.37829,2.28682 -0.85376,0.77245 -1.43308,1.28063 -1.73797,1.52454 l 3.99429,22.2278 -10.48884,2.74417 -6.25061,-39.69904 c -0.12197,4e-5 -0.35574,0.18298 -0.70129,0.54884 -0.32524,0.36592 -0.77244,0.88427 -1.3416,1.55503 -0.54884,0.67083 -0.86391,1.04688 -0.94521,1.12816 -0.061,3e-5 -0.26426,-0.437 -0.60982,-1.31111 -0.32524,-0.87403 -0.77244,-2.0835 -1.3416,-3.6284 -0.54883,-1.56516 -1.16881,-3.29297 -1.85994,-5.18344 -0.71145,-1.91071 -1.18914,-3.11002 -1.43306,-3.59792 2.45959,-0.81304 4.76672,-1.56514 6.92141,-2.25632 2.17501,-0.69107 4.46181,-1.34154 6.86043,-1.95141 2.3986,-0.63009 4.68541,-1.12811 6.86044,-1.49405 2.19532,-0.36584 4.35,-0.54878 6.46405,-0.54884 1.64648,6e-5 3.16085,0.13219 4.54313,0.39638 1.38222,0.24399 2.68316,0.66069 3.90283,1.25013 1.23992,0.58954 2.33759,1.3823 3.293,2.37828 0.97567,0.97576 1.76843,2.13441 2.37829,3.47595 0.20323,0.4066 0.30487,0.92494 0.30491,1.55504 -4e-5,0.99607 -0.30495,2.09374 -0.91473,3.293 -0.58952,1.17902 -1.38229,2.43931 -2.37828,3.78087 -0.97574,1.3213 -2.06325,2.69339 -3.26252,4.11626 1.11796,0.12199 2.18514,0.93508 3.20154,2.43926 1.03665,1.48392 1.79892,3.24222 2.28681,5.27491 l 5.24442,26.98437 -9.23872,2.0124 -6.73847,-24.72805 c -0.12199,-0.34554 -0.35575,-0.86389 -0.70129,-1.55504 -0.34559,-0.71142 -0.81311,-1.41271 -1.40258,-2.10386 -0.58951,-0.6911 -1.21965,-1.03666 -1.89043,-1.03669 -0.14231,3e-5 -0.35575,0.0407 -0.6403,0.12196 m 6.6165,-6.18963 c 2.37826,-2.68316 4.21787,-5.08177 5.51884,-7.19583 1.32123,-2.13432 1.98187,-3.89262 1.9819,-5.27492 -3e-5,-0.50813 -0.0813,-0.92484 -0.24392,-1.25012 -0.44724,-1.05697 -1.03673,-1.95136 -1.76847,-2.68319 -0.71149,-0.75206 -1.53474,-1.35171 -2.46976,-1.79896 -0.91475,-0.46747 -1.94127,-0.80287 -3.07957,-1.0062 -1.13835,-0.22354 -2.4088,-0.33534 -3.81135,-0.33539 -1.70751,5e-5 -3.48614,0.14234 -5.33589,0.42687 -1.8498,0.2643 -3.77072,0.64036 -5.76277,1.12816 -1.97175,0.46757 -4.47199,1.11804 -7.50074,1.95141 -3.00843,0.83346 -5.4172,1.52459 -7.22632,2.07337 l 3.71988,9.9705 c 0.46752,-0.65043 1.02652,-1.19927 1.67699,-1.6465 0.65047,-0.46749 1.17898,-0.70125 1.58553,-0.70129 0.26424,4e-5 0.42686,0.122 0.48785,0.36589 l 6.25062,38.96726 7.01288,-2.01239 -3.75037,-21.98388 c 0.67078,-0.54881 1.66682,-1.30092 2.9881,-2.25632 1.32125,-0.95535 2.39859,-1.85991 3.23203,-2.71368 0.77241,0.22362 1.64648,0.68099 2.62221,1.37208 0.99601,0.67083 1.84975,1.44326 2.56123,2.3173 0.71142,0.8741 1.06715,1.6567 1.06718,2.3478 -3e-5,0.36591 -0.0813,0.68098 -0.24393,0.94521 l 6.73847,21.98388 5.48835,-1.49405 -4.72608,-24.2402 c -4e-5,-0.50815 -0.13216,-1.28058 -0.39638,-2.3173 -0.24396,-1.05699 -0.89443,-2.12416 -1.95141,-3.20154 -1.03672,-1.0773 -2.59175,-1.65663 -4.6651,-1.73797"
             style="font-size:62.44519043px;font-variant:normal;font-stretch:normal;text-align:start;line-height:125%;writing-mode:lr-tb;text-anchor:start;fill:#000000;font-family:Pokemon Hollow;-inkscape-font-specification:Pokemon Hollow"
             id="path3916"
             inkscape:connector-curvature="0" />
          <path
             d="m 237.98369,745.06812 c -1.58554,1.05704 -2.3783,2.58158 -2.37828,4.57362 -2e-5,1.38228 0.30489,2.31733 0.91472,2.80516 0.42686,0.2846 0.91471,0.42689 1.46356,0.42687 l 0,6.49454 c -0.52852,0.0813 -0.94523,0.12198 -1.25012,0.12196 -1.58554,2e-5 -3.15073,-0.51832 -4.69559,-1.55503 -1.74815,-1.15863 -2.62222,-2.66284 -2.62221,-4.51264 -1e-5,-0.89437 0.21343,-1.79893 0.64031,-2.71368 0.44719,-0.93503 1.057,-1.78877 1.82945,-2.56123 0.77242,-0.77241 1.69731,-1.4432 2.77466,-2.01239 1.09765,-0.56914 2.20549,-0.92486 3.3235,-1.06718 m 0.24393,-5.36638 12.74516,-5.73228 0.24393,17.04437 c 0.16258,1.05704 0.24389,2.25634 0.24392,3.59791 -3e-5,1.179 -0.0407,2.05307 -0.12196,2.62221 l 0.36589,18.69087 -13.72087,0.73178 0,-1.85994 c -2.23601,0.91473 -4.49233,1.37209 -6.76896,1.37209 -1.74815,0 -3.39465,-0.26425 -4.93951,-0.79276 -1.52455,-0.52851 -2.84582,-1.23996 -3.96381,-2.13436 -1.80912,-1.50421 -3.22186,-3.52676 -4.23822,-6.06767 -1.01636,-2.56122 -1.52454,-5.26473 -1.52454,-8.11056 0,-4.89883 1.41274,-8.85247 4.23822,-11.86092 2.43926,-2.5612 4.94967,-4.50245 7.53123,-5.82375 2.60187,-1.32123 5.25457,-1.98187 7.95811,-1.9819 0.75208,3e-5 1.32125,0.0204 1.70748,0.061 l 0.24393,0.24393 m 1.49405,0.76227 0,0.85374 c -0.32526,-0.0406 -0.82327,-0.061 -1.49405,-0.061 -1.26031,3e-5 -2.53076,0.15248 -3.81135,0.45736 -1.28063,0.30494 -2.61206,0.77247 -3.9943,1.40258 -1.36193,0.63017 -2.70353,1.42293 -4.02479,2.37828 -1.32127,0.95541 -2.52058,2.02259 -3.59791,3.20154 -0.99604,1.07736 -1.79897,2.22585 -2.40878,3.44546 -0.60982,1.19933 -1.06718,2.45961 -1.37209,3.78086 -0.3049,1.30096 -0.45736,2.61206 -0.45736,3.93331 0,2.58157 0.49802,4.98018 1.49405,7.19584 1.01636,2.19534 2.38845,3.8825 4.11626,5.06147 1.36192,0.95538 3.31333,1.43307 5.85424,1.43307 3.31332,0 6.54534,-0.7521 9.69608,-2.25632 l 0,3.87233 10.00099,-0.73178 -0.27442,-38.23548 -9.72657,4.26872"
             style="font-size:62.44519043px;font-variant:normal;font-stretch:normal;text-align:start;line-height:125%;writing-mode:lr-tb;text-anchor:start;fill:#000000;font-family:Pokemon Hollow;-inkscape-font-specification:Pokemon Hollow"
             id="path3918"
             inkscape:connector-curvature="0" />
          <path
             d="m 269.20629,745.06812 c -1.58554,1.05704 -2.3783,2.58158 -2.37829,4.57362 -10e-6,1.38228 0.30489,2.31733 0.91473,2.80516 0.42685,0.2846 0.9147,0.42689 1.46356,0.42687 l 0,6.49454 c -0.52853,0.0813 -0.94524,0.12198 -1.25013,0.12196 -1.58554,2e-5 -3.15073,-0.51832 -4.69558,-1.55503 -1.74815,-1.15863 -2.62222,-2.66284 -2.62221,-4.51264 -1e-5,-0.89437 0.21342,-1.79893 0.64031,-2.71368 0.44718,-0.93503 1.057,-1.78877 1.82944,-2.56123 0.77242,-0.77241 1.69731,-1.4432 2.77467,-2.01239 1.09765,-0.56914 2.20548,-0.92486 3.3235,-1.06718 m -0.27442,-29.60658 12.74516,-5.73228 0.76227,41.28457 c 0.16259,1.05704 0.24389,2.25634 0.24393,3.59791 -4e-5,1.179 -0.0407,2.05307 -0.12197,2.62221 l 0.36589,18.69087 -13.72086,0.73178 0,-1.85994 c -2.23601,0.91473 -4.49233,1.37209 -6.76896,1.37209 -1.74816,0 -3.39466,-0.26425 -4.93952,-0.79276 -1.52454,-0.52851 -2.84581,-1.23996 -3.9638,-2.13436 -1.80913,-1.50421 -3.22187,-3.52676 -4.23823,-6.06767 -1.01635,-2.56122 -1.52453,-5.26473 -1.52454,-8.11056 1e-5,-4.89883 1.41275,-8.85247 4.23823,-11.86092 2.43926,-2.5612 4.94967,-4.50245 7.53123,-5.82375 2.60187,-1.32123 5.25457,-1.98187 7.9581,-1.9819 0.75209,3e-5 1.32125,0.0204 1.70749,0.061 l -0.27442,-23.99627 m 1.52454,0.76227 0.48785,25.09394 c -0.32525,-0.0406 -0.82327,-0.061 -1.49405,-0.061 -1.2603,3e-5 -2.53075,0.15248 -3.81135,0.45736 -1.28063,0.30494 -2.61206,0.77247 -3.99429,1.40258 -1.36194,0.63017 -2.70353,1.42293 -4.02479,2.37828 -1.32128,0.95541 -2.52058,2.02259 -3.59792,3.20154 -0.99604,1.07736 -1.79896,2.22585 -2.40877,3.44546 -0.60982,1.19933 -1.06718,2.45961 -1.37209,3.78086 -0.30491,1.30096 -0.45736,2.61206 -0.45736,3.93331 0,2.58157 0.49801,4.98018 1.49405,7.19584 1.01636,2.19534 2.38844,3.8825 4.11626,5.06147 1.36191,0.95538 3.31332,1.43307 5.85423,1.43307 3.31332,0 6.54535,-0.7521 9.69608,-2.25632 l 0,3.87233 10.00099,-0.73178 -0.76227,-62.44519 -9.72657,4.23823"
             style="font-size:62.44519043px;font-variant:normal;font-stretch:normal;text-align:start;line-height:125%;writing-mode:lr-tb;text-anchor:start;fill:#000000;font-family:Pokemon Hollow;-inkscape-font-specification:Pokemon Hollow"
             id="path3920"
             inkscape:connector-curvature="0" />
          <path
             d="m 294.66612,779.15685 -1.49405,-41.19309 -12.50124,5.24442 -0.9757,4.23822 4.23822,-2.25632 0.73178,34.72904 10.00099,-0.76227 m 2.01239,1.49405 -13.75136,0.76227 -0.73178,-32.71664 -4.51264,1.00619 1.49405,-7.50074 15.48934,-6.49454 2.01239,44.94346 m -9.51313,-61.43899 c -2.31731,0.7115 -3.47596,2.47997 -3.47596,5.3054 0.16262,1.32132 0.81309,2.29702 1.95142,2.92712 1.15864,0.63019 2.31729,0.94526 3.47595,0.94521 1.17897,-0.14224 2.05304,-0.72157 2.62221,-1.73797 0.58948,-1.03664 0.88422,-2.26644 0.88423,-3.68939 -0.12197,-0.85369 -0.7013,-1.70743 -1.73797,-2.56123 -1.01637,-0.87402 -2.02257,-1.31105 -3.01859,-1.31111 -0.10165,6e-5 -0.33541,0.0407 -0.70129,0.12197 M 286.67752,717.23 c 1.44323,6e-5 2.68319,0.24399 3.71988,0.73178 1.05701,0.46759 1.92091,1.04691 2.59172,1.73798 0.67079,0.67085 1.12815,1.26034 1.37209,1.76847 0.24391,0.54889 0.36588,1.14854 0.36589,1.79896 -1e-5,0.99608 -0.21345,2.01244 -0.64031,3.04908 -0.42688,1.01641 -0.94523,1.89047 -1.55503,2.62221 -0.60983,0.73182 -1.18915,1.15869 -1.73797,1.28061 -1.05703,0.16266 -1.84979,0.24397 -2.37829,0.24393 -1.3416,4e-5 -2.51041,-0.23372 -3.50644,-0.70129 -0.99604,-0.46748 -1.7888,-1.14844 -2.37829,-2.04289 -0.58949,-0.89434 -0.95538,-1.94119 -1.09767,-3.14055 0,-1.72776 0.41671,-3.34377 1.25013,-4.84804 0.85374,-1.50416 2.18517,-2.33757 3.99429,-2.50025"
             style="font-size:62.44519043px;font-variant:normal;font-stretch:normal;text-align:start;line-height:125%;writing-mode:lr-tb;text-anchor:start;fill:#000000;font-family:Pokemon Hollow;-inkscape-font-specification:Pokemon Hollow"
             id="path3922"
             inkscape:connector-curvature="0" />
          <path
             d="m 322.19933,743.45211 c -1.72784,-1.54484 -3.95367,-2.31727 -6.67749,-2.31731 -1.50424,4e-5 -3.08976,0.28462 -4.75657,0.85375 -1.66685,0.54886 -3.354,1.39244 -5.06148,2.53073 -1.68716,1.11803 -3.30317,2.51044 -4.84804,4.17725 -0.99603,1.07736 -1.79896,2.22585 -2.40877,3.44546 -0.60982,1.19933 -1.06718,2.45961 -1.37209,3.78086 -0.30491,1.30096 -0.45736,2.61206 -0.45736,3.93331 0,2.58157 0.49802,4.98018 1.49405,7.19584 1.01636,2.19534 2.38844,3.8825 4.11626,5.06147 1.78879,1.23996 3.99429,1.85994 6.61651,1.85994 2.96775,0 5.9152,-0.87407 8.84233,-2.62221 2.94743,-1.76846 5.32571,-4.32969 7.13486,-7.68368 1.6668,-2.96776 2.50021,-5.98635 2.50024,-9.05578 -3e-5,-2.19531 -0.43706,-4.23819 -1.3111,-6.12865 -0.8741,-1.91073 -2.14455,-3.58772 -3.81135,-5.03098 m 1.25012,-1.55504 c 1.4432,0.77247 2.61201,1.81932 3.50644,3.14056 0.91469,1.30097 1.57533,2.77469 1.98191,4.42117 0.42683,1.6262 0.64027,3.32352 0.6403,5.09196 -3e-5,1.46358 -0.12199,2.87632 -0.36589,4.23823 -0.22363,1.36193 -0.5387,2.61206 -0.94521,3.75037 -0.40658,1.13833 -0.88427,2.10387 -1.43307,2.89662 -1.28064,1.91077 -2.65273,3.55727 -4.11626,4.93952 -1.46359,1.38225 -2.95763,2.50024 -4.48215,3.35399 -1.52456,0.83341 -3.03894,1.44323 -4.54313,1.82944 -1.48391,0.40655 -2.95763,0.60982 -4.42117,0.60982 -1.72783,0 -3.37433,-0.27442 -4.93951,-0.82325 -1.54488,-0.52851 -2.86615,-1.2298 -3.96381,-2.10387 -1.80912,-1.50421 -3.22186,-3.52676 -4.23822,-6.06767 -1.01636,-2.56122 -1.52454,-5.26473 -1.52454,-8.11056 0,-4.89883 1.41274,-8.85247 4.23822,-11.86092 2.41893,-2.58153 4.91918,-4.52278 7.50074,-5.82375 2.58154,-1.32123 5.22408,-1.98187 7.92761,-1.9819 1.58551,3e-5 3.11004,0.2033 4.57363,0.60981 1.46353,0.38626 2.99823,1.0164 4.60411,1.89043 m -1.79896,5.12246 c 0.2439,0.85377 0.36586,1.78882 0.36589,2.80516 -3e-5,1.48391 -0.29477,2.98812 -0.88423,4.51264 -0.58952,1.50423 -1.44326,2.74419 -2.56123,3.71988 -1.11802,0.95539 -2.39863,1.43308 -3.84184,1.43306 -1.46358,2e-5 -3.00845,-0.51832 -4.63461,-1.55503 -1.74815,-1.11798 -2.62222,-2.62219 -2.62221,-4.51264 -1e-5,-1.01634 0.26424,-2.02253 0.79276,-3.01859 0.54882,-1.01633 1.27044,-1.92089 2.16485,-2.71368 0.89438,-0.81306 1.96156,-1.47369 3.20154,-1.9819 1.23994,-0.50815 2.54088,-0.76224 3.90282,-0.76227 -1.34162,0.52853 -2.32748,1.25015 -2.95761,2.16484 -0.60983,0.91475 -0.91474,1.83964 -0.91472,2.77467 -2e-5,1.21965 0.30489,2.0734 0.91472,2.56123 0.42685,0.2846 0.91471,0.42689 1.46356,0.42687 1.09765,2e-5 2.21564,-0.58947 3.35399,-1.76847 1.15863,-1.17895 1.91073,-2.54087 2.25632,-4.08577"
             style="font-size:62.44519043px;font-variant:normal;font-stretch:normal;text-align:start;line-height:125%;writing-mode:lr-tb;text-anchor:start;fill:#000000;font-family:Pokemon Hollow;-inkscape-font-specification:Pokemon Hollow"
             id="path3924"
             inkscape:connector-curvature="0" />
          <path
             style="fill:#ffffff;fill-opacity:1;stroke:none"
             d="m 120.81018,52.508738 c 0.006,-0.01528 0.19335,-0.310121 0.33623,-0.52876 0.66108,-1.011601 1.36263,-1.939363 2.09413,-2.769401 0.19789,-0.224542 0.2054,-0.231835 0.23606,-0.229061 l 0.0262,0.0024 -0.0525,0.05917 c -0.46827,0.527533 -0.77531,0.899705 -1.1629,1.409585 -0.46252,0.608434 -0.95163,1.322807 -1.37338,2.005859 l -0.0374,0.06055 -0.0352,0 c -0.0259,0 -0.0341,-0.0027 -0.0312,-0.0103 l 0,0 z"
             id="path4076"
             inkscape:connector-curvature="0"
             transform="matrix(1.0048513,0,0,0.99517212,0,694.66148)" />
          <path
             style="fill:#ffffff;fill-opacity:1;stroke:none"
             d="m 101.43181,78.623408 c -1e-5,-0.01877 0.12451,-0.575065 0.12614,-0.563535 10e-4,0.0071 -0.002,0.0755 -0.007,0.151897 -0.005,0.0764 -0.0109,0.198993 -0.0129,0.272422 -0.002,0.07343 -0.005,0.134704 -0.006,0.136165 -0.002,0.0015 -0.0245,0.0044 -0.0511,0.0066 -0.0391,0.0032 -0.0483,0.0025 -0.0483,-0.0036 l 0,0 z"
             id="path4098"
             inkscape:connector-curvature="0"
             transform="matrix(1.0048513,0,0,0.99517212,0,694.66148)" />
        </g>
      </g>
    </g>
  </g>
</svg>
