<?xml version="1.0" encoding="UTF-8" standalone="no"?>
<!-- Created with Inkscape (http://www.inkscape.org/) -->

<svg
   xmlns:dc="http://purl.org/dc/elements/1.1/"
   xmlns:cc="http://creativecommons.org/ns#"
   xmlns:rdf="http://www.w3.org/1999/02/22-rdf-syntax-ns#"
   xmlns:svg="http://www.w3.org/2000/svg"
   xmlns="http://www.w3.org/2000/svg"
   xmlns:xlink="http://www.w3.org/1999/xlink"
   xmlns:sodipodi="http://sodipodi.sourceforge.net/DTD/sodipodi-0.dtd"
   xmlns:inkscape="http://www.inkscape.org/namespaces/inkscape"
   width="354.33069"
   height="354.33069"
   id="svg2"
   version="1.1"
   inkscape:version="0.48.3.1 r9886"
   sodipodi:docname="cover_new.svg"
   inkscape:export-filename="/mnt/storage/paolo/programmazione/unicaradio-apps/apps/android/Unicaradio/res/drawable-nodpi/cover.png"
   inkscape:export-xdpi="88.900002"
   inkscape:export-ydpi="88.900002">
  <defs
     id="defs4">
    <linearGradient
       id="linearGradient3762">
      <stop
         style="stop-color:#555555;stop-opacity:1;"
         offset="0"
         id="stop3765" />
      <stop
         id="stop3771"
         offset="0.44999999"
         style="stop-color:#aaaaaa;stop-opacity:1;" />
      <stop
         id="stop3775"
         offset="0.55000001"
         style="stop-color:#aaaaaa;stop-opacity:1;" />
      <stop
         style="stop-color:#555555;stop-opacity:1;"
         offset="1"
         id="stop3767" />
    </linearGradient>
    <linearGradient
       id="linearGradient3760">
      <stop
         style="stop-color:#7f0000;stop-opacity:1;"
         offset="0"
         id="stop3762" />
      <stop
         id="stop3768"
         offset="0.84334379"
         style="stop-color:#a80000;stop-opacity:1;" />
      <stop
         style="stop-color:#7f0000;stop-opacity:1;"
         offset="1"
         id="stop3764" />
    </linearGradient>
    <inkscape:perspective
       sodipodi:type="inkscape:persp3d"
       inkscape:vp_x="0 : 526.18109 : 1"
       inkscape:vp_y="0 : 1000 : 0"
       inkscape:vp_z="744.09448 : 526.18109 : 1"
       inkscape:persp3d-origin="372.04724 : 350.78739 : 1"
       id="perspective10" />
    <inkscape:perspective
       id="perspective3600"
       inkscape:persp3d-origin="0.5 : 0.33333333 : 1"
       inkscape:vp_z="1 : 0.5 : 1"
       inkscape:vp_y="0 : 1000 : 0"
       inkscape:vp_x="0 : 0.5 : 1"
       sodipodi:type="inkscape:persp3d" />
    <inkscape:perspective
       id="perspective3631"
       inkscape:persp3d-origin="0.5 : 0.33333333 : 1"
       inkscape:vp_z="1 : 0.5 : 1"
       inkscape:vp_y="0 : 1000 : 0"
       inkscape:vp_x="0 : 0.5 : 1"
       sodipodi:type="inkscape:persp3d" />
    <inkscape:perspective
       id="perspective3653"
       inkscape:persp3d-origin="0.5 : 0.33333333 : 1"
       inkscape:vp_z="1 : 0.5 : 1"
       inkscape:vp_y="0 : 1000 : 0"
       inkscape:vp_x="0 : 0.5 : 1"
       sodipodi:type="inkscape:persp3d" />
    <radialGradient
       inkscape:collect="always"
       xlink:href="#linearGradient3760"
       id="radialGradient3770"
       cx="67.85714"
       cy="195.75926"
       fx="67.85714"
       fy="195.75926"
       r="80.991028"
       gradientTransform="matrix(1,0,0,0.98236134,0,3.4529319)"
       gradientUnits="userSpaceOnUse" />
    <linearGradient
       inkscape:collect="always"
       xlink:href="#linearGradient3762"
       id="linearGradient3769"
       x1="0"
       y1="875.19684"
       x2="354.33071"
       y2="875.19684"
       gradientUnits="userSpaceOnUse"
       gradientTransform="translate(-2.4912109e-5,1.020625e-5)" />
    <linearGradient
       inkscape:collect="always"
       xlink:href="#linearGradient3761"
       id="linearGradient3767"
       x1="72.199165"
       y1="270.45383"
       x2="69.918472"
       y2="121.49561"
       gradientUnits="userSpaceOnUse" />
    <linearGradient
       id="linearGradient3761">
      <stop
         style="stop-color:#0a0a0a;stop-opacity:1;"
         offset="0"
         id="stop3763" />
      <stop
         style="stop-color:#696969;stop-opacity:1;"
         offset="1"
         id="stop3765-6" />
    </linearGradient>
    <linearGradient
       y2="121.49561"
       x2="69.918472"
       y1="270.45383"
       x1="72.199165"
       gradientUnits="userSpaceOnUse"
       id="linearGradient3013"
       xlink:href="#linearGradient3761"
       inkscape:collect="always" />
    <linearGradient
       inkscape:collect="always"
       xlink:href="#linearGradient3761"
       id="linearGradient3038"
       gradientUnits="userSpaceOnUse"
       x1="72.199165"
       y1="270.45383"
       x2="69.918472"
       y2="121.49561" />
    <linearGradient
       inkscape:collect="always"
       xlink:href="#linearGradient3761"
       id="linearGradient3084"
       gradientUnits="userSpaceOnUse"
       x1="72.199165"
       y1="270.45383"
       x2="69.918472"
       y2="121.49561" />
    <linearGradient
       inkscape:collect="always"
       xlink:href="#linearGradient3761"
       id="linearGradient3089"
       gradientUnits="userSpaceOnUse"
       x1="72.199165"
       y1="270.45383"
       x2="69.918472"
       y2="121.49561" />
    <linearGradient
       inkscape:collect="always"
       xlink:href="#linearGradient3762"
       id="linearGradient3018"
       gradientUnits="userSpaceOnUse"
       x1="0"
       y1="875.19684"
       x2="354.33071"
       y2="875.19684"
       gradientTransform="translate(-477.15879,-16.510685)" />
    <filter
       inkscape:collect="always"
       id="filter3844">
      <feGaussianBlur
         inkscape:collect="always"
         stdDeviation="2.201467"
         id="feGaussianBlur3846" />
    </filter>
    <filter
       inkscape:collect="always"
       id="filter3889">
      <feGaussianBlur
         inkscape:collect="always"
         stdDeviation="3.800625"
         id="feGaussianBlur3891" />
    </filter>
    <linearGradient
       inkscape:collect="always"
       xlink:href="#linearGradient3762-1"
       id="linearGradient3829"
       gradientUnits="userSpaceOnUse"
       gradientTransform="translate(-478.02938,455.34984)"
       x1="0"
       y1="875.19684"
       x2="354.33072"
       y2="875.19684" />
    <linearGradient
       id="linearGradient3762-1">
      <stop
         style="stop-color:#555555;stop-opacity:1;"
         offset="0"
         id="stop3765-9" />
      <stop
         id="stop3771-7"
         offset="0.44999999"
         style="stop-color:#aaaaaa;stop-opacity:1;" />
      <stop
         id="stop3775-6"
         offset="0.55000001"
         style="stop-color:#aaaaaa;stop-opacity:1;" />
      <stop
         style="stop-color:#555555;stop-opacity:1;"
         offset="1"
         id="stop3767-8" />
    </linearGradient>
    <linearGradient
       y2="875.19684"
       x2="354.33072"
       y1="875.19684"
       x1="0"
       gradientTransform="translate(-965.05053,-26.552992)"
       gradientUnits="userSpaceOnUse"
       id="linearGradient3849"
       xlink:href="#linearGradient3762-1"
       inkscape:collect="always" />
    <linearGradient
       inkscape:collect="always"
       xlink:href="#linearGradient3762-1"
       id="linearGradient3049"
       gradientUnits="userSpaceOnUse"
       gradientTransform="translate(-1467.3818,-29.164766)"
       x1="0"
       y1="875.19684"
       x2="354.33072"
       y2="875.19684" />
  </defs>
  <sodipodi:namedview
     id="base"
     pagecolor="#ffffff"
     bordercolor="#666666"
     borderopacity="1.0"
     inkscape:pageopacity="0"
     inkscape:pageshadow="2"
     inkscape:zoom="1.1486445"
     inkscape:cx="-1139.689"
     inkscape:cy="172.38705"
     inkscape:document-units="mm"
     inkscape:current-layer="layer1"
     showgrid="false"
     units="mm"
     inkscape:window-width="1920"
     inkscape:window-height="1025"
     inkscape:window-x="-2"
     inkscape:window-y="-3"
     inkscape:window-maximized="1"
     inkscape:snap-bbox="true"
     inkscape:bbox-paths="true"
     inkscape:bbox-nodes="true"
     inkscape:snap-bbox-edge-midpoints="true"
     inkscape:snap-bbox-midpoints="true"
     inkscape:object-paths="true"
     inkscape:snap-intersection-paths="true"
     inkscape:snap-midpoints="true"
     inkscape:snap-smooth-nodes="true"
     inkscape:object-nodes="true"
     inkscape:snap-object-midpoints="false"
     inkscape:snap-center="true"
     inkscape:snap-global="false" />
  <metadata
     id="metadata7">
    <rdf:RDF>
      <cc:Work
         rdf:about="">
        <dc:format>image/svg+xml</dc:format>
        <dc:type
           rdf:resource="http://purl.org/dc/dcmitype/StillImage" />
        <dc:title></dc:title>
      </cc:Work>
    </rdf:RDF>
  </metadata>
  <g
     inkscape:label="Livello 1"
     inkscape:groupmode="layer"
     id="layer1"
     transform="translate(0,-698.03149)"
     style="display:inline">
    <rect
       style="fill:url(#linearGradient3769);fill-opacity:1;stroke:#000000;stroke-width:1.7645669;stroke-linecap:round;stroke-linejoin:round;stroke-miterlimit:4;stroke-opacity:1;stroke-dasharray:none"
       id="rect3042"
       width="352.56787"
       height="352.56787"
       x="0.88140869"
       y="698.9129"
       rx="17.628393"
       ry="17.628393" />
    <path
       style="font-size:17.34588623px;font-style:normal;font-weight:normal;line-height:125%;letter-spacing:0px;word-spacing:0px;fill:#000000;fill-opacity:1;stroke:none;font-family:Sans"
       d="m 177.15625,50.46875 c -69.96564,0 -126.6875,56.72187 -126.6875,126.6875 0,69.96563 56.72186,126.6875 126.6875,126.6875 69.96564,0 126.6875,-56.72187 126.6875,-126.6875 0,-69.96563 -56.72186,-126.6875 -126.6875,-126.6875 z m 0,11.53125 c 63.59972,0 115.15625,51.55653 115.15625,115.15625 0,63.59972 -51.55653,115.15625 -115.15625,115.15625 C 113.55653,292.3125 62,240.75597 62,177.15625 62,113.55653 113.55653,62 177.15625,62 z"
       id="path3868"
       transform="translate(0,698.03149)"
       inkscape:connector-curvature="0" />
    <rect
       ry="17.628393"
       rx="17.628393"
       y="682.40222"
       x="-476.27737"
       height="352.56787"
       width="352.56787"
       id="rect3012"
       style="fill:url(#linearGradient3018);fill-opacity:1;stroke:#000000;stroke-width:1.7628392;stroke-miterlimit:4;stroke-opacity:1;stroke-dasharray:none"
       inkscape:export-filename="/mnt/storage/paolo/programmazione/unicaradio-apps/apps/android/Unicaradio/res/drawable-nodpi/cover.png"
       inkscape:export-xdpi="87.888519"
       inkscape:export-ydpi="87.888519" />
    <path
       inkscape:export-ydpi="87.888519"
       inkscape:export-xdpi="87.888519"
       inkscape:export-filename="/mnt/storage/paolo/programmazione/unicaradio-apps/apps/android/Unicaradio/res/drawable-nodpi/cover.png"
       transform="matrix(1.5835499,0,-1.0388621e-8,1.6123417,-407.4486,543.05532)"
       d="m 147.85714,195.75926 c 0,43.3938 -35.81722,78.57143 -80,78.57143 -44.18278,0 -80,-35.17763 -80,-78.57143 0,-43.3938 35.81722,-78.57142 80,-78.57142 44.18278,0 80,35.17762 80,78.57142 z"
       sodipodi:ry="78.571426"
       sodipodi:rx="80"
       sodipodi:cy="195.75926"
       sodipodi:cx="67.85714"
       id="path3014"
       style="font-size:17.34588623px;font-style:normal;font-weight:normal;line-height:125%;letter-spacing:0px;word-spacing:0px;opacity:0.4;fill:#000000;fill-opacity:1;stroke:none;font-family:Sans"
       sodipodi:type="arc" />
    <path
       inkscape:export-ydpi="87.888519"
       inkscape:export-xdpi="87.888519"
       inkscape:export-filename="/mnt/storage/paolo/programmazione/unicaradio-apps/apps/android/Unicaradio/res/drawable-nodpi/cover.png"
       inkscape:connector-curvature="0"
       sodipodi:nodetypes="cccc"
       id="path3016"
       d="m -366.34771,795.89911 0,132.72468 160.80426,-66.36236 -160.80426,-66.36232 z"
       style="font-size:17.34588623px;font-style:normal;font-weight:normal;line-height:125%;letter-spacing:0px;word-spacing:0px;opacity:0.4;fill:#ffffff;fill-opacity:1;stroke:#ffffff;stroke-width:1.33362591;stroke-linecap:butt;stroke-linejoin:miter;stroke-miterlimit:4;stroke-opacity:1;stroke-dasharray:none;font-family:Sans" />
    <path
       style="font-size:17.34588623px;font-style:normal;font-weight:normal;line-height:125%;letter-spacing:0px;word-spacing:0px;fill:#000000;fill-opacity:1;stroke:none;display:inline;font-family:Sans"
       d="m 109.40109,110.70992 0,132.72468 160.80426,-66.36236 -160.80426,-66.36232 z"
       id="path3824"
       sodipodi:nodetypes="cccc"
       inkscape:connector-curvature="0"
       inkscape:export-filename="/mnt/storage/paolo/programmazione/unicaradio-apps/apps/android/res/drawable-mdpi/ic_stat_notify.png"
       inkscape:export-xdpi="7.8899999"
       inkscape:export-ydpi="7.8899999"
       transform="translate(0,698.03149)" />
    <g
       style="display:inline"
       id="g3799"
       transform="translate(0,698.03149)">
      <path
         style="font-size:17.34588623px;font-style:normal;font-weight:normal;line-height:125%;letter-spacing:0px;word-spacing:0px;fill:#000000;fill-opacity:1;stroke:none;display:inline;font-family:Sans"
         d="m 177.15625,50.46875 c -69.96564,0 -126.6875,56.72187 -126.6875,126.6875 0,69.96563 56.72186,126.6875 126.6875,126.6875 69.96564,0 126.6875,-56.72187 126.6875,-126.6875 0,-69.96563 -56.72186,-126.6875 -126.6875,-126.6875 z m 0,11.53125 c 63.59972,0 115.15625,51.55653 115.15625,115.15625 0,63.59972 -51.55653,115.15625 -115.15625,115.15625 C 113.55653,292.3125 62,240.75597 62,177.15625 62,113.55653 113.55653,62 177.15625,62 z"
         id="path3855"
         inkscape:connector-curvature="0" />
      <path
         inkscape:connector-curvature="0"
         id="path3886"
         d="m 177.15625,50.46875 c -69.96564,0 -126.6875,56.72187 -126.6875,126.6875 0,69.96563 56.72186,126.6875 126.6875,126.6875 69.96564,0 126.6875,-56.72187 126.6875,-126.6875 0,-69.96563 -56.72186,-126.6875 -126.6875,-126.6875 z m 0,5.78125 c 68.36993,0 123.8125,54.13204 123.8125,120.90625 0,66.77421 -55.44257,120.90625 -123.8125,120.90625 -68.36993,0 -123.8125,-54.13204 -123.8125,-120.90625 0,-66.77421 55.44257,-120.90625 123.8125,-120.90625 z"
         style="font-size:17.34588623px;font-style:normal;font-weight:normal;line-height:125%;letter-spacing:0px;word-spacing:0px;fill:#333333;fill-opacity:1;stroke:none;display:inline;filter:url(#filter3889);font-family:Sans" />
    </g>
    <path
       inkscape:export-ydpi="7.8899999"
       inkscape:export-xdpi="7.8899999"
       inkscape:export-filename="/mnt/storage/paolo/programmazione/unicaradio-apps/apps/android/res/drawable-mdpi/ic_stat_notify.png"
       inkscape:connector-curvature="0"
       sodipodi:nodetypes="cccc"
       id="path3830"
       d="m 109.40109,808.74141 0,132.72468 160.80426,-66.36236 -160.80426,-66.36232 z"
       style="font-size:17.34588623px;font-style:normal;font-weight:normal;line-height:125%;letter-spacing:0px;word-spacing:0px;fill:#1a1a1a;fill-opacity:1;stroke:none;display:inline;filter:url(#filter3844);font-family:Sans"
       transform="matrix(0.95578497,0,0,0.95578497,4.5104018,42.1625)" />
    <rect
       inkscape:export-ydpi="87.888519"
       inkscape:export-xdpi="87.888519"
       inkscape:export-filename="/mnt/storage/paolo/programmazione/unicaradio-apps/apps/android/Unicaradio/res/drawable-nodpi/cover.png"
       style="fill:url(#linearGradient3849);fill-opacity:1;stroke:#000000;stroke-width:1.7628392;stroke-miterlimit:4;stroke-opacity:1;stroke-dasharray:none;display:inline"
       id="rect3825"
       width="352.56787"
       height="352.56787"
       x="-964.16913"
       y="672.35986"
       rx="17.628393"
       ry="17.628393" />
    <path
       inkscape:export-ydpi="87"
       inkscape:export-xdpi="87"
       inkscape:export-filename="/mnt/storage/paolo/programmazione/unicaradio-apps/apps/android/Unicaradio/res/drawable-nodpi/cover.png"
       id="path3827"
       d="m -787.89174,721.95797 c -69.96564,0 -126.6875,56.7218 -126.6875,126.6875 0,69.9656 56.72186,126.68749 126.6875,126.68749 69.96564,0 126.6875,-56.72189 126.6875,-126.68749 0,-69.9657 -56.72186,-126.6875 -126.6875,-126.6875 z m -66.34375,63.9062 160.8125,66.3438 -160.8125,66.375 0,-132.7188 z"
       style="font-size:17.34588623px;font-style:normal;font-weight:normal;line-height:125%;letter-spacing:0px;word-spacing:0px;fill:#4b4b4b;fill-opacity:1;stroke:none;display:inline;font-family:Sans"
       inkscape:connector-curvature="0" />
    <text
       xml:space="preserve"
       style="font-size:40px;font-style:normal;font-weight:normal;text-align:center;line-height:125%;letter-spacing:0px;word-spacing:0px;text-anchor:middle;fill:#000000;fill-opacity:1;stroke:none;font-family:Sans"
       x="-792.18671"
       y="1078.4799"
       id="text3874"
       sodipodi:linespacing="125%"><tspan
         sodipodi:role="line"
         id="tspan3876"
         x="-792.18671"
         y="1078.4799">circle without</tspan><tspan
         sodipodi:role="line"
         x="-792.18671"
         y="1128.4799"
         id="tspan3878">arrow</tspan></text>
    <text
       sodipodi:linespacing="125%"
       id="text3886"
       y="1088.927"
       x="-302.91434"
       style="font-size:40px;font-style:normal;font-weight:normal;text-align:center;line-height:125%;letter-spacing:0px;word-spacing:0px;text-anchor:middle;fill:#000000;fill-opacity:1;stroke:none;font-family:Sans"
       xml:space="preserve"><tspan
         y="1088.927"
         x="-302.91434"
         id="tspan3888"
         sodipodi:role="line">circle with</tspan><tspan
         id="tspan3890"
         y="1138.927"
         x="-302.91434"
         sodipodi:role="line">arrow</tspan></text>
    <text
       xml:space="preserve"
       style="font-size:40px;font-style:normal;font-weight:normal;text-align:center;line-height:125%;letter-spacing:0px;word-spacing:0px;text-anchor:middle;fill:#000000;fill-opacity:1;stroke:none;font-family:Sans"
       x="188.0992"
       y="1104.5977"
       id="text3892"
       sodipodi:linespacing="125%"><tspan
         sodipodi:role="line"
         x="188.0992"
         y="1104.5977"
         id="tspan3896">engraved</tspan></text>
    <rect
       ry="17.628393"
       rx="17.628393"
       y="669.74811"
       x="-1466.5004"
       height="352.56787"
       width="352.56787"
       id="rect3039"
       style="fill:url(#linearGradient3049);fill-opacity:1;stroke:#000000;stroke-width:1.7628392;stroke-miterlimit:4;stroke-opacity:1;stroke-dasharray:none;display:inline"
       inkscape:export-filename="/mnt/storage/paolo/programmazione/unicaradio-apps/apps/android/Unicaradio/res/drawable-nodpi/cover_xmas.png"
       inkscape:export-xdpi="87.888519"
       inkscape:export-ydpi="87.888519" />
    <path
       inkscape:connector-curvature="0"
       style="font-size:17.34588623px;font-style:normal;font-weight:normal;line-height:125%;letter-spacing:0px;word-spacing:0px;fill:#4b4b4b;fill-opacity:1;stroke:none;display:inline;font-family:Sans"
       d="m -1290.223,719.3462 c -69.9656,0 -126.6875,56.7218 -126.6875,126.6875 0,69.9656 56.7219,126.68749 126.6875,126.68749 69.9657,0 126.6875,-56.72189 126.6875,-126.68749 0,-69.9657 -56.7218,-126.6875 -126.6875,-126.6875 z m -66.3437,63.9062 160.8125,66.3438 -160.8125,66.375 0,-132.7188 z"
       id="path3041"
       inkscape:export-filename="/mnt/storage/paolo/programmazione/unicaradio-apps/apps/android/Unicaradio/res/drawable-nodpi/cover_xmas.png"
       inkscape:export-xdpi="87"
       inkscape:export-ydpi="87" />
    <text
       sodipodi:linespacing="125%"
       id="text3043"
       y="1075.868"
       x="-1294.5179"
       style="font-size:40px;font-style:normal;font-weight:normal;text-align:center;line-height:125%;letter-spacing:0px;word-spacing:0px;text-anchor:middle;fill:#000000;fill-opacity:1;stroke:none;font-family:Sans"
       xml:space="preserve"><tspan
         y="1075.868"
         x="-1294.5179"
         id="tspan3045"
         sodipodi:role="line">circle without</tspan><tspan
         id="tspan3047"
         y="1125.868"
         x="-1294.5179"
         sodipodi:role="line">arrow</tspan><tspan
         y="1175.868"
         x="-1294.5179"
         sodipodi:role="line"
         id="tspan3051">for xmas</tspan></text>
    <g
       id="g4033"
       transform="matrix(0.16005612,-0.02313087,0.02313087,0.16005612,-1492.7297,659.55665)"
       inkscape:export-filename="/mnt/storage/paolo/programmazione/unicaradio-apps/apps/android/Unicaradio/res/drawable-nodpi/cover_xmas.png"
       inkscape:export-xdpi="87"
       inkscape:export-ydpi="87">
      <path
         sodipodi:nodetypes="caaaaaaaaaaaaaaaaaaaaaaaaaaaaaaaaaaaaaaaaaaaaaaaaaaaaaaaaaaaaaazaaaaaaaaaaaaaaaaaaaaaaaaaaaaaaaaaaaaaaaaaaaaaaaaaaaaaaaaaaaaaaaaaaaaaaaaaaaaaaaccaaaaaaaaaaccaaaaaaaaaaaaazzzc"
         inkscape:connector-curvature="0"
         id="path3041-2"
         d="m 426.83787,717.48591 c -0.0382,-0.1957 2.04574,-6.384 3.40926,-9.4386 1.63111,-3.6541 3.5933,-7.1619 5.68211,-10.5751 1.49618,-2.4448 3.09458,-4.8391 4.89293,-7.071 1.49939,-1.8609 3.3015,-3.4574 4.89292,-5.2402 2.63427,-2.9511 5.02189,-6.1191 7.70242,-9.0282 1.8806,-2.041 3.67332,-4.2089 5.87151,-5.9031 7.87935,-6.0728 16.93044,-10.5017 25.82202,-14.9629 3.93945,-1.9766 8.10074,-3.476 12.1534,-5.2086 6.51094,-2.7836 12.99464,-5.6324 19.54014,-8.3338 8.81782,-3.6391 17.66785,-7.204 26.57964,-10.6066 5.10634,-1.9496 10.26526,-3.7587 15.40482,-5.6189 10.44996,-3.7824 20.99205,-7.3144 31.37787,-11.2695 8.34319,-3.1773 16.59634,-6.5879 24.84344,-10.0069 3.51885,-1.4588 6.96333,-3.0976 10.5119,-4.4825 2.08033,-0.8119 4.20121,-1.5164 6.31345,-2.2413 1.83489,-0.6297 3.67007,-1.2606 5.52427,-1.8309 3.53388,-1.0869 7.13164,-1.9574 10.66974,-3.0305 3.67161,-1.1135 7.31187,-2.3285 10.95384,-3.5355 4.68421,-1.5524 9.31725,-3.2584 14.01587,-4.7666 4.46904,-1.4346 8.94325,-2.8659 13.47922,-4.0722 7.06478,-1.8789 14.26315,-3.216 21.37104,-4.9245 7.16127,-1.7214 14.28196,-3.6078 21.43417,-5.3665 8.57748,-2.1091 17.15854,-4.2049 25.75889,-6.2187 10.69486,-2.5043 21.39408,-4.9956 32.13548,-7.292 8.41713,-1.7996 16.85659,-3.4985 25.31695,-5.0824 8.39815,-1.5722 16.87812,-2.7 25.25381,-4.3878 4.79429,-0.9661 9.5802,-2.0015 14.29998,-3.283 7.48323,-2.0319 14.84692,-4.4904 22.19178,-6.9764 8.12197,-2.749 16.14248,-5.7902 24.18053,-8.7757 11.16408,-4.1465 22.3616,-8.2151 33.39817,-12.69 9.05897,-3.6731 17.99867,-7.6364 26.92688,-11.6168 5.60748,-2.4999 11.20897,-5.0183 16.73065,-7.7024 7.30517,-3.5511 14.55578,-7.2225 21.68671,-11.1117 5.38082,-2.9347 10.56462,-6.2187 15.90992,-9.2176 6.9233,-3.8842 13.8575,-7.757 20.9291,-11.3642 4.9765,-2.5386 10.0343,-4.9182 15.1207,-7.2289 2.0325,-0.9234 4.0569,-1.8756 6.1506,-2.6505 5.8726,-2.1734 11.9191,-3.8516 17.9352,-5.5886 3.8916,-1.1236 7.8627,-1.9633 11.743,-3.1252 2.5183,-0.754 4.9312,-1.8566 7.4815,-2.4938 6.109,-1.5262 12.4109,-2.1376 18.6247,-3.1567 3.4484,-0.5656 6.8931,-1.1585 10.354,-1.6415 1.8265,-0.2549 3.6516,-0.5564 5.4927,-0.6629 2.3111,-0.1337 4.6434,-0.2185 6.9448,0.032 3.5311,0.3837 6.9299,1.5676 10.4172,2.2413 4.0985,0.7916 8.2986,1.0815 12.3428,2.115 3.9882,1.0191 7.9268,2.3186 11.6799,4.009 5.1945,2.3395 15.5383,2.771 14.8682,8.4285 -0.8422,7.1106 -14.014,3.2327 -20.645,5.9346 -2.0142,0.8208 -4.0798,1.6946 -5.7452,3.0936 -1.8875,1.5855 -3.2831,3.7104 -4.5773,5.8084 -0.4819,0.7812 -1.663,1.7208 -1.168,2.4938 2.6389,4.1205 9.8309,-0.7577 14.6788,-0.095 4.1744,0.5709 8.2493,1.8884 12.1534,3.4724 2.8661,1.1628 5.5418,2.7669 8.1759,4.3879 1.9691,1.2116 3.877,2.533 5.6821,3.9774 2.3787,1.9034 4.6902,3.9161 6.7554,6.1556 1.4697,1.5937 2.7462,3.3613 3.9775,5.1455 1.1778,1.7067 2.3093,3.4562 3.2515,5.3033 1.3097,2.5676 2.2732,5.2989 3.3146,7.9865 0.7961,2.0546 1.4712,4.1543 2.2413,6.2188 0.8277,2.219 1.8209,4.37798 2.5569,6.6291 1.9259,5.8907 7.7112,16.13678 4.8487,17.9492 -2.8626,1.81242 -6.7093,0.007 -10.0257,-0.4294 -2.5008,-0.32882 -4.9166,-1.1312 -7.3869,-1.6415 -1.8674,-0.3857 -3.7267,-0.8373 -5.6189,-1.0732 -3.1694,-0.3952 -7.1712,-2.6827 -9.5649,-0.5683 -0.245,0.2164 -0.174,0.6711 -0.063,0.9786 0.4368,1.2114 1.6337,2.0209 2.6517,2.8095 1.2919,1.0009 2.8913,1.5276 4.2931,2.3676 1.6248,0.9735 3.2815,1.9179 4.7666,3.0936 2.9351,2.3234 5.4143,5.171 8.1129,7.7655 1.5396,1.4802 3.1637,2.8784 4.6088,4.451 1.1387,1.2391 2.245,2.5207 3.1883,3.9143 1.0455,1.5447 1.878,3.226 2.7148,4.893 1.0099,2.0118 1.9961,4.0445 2.7779,6.1556 0.636,1.7173 1.1106,3.4931 1.5468,5.2717 0.5545,2.2608 1.0011,4.5498 1.3574,6.8501 0.1734,1.1196 0.2525,2.2518 0.3788,3.3777 0.1263,1.1259 0.3121,2.2467 0.3788,3.3777 0.2031,3.4454 0.349,6.9145 0.063,10.3541 -0.1885,2.267 -0.7069,4.4962 -1.1679,6.7238 -0.5833,2.8191 -1.0753,5.6776 -2.0203,8.3969 -1.3012,3.7445 -2.991,7.3714 -4.9877,10.796 -1.1355,1.9475 -2.2458,4.0122 -3.9459,5.4927 -6.4675,5.6318 -15.381,7.6257 -22.76,11.9956 -6.7298,3.9853 -13.1763,8.4401 -19.5717,12.9425 -5.5135,3.8816 -10.6571,8.2738 -16.194,12.1219 -9.0646,6.2997 -18.4347,12.1552 -27.8424,17.9302 -7.2502,4.4507 -14.5634,8.8092 -22.0339,12.8794 -5.6241,3.0643 -11.3528,5.9395 -17.141,8.681 -6.591,3.1217 -13.4494,5.6616 -20.0137,8.8389 -3.2665,1.581 -6.3336,3.5603 -9.628,5.0823 -2.8079,1.2972 -5.7011,2.4113 -8.6179,3.4408 -6.5408,2.3086 -13.2374,4.1515 -19.8873,6.1241 -4.4481,1.3194 -8.9362,2.5012 -13.3846,3.8196 -3.3986,1.0073 -6.7581,2.1449 -10.1646,3.1252 -3.86333,1.1117 -7.73562,2.2022 -11.64835,3.1251 -9.63687,2.273 -19.40853,3.9312 -29.10502,5.9347 -7.89609,1.6314 -15.85994,2.9742 -23.67545,4.956 -10.4748,2.6562 -20.72523,6.1305 -31.06219,9.2808 -9.80236,2.9873 -19.59034,6.0226 -29.35756,9.1229 -5.33472,1.6934 -10.70639,3.2826 -15.97303,5.1771 -4.97352,1.789 -9.79348,3.9826 -14.74192,5.8399 -7.30668,2.7424 -14.69695,5.2572 -22.06552,7.8287 -8.1718,2.8518 -16.51396,5.2374 -24.55933,8.4285 -6.83779,2.7121 -13.33459,6.223 -20.10835,9.0913 -7.16847,3.0355 -14.48871,5.6994 -21.71828,8.5863 -7.02812,2.8065 -13.9712,5.8298 -21.05537,8.4916 -5.89387,2.2146 -11.78295,4.4842 -17.8355,6.2188 -3.52627,1.0106 -7.19059,1.4777 -10.73287,2.4307 -4.42863,1.1914 -8.77305,2.6783 -13.13199,4.1037 -6.77463,2.2154 -13.43514,4.7753 -20.23461,6.9132 -7.84409,2.4664 -15.76886,4.6742 -23.70702,6.8186 -7.46026,2.0153 -14.96727,3.8552 -22.4759,5.6821 -6.33147,1.5404 -12.64603,3.17 -19.03506,4.451 -5.80583,1.164 -11.66663,2.0398 -17.51983,2.9357 -2.12115,0.3247 -4.25339,0.5729 -6.37659,0.8839 -3.41321,0.4999 -6.80523,1.1472 -10.22779,1.5784 -3.43015,0.4321 -6.88395,0.6509 -10.3225,1.0101 -2.65352,0.2773 -5.29039,0.7492 -7.95495,0.8839 -2.18597,0.1105 -4.38949,-0.2944 -6.56599,-0.063 -3.33555,0.3545 -6.4878,1.8032 -9.81742,2.2097 -4.8371,0.5906 -9.77408,-0.237 -14.61565,0.3157 -2.45634,0.2804 -4.80473,1.2296 -7.26047,1.5152 -1.21283,0.1411 -2.44644,0.212 -3.6618,0.095 -2.56405,-0.2474 -5.12432,-0.7911 -7.54458,-1.6731 -3.89135,-1.418 -7.48564,-3.5811 -11.01698,-5.7452 -1.53105,-0.9383 -2.99265,-1.9947 -4.38785,-3.1252 -1.90948,-1.5471 -3.77598,-3.1695 -5.42957,-4.9876 -1.46559,-1.6113 -2.58274,-3.5097 -3.9459,-5.2086 -1.71926,-2.1427 -3.7676,-4.0256 -5.33487,-6.2819 -1.32765,-1.9113 -2.38422,-4.0032 -3.40927,-6.0925 -1.0778,-2.1967 -1.95896,-4.4854 -2.87262,-6.7554 -0.71875,-1.7857 -1.58045,-3.5316 -2.05187,-5.398 -0.35352,-1.3995 -0.31274,-2.8724 -0.56821,-4.2931 -0.10887,-0.6055 -0.34051,-1.1881 -0.41038,-1.7993 -0.35018,-3.0632 -0.18556,-6.17 -0.0316,-9.2492 0.0713,-1.4264 0.26624,-2.8443 0.44194,-4.2616 0.12687,-1.0234 0.31305,-2.0389 0.44194,-3.0621 0.17195,-1.365 0.23966,-2.7428 0.44194,-4.1037 0.19055,-1.2819 0.37185,-2.573 0.72605,-3.8196 0.90848,-3.1975 1.93444,-6.4169 3.5671,-9.3124 0.99624,-1.3993 1.04867,-4.5745 -0.0316,-5.0823 -2.44146,-0.9675 -4.1031,3.2946 -5.96621,5.1455 -2.51826,2.5016 -4.81397,5.2276 -7.00793,8.018 -1.78276,2.2675 -3.40391,4.6604 -4.98763,7.0711 -1.52991,2.3288 -2.78807,4.8311 -4.35628,7.1342 -0.30441,0.4471 -0.50104,1.0403 -0.97859,1.2943 -0.34426,0.183 -0.85275,0.2925 -1.16799,0.063 -1.53115,-1.1145 -0.92496,-3.6738 -1.45209,-5.4927 -0.74938,-2.5859 -1.64179,-5.1283 -2.43068,-7.7025 -0.74628,-2.435 -1.42479,-4.8906 -2.17814,-7.3236 -0.86323,-2.7877 -1.77624,-5.5599 -2.68322,-8.3337 -0.86143,-2.6346 -1.85002,-5.2292 -2.62008,-7.8918 -1.77578,-4.1925 -1.50501,-9.2819 -2.80949,-12.9426 -0.43877,-2.7112 -0.21518,-5.5068 0.0631,-8.2391 0.20324,-1.9955 0.76317,-3.9385 1.16799,-5.9031 0.33446,-1.6231 0.57947,-3.2698 1.04172,-4.8613 0.91376,-3.146 1.97257,-6.2735 3.40927,-9.2177 1.60592,-3.2908 3.5804,-6.4139 5.77681,-9.3439 1.69825,-2.2654 3.56927,-4.4287 5.6821,-6.3134 1.90868,-1.7026 4.22351,-2.8909 6.25032,-4.451 0.70462,-0.5424 1.74576,-0.8698 2.05188,-1.7046 0.0625,-0.1706 0.0224,-0.3978 -0.0947,-0.5367 -0.94399,-1.1196 -2.71282,-1.1355 -4.13531,-1.4836 -1.36164,-0.3333 -2.76706,-0.4935 -4.16688,-0.5683 -1.46114,-0.078 -2.94138,-0.094 -4.38785,0.1263 -2.07466,0.3167 -4.09196,0.9782 -6.06091,1.7047 -4.14313,1.5286 -9.33887,4.4719 -12.02713,5.5558 -2.68826,1.0839 -3.08084,1.3911 -3.91434,1.3574 -0.8335,-0.034 -0.6561,-0.4041 -0.69433,-0.5998 z"
         style="fill:#ffffff;stroke:#000000;stroke-width:1px;stroke-linecap:butt;stroke-linejoin:miter;stroke-opacity:1;display:inline" />
      <path
         inkscape:connector-curvature="0"
         id="path3885"
         d="m 1009.1843,474.0973 c 0.25,0.1875 11.9375,15.96875 11.9375,15.96875 l 9.6875,14.59375 9.8125,14.34375 8.9063,14.59375 9,15.09375 7.625,14.875 7.7812,15 6.25,13.65625 6.75,15.59375 6.75,16.5 5.8125,16.21875 5.875,17.59375 4.2813,14.28125 2.4687,8.625 3.875,14.75 19.75,-10.125 15.0625,-10.8125 11.8438,-7.28125 15,-10.3125 22.1874,-13.6875 24.4689,-15.09375 c 0,0 3.9375,-12.71875 3.9375,-12.84375 0,-0.125 2.3125,-17.5 2.3125,-17.5 l -2.9063,-15.71875 -3.4687,-12.5625 -6.4375,-13.65625 -0.031,-9.3125 10.125,-1.46875 -1.8437,-15.59375 -10.5625,-21.28125 -7.25,-13.59375 -10.6251,-12.625 -15.5,-13.84375 -0.6875,-8.96875 16.875,-4.625 -29.5,-13.375 -42.875,-7.6875 -48.1875,6.1875 -53.5625,22.1875 -13.625,9.5 z"
         style="fill:#d9f2f7;fill-opacity:1;stroke:none;display:inline" />
      <path
         sodipodi:nodetypes="caaaaaaaaaaczzaaaaaaaaaaaaaacaaaaaaaaazzzaaaaaaaaacaaaaaaaaaaaaaacaaaaaaaaaaaaaaaaac"
         inkscape:connector-curvature="0"
         id="path3092"
         d="m 1086.3718,676.81605 c 3.5082,2.76735 7.6734,-4.25694 11.125,-6.9375 3.3808,-2.62551 6.3136,-5.79021 9.2813,-8.875 2.5939,-2.69624 5.0145,-5.55549 7.4375,-8.40625 2.5603,-3.01226 5.0302,-6.10062 7.5,-9.1875 1.8773,-2.34628 3.8701,-4.61078 5.5625,-7.09375 1.47,-2.15677 2.8499,-4.39188 3.9687,-6.75 0.8619,-1.81635 1.4512,-3.75126 2.0938,-5.65625 0.6161,-1.82654 1.1785,-3.67203 1.6875,-5.53125 0.3029,-1.1063 0.5652,-2.2237 0.8125,-3.34375 0.3571,-1.61782 0.317,-3.35179 0.9687,-4.875 0.4099,-0.95794 0.1037,-2.96111 1.7969,-2.55772 1.6932,0.40339 2.1472,5.27153 3.0781,7.43277 0.931,2.16124 1.9184,3.21316 4.0243,3.83123 2.1059,0.61807 2.9026,-1.93322 4.0695,-3.20628 1.7843,-1.94665 2.8268,-4.46348 4.3437,-6.625 1.4661,-2.089 3.2543,-3.95272 4.5938,-6.125 1.2152,-1.97071 2.3249,-4.03486 3.0937,-6.21875 0.5666,-1.60927 0.7592,-3.32705 1.0938,-5 0.4235,-2.11773 0.8683,-4.23461 1.1562,-6.375 0.237,-1.76184 0.3468,-3.53898 0.4688,-5.3125 0.1159,-1.68557 0.049,-3.38489 0.25,-5.0625 0.1385,-1.15828 0.5584,-2.27508 0.6562,-3.4375 0.2525,-3.00046 0.052,-6.02973 -0.1875,-9.03125 -0.138,-1.72987 -0.5317,-3.43099 -0.7187,-5.15625 -0.2612,-2.40982 -2.7096,-6.12502 -0.5625,-7.25 0.7018,-0.36771 1.2732,0.95026 1.8437,1.5 1.1375,1.09605 2.0647,2.39167 3.125,3.5625 1.8758,2.07119 3.3994,6.16076 5.7253,6.12353 2.326,-0.0372 2.2333,-4.124 2.806,-6.37353 0.5829,-2.28944 0.4615,-4.70373 0.5937,-7.0625 0.1243,-2.21615 0.3131,-4.44018 0.1875,-6.65625 -0.1589,-2.80478 -0.7279,-5.57231 -1.1875,-8.34375 -0.3295,-1.98725 -0.6533,-3.97911 -1.125,-5.9375 -0.615,-2.55407 -1.3139,-5.09613 -2.2187,-7.5625 -0.9107,-2.48237 -2.0285,-4.88891 -3.2188,-7.25 -1.1213,-2.22439 -2.3324,-4.40978 -3.6875,-6.5 -1.3577,-2.09433 -2.9236,-4.04682 -4.4375,-6.03125 -1.3853,-1.81599 -2.5147,-3.66748 -4.25,-5.375 -1.7352,-1.70751 -4.1866,-3.84231 -7.1562,-3.375 -2.9696,0.46731 -4.5295,2.76873 -3.9063,5.84375 0.6233,3.07502 4.2671,3.96793 6.4688,5.875 1.5828,1.37095 3.285,2.60177 4.8437,4 0.8226,0.73782 1.6776,1.4555 2.375,2.3125 1.2477,1.533 2.2186,3.27727 3.1875,5 0.7057,1.25466 1.3488,2.54782 1.9063,3.875 0.7782,1.85282 1.4464,3.75563 2,5.6875 0.447,1.55968 0.7903,3.15054 1.0625,4.75 0.3291,1.93354 0.498,3.89157 0.6875,5.84375 0.1978,2.03806 0.4081,4.07826 0.4687,6.125 0.051,1.71742 1.3688,4.32371 -0.088,5.15375 -1.4572,0.83005 -2.8126,-2.66618 -4.3489,-3.84125 -2.8731,-2.19754 -5.9737,-4.08642 -9.0625,-5.96875 -2.541,-1.54847 -4.999,-3.31984 -7.7813,-4.375 -1.6142,-0.6122 -4.0498,-2.49199 -5.0625,-1.09375 -1.4021,1.93599 2.3025,4.19628 3.625,6.1875 1.2598,1.89683 2.7963,3.59746 4.0938,5.46875 1.001,1.44375 2.0445,2.87296 2.8437,4.4375 0.5957,1.16622 1.0228,2.41409 1.4375,3.65625 0.4826,1.44547 0.9302,2.90993 1.2188,4.40625 0.391,2.02747 0.569,4.09481 0.6875,6.15625 0.1649,2.87028 0.066,5.7502 0.031,8.625 -0.059,4.82446 0.3583,9.70491 -0.4063,14.46875 -0.5134,3.19871 -1.5503,6.31582 -2.7812,9.3125 -1.0359,2.52165 -2.2413,5.01341 -3.8438,7.21875 -1.5239,2.09713 -3.1468,6.4005 -5.4,5.59666 -2.2531,-0.80383 -2.4656,-3.24115 -3.475,-5.00291 -1.3068,-2.28073 -1.9718,-4.89531 -3.3125,-7.15625 -1.1434,-1.92818 -2.3953,-3.84093 -4,-5.40625 -1.2847,-1.25314 -2.8392,-3.9685 -4.4062,-3.09375 -3.0525,1.70394 0.4208,6.97892 0.625,10.46875 0.1169,1.99986 0.1556,4.00557 0.3437,6 0.1125,1.19244 0.3872,2.36755 0.4688,3.5625 0.1284,1.88107 0.2188,3.78016 0.031,5.65625 -0.1631,1.6303 -0.6031,3.22288 -1,4.8125 -0.6653,2.66403 -1.3052,5.35188 -2.3125,7.90625 -1.1041,2.79954 -2.4937,5.49439 -4.0625,8.0625 -1.613,2.64034 -3.5416,5.07947 -5.4688,7.5 -3.7715,4.73694 -7.8416,9.23083 -11.9062,13.71875 -2.0974,2.31573 -4.2329,4.59875 -6.4375,6.8125 -2.5788,2.58939 -5.404,4.92887 -7.9375,7.5625 -1.2997,1.35095 -2.7358,2.62254 -3.7188,4.21875 -1.0711,1.7393 -3.8849,4.42243 -2.2811,5.6875 z"
         style="fill:#000000;stroke:#000000;stroke-width:1px;stroke-linecap:butt;stroke-linejoin:miter;stroke-opacity:1;display:inline" />
      <path
         sodipodi:nodetypes="caaaaaaaaaaaaaaaaaaaaaaaaaaaaaaaaaaaaaaaaaaaaaaaaaaaccsaaaaaaaaaaaaaaaaaaaaaaaaaaaaaaaaaaaaaaaaaaaaaaaaaaaaaaaaaaaaaaaaaaaaccaaaaaaaaaaaaaaaaaaazzaaaaaaaaaaaaaaaaaaaaaaaaaaaaaaaaaaaaaaaaaaaaaaaaaaaaaaaaaaaaaaaaaaaaaaaaaaaaaaaaaaaaaaaaaaaaaaaaaaaaaaaaaaaaaaaaaaaaaaaaaaaaaaaaaaaaaaaaaaaaaaaaaaaaaaaaaaaaaaaaaaaaaaaaaaaaaaaaaaaaaaaaaaaaaaaaaaaaaaaaaaaaaaaaaaaaaaaaaaaaaaaaaaaaaaaaaaaaaaaaaaaaaaaaac"
         inkscape:connector-curvature="0"
         id="path3047"
         d="m 506.61594,633.37866 c 4.01737,-1.7084 8.89247,-4.12314 13.31342,-6.23813 2.09461,-1.00207 4.13965,-2.10903 6.25946,-3.05662 2.32475,-1.0392 4.70875,-1.94083 7.07589,-2.87947 2.89904,-1.14955 5.78168,-2.34732 8.72768,-3.37053 3.37699,-1.1729 6.81941,-2.14914 10.24553,-3.16964 3.00413,-0.8948 6.01832,-1.75632 9.04018,-2.58929 2.85686,-0.78749 5.74164,-1.47224 8.59375,-2.27679 2.49668,-0.70429 4.97646,-1.46763 7.45536,-2.23214 4.22965,-1.30446 8.44868,-2.64386 12.65625,-4.01786 3.15592,-1.03058 6.30594,-2.08 9.44196,-3.16964 3.45032,-1.19885 6.88069,-2.45452 10.3125,-3.70536 2.80233,-1.02141 5.61365,-2.01996 8.39286,-3.10267 2.61484,-1.01868 5.21849,-2.06881 7.79018,-3.19197 2.73641,-1.1951 5.34622,-2.67933 8.125,-3.77232 2.21373,-0.87074 4.51434,-1.50295 6.78571,-2.20982 5.21724,-1.62365 10.46998,-3.13122 15.71429,-4.66518 3.5078,-1.02603 7.02644,-2.01472 10.53571,-3.03571 2.38276,-0.69324 4.74816,-1.44745 7.14286,-2.09822 2.63477,-0.71601 5.30121,-1.31022 7.94643,-1.98661 2.93561,-0.75064 5.84365,-1.61139 8.79464,-2.2991 1.76789,-0.412 3.56239,-0.70174 5.33482,-1.09375 2.67314,-0.59122 5.32626,-1.26963 7.99107,-1.89732 2.96007,-0.69724 5.92238,-1.38495 8.88393,-2.0759 4.47137,-1.0432 8.94238,-2.08795 13.41518,-3.125 4.25494,-0.98654 8.50846,-1.97934 12.76786,-2.94643 4.46073,-1.0128 8.93446,-1.96805 13.39286,-2.99107 4.26917,-0.9796 8.52487,-2.01706 12.79017,-3.01339 4.23919,-0.99023 8.49357,-1.91619 12.72322,-2.94643 3.96957,-0.96689 7.88791,-2.14382 11.875,-3.03571 4.34761,-0.97253 8.73928,-1.73937 13.125,-2.52232 4.27601,-0.76336 8.56822,-1.43344 12.85714,-2.12054 4.54283,-0.72778 9.10784,-1.31995 13.6384,-2.12054 3.12965,-0.55304 6.24674,-1.17907 9.35267,-1.85267 3.42166,-0.74207 6.84913,-1.47589 10.22322,-2.41072 2.66449,-0.73823 5.27654,-1.6548 7.90178,-2.52232 4.71849,-1.55924 9.42131,-3.16666 14.10715,-4.82143 6.36988,-2.24948 12.69171,-4.63277 19.04018,-6.94196 6.29291,-2.28898 12.59387,-4.55584 18.88392,-6.85268 5.53234,-2.02016 11.11591,-3.90771 16.58483,-6.09375 6.43657,-2.57283 12.7462,-5.45343 19.08482,-8.25893 7.07973,-3.13352 14.25126,-6.0829 21.16071,-9.57589 5.37508,-2.7173 10.52706,-5.85553 15.75893,-8.83929 4.72914,-2.69705 9.4171,-5.46569 14.12946,-8.19196 3.0787,-1.78114 6.23298,-3.43683 9.24108,-5.33482 3.6881,-2.32705 7.1013,-5.07081 10.7812,-7.41072 2.9409,-1.86995 5.9874,-3.56939 9.0179,-5.29018 2.0965,-1.19043 4.1302,-2.51666 6.3393,-3.48214 2.5656,-1.12128 5.3186,-1.75255 7.9687,-2.65625 2.9087,-0.99189 5.8168,-1.98688 8.7054,-3.03572 3.6033,-1.30831 7.2323,-2.55969 10.7589,-4.0625 1.4482,-0.61712 2.9051,-1.23553 4.2634,-2.03125 1.0456,-0.61254 2.3925,-1.03222 2.9688,-2.09821 0.3408,-1.0578 -0.3792,-1.5829 -0.9055,-2.36336 -0.8999,-0.97804 -1.6598,-1.66671 -2.7217,-2.73293 -0.9172,-0.92101 -1.9889,-2.15105 -2.98,-3.2296 -1.208,-1.31452 -2.4536,-2.59595 -3.6161,-3.9509 -1.3302,-1.55039 -2.517,-3.21964 -3.8393,-4.77678 -1.3778,-1.6226 -2.7969,-3.21153 -4.2634,-4.75447 -2.008,-2.11269 -4.1115,-4.133 -6.2053,-6.16071 -2.2572,-2.18596 -4.6105,-4.2718 -6.8527,-6.47321 -2.5942,-2.54714 -5.0803,-5.20228 -7.6339,-7.79018 -2.0305,-2.05775 -4.0322,-4.14507 -6.1128,-6.15212 -2.7332,-2.63652 -5.4104,-5.34869 -8.3653,-7.73398 -1.2755,-1.02957 -2.6836,-1.88309 -4.0249,-2.82527 -3.631,-2.55055 -7.1849,-5.2144 -10.89067,-7.65506 -1.80109,-1.18621 -3.64865,-2.30169 -5.50849,-3.39348 -1.81389,-1.06482 -3.6958,-2.01095 -5.50849,-3.07781 -2.17051,-1.27746 -4.34608,-2.55426 -6.42394,-3.97748 -1.35428,-0.92761 -2.69633,-1.88459 -3.93012,-2.96732 -0.99269,-0.87115 -1.79736,-1.94049 -2.77792,-2.82527 -1.57022,-1.41685 -3.24678,-2.71613 -4.95606,-3.96169 -2.44824,-1.78405 -4.95995,-3.49204 -7.57615,-5.0192 -2.80021,-1.63457 -5.77876,-2.94245 -8.66521,-4.41942 -2.95355,-1.51131 -5.92118,-2.99571 -8.85462,-4.54568 -2.30845,-1.21974 -4.66613,-2.35937 -6.88166,-3.74072 -1.6587,-1.03418 -3.22495,-2.21236 -4.78244,-3.39348 -1.47244,-1.11662 -2.81109,-2.40589 -4.30894,-3.48819 -1.17582,-0.84961 -2.4061,-1.62539 -3.6618,-2.35176 -2.27724,-1.31729 -4.65459,-2.45428 -7.00793,-3.63023 -2.55965,-1.27904 -5.1222,-2.55603 -7.73398,-3.72493 -2.76016,-1.23531 -5.58783,-2.31392 -8.38111,-3.4724 -2.91515,-1.20902 -5.86207,-2.34434 -8.74414,-3.63024 -1.32597,-0.59161 -2.63859,-1.21482 -3.93012,-1.87825 -1.53321,-0.78758 -2.99798,-1.70373 -4.5299,-2.49381 -1.29247,-0.66659 -2.61659,-1.27 -3.93013,-1.89404 -1.73689,-0.82517 -3.48175,-1.63347 -5.22438,-2.44646 -1.49319,-0.69662 -2.9816,-1.4037 -4.48255,-2.08344 -1.37763,-0.62389 -2.78379,-1.18472 -4.1511,-1.8309 -1.08705,-0.51373 -2.14399,-1.08897 -3.21986,-1.62572 -1.85279,-0.92435 -3.71208,-1.83564 -5.57162,-2.74635 -2.74293,-1.34335 -5.46998,-2.72045 -8.23906,-4.00904 -1.78521,-0.83075 -3.62472,-1.54319 -5.398,-2.39912 -2.5389,-1.22549 -4.97141,-2.66212 -7.49723,-3.91434 -1.99479,-0.98896 -4.02578,-1.90326 -6.04513,-2.84106 -2.1053,-0.9777 -4.22218,-1.9303 -6.32924,-2.90418 -2.21781,-1.02508 -4.43387,-2.05401 -6.64491,-3.0936 -2.93048,-1.37785 -5.83524,-2.81044 -8.7757,-4.16688 -2.01014,-0.92727 -4.02153,-1.8537 -6.06091,-2.71478 -2.78474,-1.1758 -5.59424,-2.29519 -8.42846,-3.34613 -2.5257,-0.93654 -5.08708,-1.77416 -7.63928,-2.63587 -2.84527,-0.96065 -5.71302,-1.85414 -8.55473,-2.82527 -2.55557,-0.87334 -5.07935,-1.83851 -7.63928,-2.699 -2.46037,-0.82703 -4.98947,-1.45204 -7.41831,-2.36754 -1.36465,-0.51439 -2.64503,-1.23589 -4.00904,-1.75199 -2.26422,-0.8567 -4.58676,-1.55605 -6.91323,-2.22549 -1.86763,-0.53741 -3.76157,-0.97953 -5.65054,-1.43631 -1.28021,-0.30957 -2.57519,-0.55743 -3.85121,-0.88388 -2.11861,-0.54202 -4.20061,-1.21946 -6.31345,-1.78355 -2.47926,-0.66193 -4.97794,-1.24886 -7.46566,-1.87826 -3.8683,-0.97869 -7.71735,-2.03553 -11.60097,-2.95154 -3.30144,-0.77869 -6.63197,-1.42863 -9.94369,-2.16235 -2.2169,-0.49117 -4.42262,-1.03326 -6.64491,-1.49945 -2.97399,-0.62388 -5.95706,-1.20685 -8.94932,-1.7362 -2.32948,-0.4121 -4.67953,-0.70248 -7.00793,-1.12064 -3.54837,-0.63725 -7.04057,-1.58547 -10.60661,-2.115 -2.55587,-0.37954 -5.14226,-0.5132 -7.71448,-0.75855 -2.2156,-0.21133 -4.43307,-0.40274 -6.64862,-0.61463 -2.71562,-0.25973 -5.43638,-0.47494 -8.14436,-0.80497 -2.07394,-0.25276 -4.1202,-0.73469 -6.20296,-0.89966 -8.31653,-0.65875 -16.68292,-0.28993 -25.02527,-0.35173 -3.51297,-0.026 -7.02706,-0.0888 -10.53921,-0.008 -4.79381,0.11018 -9.59647,0.21289 -14.36953,0.67188 -2.02224,0.19447 -4.03255,0.51391 -6.03073,0.88071 -2.57771,0.60136 -4.97766,1.01211 -7.31185,1.61666 -1.51933,0.61642 -2.86357,1.6147 -4.18266,2.58852 -2.1239,1.56798 -4.0718,3.36994 -5.96622,5.2086 -0.98846,0.95936 -1.87286,2.02042 -2.80948,3.03046 -1.68337,1.81532 -3.33928,3.65652 -5.05077,5.44535 -1.94694,2.03491 -3.87977,4.0877 -5.93464,6.01356 -2.09273,1.96135 -4.29023,3.80974 -6.50286,5.63476 -1.9657,1.62135 -4.01821,3.13459 -6.01357,4.71931 -1.9927,1.5826 -3.96337,3.19276 -5.95043,4.78244 -2.29502,1.83606 -4.59619,3.66444 -6.89744,5.4927 -1.41923,1.12753 -2.82406,2.27359 -4.26158,3.3777 -1.54467,1.18641 -3.05735,2.42263 -4.68774,3.48819 -0.97834,0.63941 -2.04486,1.13351 -3.04624,1.7362 -1.16925,0.70373 -2.29301,1.4809 -3.45662,2.19392 -1.42793,0.87498 -2.89665,1.68219 -4.32472,2.55695 -1.14755,0.70293 -2.27661,1.43566 -3.40926,2.16236 -1.29334,0.8298 -2.57452,1.67844 -3.86699,2.5096 -1.12815,0.72549 -2.248,1.46456 -3.39348,2.16236 -1.42954,0.87084 -2.87426,1.71787 -4.3405,2.52538 -1.39754,0.76967 -2.78724,1.56309 -4.2458,2.20971 -1.10787,0.49115 -2.35845,0.88498 -3.40926,1.26269 -1.05081,0.37771 -2.21508,0.96968 -2.47215,0.34453 -0.25707,-0.62515 1.66498,-2.03613 2.5195,-3.03564 0.81135,-0.94902 1.582,-1.93897 2.47538,-2.81121 1.25083,-1.22123 2.62259,-2.31736 4.01786,-3.37054 1.84312,-1.39123 3.80209,-2.62287 5.7366,-3.88393 1.61873,-1.05521 3.30516,-2.00522 4.91072,-3.08036 1.93686,-1.29699 3.83062,-2.65929 5.69196,-4.0625 2.08031,-1.56828 4.12057,-3.19119 6.11607,-4.86607 1.52209,-1.27753 2.97405,-2.63636 4.46429,-3.95089 2.21408,-1.95302 4.40662,-3.93101 6.65179,-5.84821 1.50688,-1.28677 3.73326,-2.00121 4.57589,-3.79465 0.0981,-0.20876 0.11211,-0.49038 0,-0.69196 -0.52785,-0.94912 -1.75184,-1.33512 -2.76786,-1.71875 -2.48347,-0.93771 -5.19991,-1.25961 -7.85386,-1.31882 -3.00623,-0.0671 -5.99386,0.56786 -8.95417,1.0956 -0.63963,0.11403 -1.27716,0.25275 -1.89733,0.44643 -1.06828,0.33364 -2.12927,0.71675 -3.125,1.22768 -1.42673,0.73209 -2.70721,1.72014 -4.04017,2.61161 -1.70703,1.14163 -3.39566,2.31115 -5.06697,3.50446 -1.42913,1.02039 -2.83373,2.07477 -4.24107,3.125 -1.62197,1.21041 -3.24839,2.41545 -4.84375,3.66072 -1.51415,1.18188 -2.99191,2.40967 -4.48661,3.61607 -1.98028,1.59832 -3.98356,3.16869 -5.9375,4.79911 -1.30436,1.08839 -2.59688,2.19168 -3.8616,3.32589 -1.59901,1.43401 -3.12329,2.94952 -4.70983,4.39732 -1.90738,1.74059 -3.91332,3.37339 -5.78125,5.15625 -2.17709,2.07794 -4.1899,4.32177 -6.31696,6.45089 -1.56182,1.56333 -3.1912,3.05895 -4.73214,4.64286 -2.18073,2.24153 -4.2973,4.54562 -6.38393,6.875 -1.4959,1.66993 -2.91241,3.40959 -4.39732,5.08929 -1.94688,2.20226 -3.93409,4.36861 -5.91518,6.54016 -1.28117,1.40434 -2.57081,2.80094 -3.86161,4.19643 -2.06272,2.23002 -4.10801,4.47663 -6.20536,6.67411 -1.06438,1.1152 -2.17241,2.18819 -3.2366,3.30357 -1.87893,1.96933 -3.72294,3.9719 -5.55804,5.98214 -1.30727,1.43203 -2.57274,2.90192 -3.88393,4.33036 -0.22781,0.24818 -0.47002,0.48317 -0.69196,0.73661 -0.48078,0.54902 -0.89638,1.15341 -1.38393,1.69643 -0.54482,0.60681 -1.15937,1.14765 -1.71875,1.74107 -0.27465,0.29136 -0.58937,0.55456 -0.80357,0.89286 -0.23728,0.37476 -0.31721,0.82985 -0.51339,1.22767 -0.39062,0.79212 -0.85516,1.54627 -1.31697,2.29911 -0.41868,0.68253 -0.91681,1.31538 -1.31696,2.00893 -0.62026,1.07506 -1.05964,2.24751 -1.67411,3.32589 -0.60799,1.067 -1.31733,2.07302 -1.98661,3.10268 -0.47123,0.72497 -0.96794,1.43343 -1.42857,2.16518 -0.64715,1.02805 -1.25385,2.08103 -1.875,3.125 -0.44173,0.74242 -0.87396,1.49047 -1.31696,2.23214 -0.38345,0.64196 -0.75577,1.29103 -1.16072,1.91965 -0.52752,0.8189 -1.16476,1.56709 -1.65178,2.41071 -0.48252,0.83583 -0.82584,1.7447 -1.25,2.61161 -0.63614,1.30018 -1.25567,2.60952 -1.94197,3.88393 -0.33825,0.62811 -0.75381,1.21388 -1.07143,1.85267 -0.34146,0.68674 -0.58001,1.4203 -0.89285,2.12054 -0.24844,0.5561 -0.50929,1.1068 -0.78125,1.65179 -0.29276,0.58666 -0.62087,1.15519 -0.91518,1.74107 -0.27039,0.53826 -0.49447,1.09976 -0.78125,1.62946 -0.36877,0.68114 -0.84332,1.30187 -1.20536,1.98661 -0.38597,0.73 -0.63871,1.52558 -1.02679,2.25446 -0.4474,0.84029 -1.04144,1.59635 -1.49553,2.43304 -0.70328,1.29584 -1.2486,2.67154 -1.89732,3.99553 -0.69691,1.42234 -1.44298,2.8202 -2.14286,4.24108 -1.00289,2.03604 -1.99107,4.07962 -2.94643,6.13839 -0.79627,1.71594 -1.53612,3.45758 -2.32143,5.17857 -1.10001,2.41066 -2.27877,4.78544 -3.34821,7.20982 -2.07019,4.69303 -3.98045,9.4551 -5.9375,14.19643 -1.17401,2.84425 -2.28923,5.71273 -3.48214,8.54911 -0.66662,1.58503 -1.40646,3.13905 -2.05358,4.73214 -1.22475,3.0151 -2.22453,6.11867 -3.45982,9.12947 -0.16059,0.3914 -0.39437,0.75474 -0.51339,1.16071 -0.12286,0.41907 -0.0955,0.87085 -0.20089,1.29464 -0.14258,0.57315 -0.43405,1.1019 -0.58036,1.67411 -0.16636,0.65061 -0.19447,1.3299 -0.33482,1.98661 -0.12371,0.57886 -0.30168,1.14479 -0.44643,1.71875 -0.17608,0.69817 -0.343,1.39863 -0.51339,2.09821 -0.11957,0.49095 -0.25448,0.97846 -0.35715,1.47322 -0.15956,0.76893 -0.25458,1.55003 -0.40178,2.32142 -0.16384,0.8586 -0.37136,1.70847 -0.53572,2.56697 -0.1548,0.80855 -0.30493,1.61846 -0.4241,2.43303 -0.14643,1.00084 -0.23004,2.00992 -0.35715,3.0134 -0.16793,1.32579 -0.37017,2.64712 -0.53571,3.97321 -0.13731,1.09989 -0.26852,2.20071 -0.37946,3.30357 -0.16445,1.63475 -0.27808,3.27422 -0.42411,4.91072 -0.15142,1.69686 -0.32701,3.39158 -0.46875,5.08928 -0.14092,1.68785 -0.24869,3.37831 -0.37947,5.06697 -0.11527,1.48839 -0.21324,2.97838 -0.35714,4.46428 -0.15231,1.57271 -0.31953,3.14462 -0.53571,4.70982 -0.17121,1.23958 -0.46567,2.46153 -0.60268,3.70536 -0.084,0.76305 -0.043,1.53684 -0.13393,2.29911 -0.13345,1.11875 -0.44519,2.21027 -0.60268,3.32589 -0.13381,0.94788 -0.13545,1.91245 -0.29018,2.85714 -0.10853,0.66263 -0.30617,1.30764 -0.44643,1.96429 -0.15057,0.70494 -0.26596,1.41726 -0.4241,2.12054 -0.12788,0.56868 -0.278,1.13215 -0.42411,1.69642 -0.61981,2.39368 -1.20688,4.79751 -1.91964,7.16518 -0.52021,1.72806 -1.1954,3.40682 -1.71875,5.13393 -0.66634,2.19897 -1.29725,4.41157 -1.80804,6.65179 -0.38184,1.67467 -0.60191,3.38241 -0.9375,5.06696 -0.39688,1.99222 -0.89441,3.96391 -1.27232,5.95982 -0.3732,1.97104 -0.64435,3.96008 -0.98214,5.9375 -0.33204,1.94374 -0.65249,3.88985 -1.02679,5.8259 -0.35649,1.84394 -0.72251,3.68715 -1.16071,5.51339 -0.38659,1.61116 -0.89363,3.19148 -1.29465,4.79911 -0.49146,1.97017 -0.93141,3.95305 -1.3616,5.9375 -0.44888,2.07067 -0.86525,4.14837 -1.27232,6.22767 -0.38831,1.98349 -0.75279,3.9716 -1.11608,5.95983 -0.37357,2.04451 -0.71445,4.09494 -1.09375,6.13839 -0.27936,1.50503 -0.55184,3.01174 -0.87053,4.50893 -0.3006,1.41222 -0.69012,2.80473 -0.98214,4.21875 -0.42358,2.05104 -0.7854,4.11498 -1.11608,6.18303 -0.24672,1.54299 -0.37374,3.10441 -0.64732,4.64286 -0.27059,1.52162 -0.69657,3.01237 -0.98214,4.53125 -0.26174,1.39212 -0.36424,2.81324 -0.66964,4.19643 -0.45855,2.07682 -1.19131,4.08383 -1.74107,6.13839 -0.59894,2.23834 -1.17225,4.48406 -1.69643,6.74107 -0.47671,2.05262 -2.5535,4.47673 -1.31697,6.18304 0.2459,0.33932 0.84708,0.24909 1.25,0.13393 0.4461,-0.12751 0.80398,-0.4972 1.09657,-0.85728 0.96153,-1.18329 1.39598,-2.71273 2.02031,-4.10375 1.24658,-2.7774 2.24146,-5.66191 3.44083,-8.46002 1.25055,-2.91751 2.45232,-5.86351 3.91434,-8.681 1.36232,-2.62536 2.99313,-5.10255 4.51412,-7.63928 1.52006,-2.53518 3.13801,-5.01209 4.60882,-7.57615 1.56487,-2.72805 3.04619,-5.50434 4.48255,-8.30219 1.27238,-2.47843 2.49861,-4.9815 3.66181,-7.51301 0.95242,-2.07279 1.82122,-4.18305 2.71478,-6.28188 0.83135,-1.95269 1.54358,-3.95835 2.46225,-5.87151 1.00075,-2.0841 2.14952,-4.09558 3.31456,-6.09249 0.98137,-1.6821 1.91657,-3.40456 3.09359,-4.95606 0.99035,-1.30545 2.22999,-2.40195 3.31457,-3.63023 1.19057,-1.34831 2.37979,-2.6996 3.50396,-4.10375 1.9729,-2.46426 3.86797,-4.99276 5.68211,-7.57614 1.66379,-2.36928 3.15204,-4.8574 4.76666,-7.26047 1.13944,-1.69584 2.23401,-3.42578 3.4724,-5.05077 1.2176,-1.59771 2.55126,-3.10472 3.88277,-4.60882 1.49534,-1.68916 2.98126,-3.3939 4.60882,-4.95606 1.59906,-1.5348 3.31426,-2.94734 5.05077,-4.32471 1.57468,-1.24901 3.24347,-2.37458 4.86135,-3.56711 2.47671,-1.82556 4.9042,-3.71899 7.41831,-5.4927 2.74476,-1.93644 5.5474,-3.79064 8.36533,-5.61897 2.76026,-1.79092 5.54366,-3.54764 8.36532,-5.24017 3.66214,-2.19668 7.37959,-4.30097 11.11168,-6.37659 3.23807,-1.80087 6.48071,-3.59715 9.78586,-5.27173 3.8039,-1.92727 7.70171,-3.66328 11.55361,-5.49271 3.50333,-1.66388 6.97767,-3.39041 10.5119,-4.98762 3.78851,-1.71212 7.61963,-3.3295 11.45892,-4.9245 3.2877,-1.36584 6.68718,-2.46942 9.91212,-3.97747 4.4693,-2.08994 8.70351,-4.64981 13.03729,-7.00794 4.15743,-2.26217 8.31904,-4.51772 12.4375,-6.85009 0.70982,-0.40199 1.38509,-0.86691 2.11501,-1.23113 1.55282,-0.77483 3.22228,-1.29364 4.79822,-2.0203 2.23498,-1.03053 4.40858,-2.18962 6.59756,-3.31457 2.8969,-1.48876 5.83029,-2.91446 8.64943,-4.54568 2.32959,-1.34795 4.59066,-2.81457 6.81853,-4.32472 1.70916,-1.15854 3.32006,-2.45705 5.0192,-3.63023 3.0068,-2.07606 6.12084,-3.99273 9.1545,-6.02935 3.01687,-2.02535 5.98951,-4.11588 8.99667,-6.15562 2.43455,-1.65135 4.86397,-3.31075 7.32361,-4.92449 1.82796,-1.1993 3.74018,-2.27191 5.52427,-3.53554 1.04607,-0.74091 2.041,-1.55256 3.03046,-2.36754 1.13998,-0.93896 2.27418,-1.88825 3.34613,-2.90419 2.23069,-2.11413 4.38929,-4.31187 6.40816,-6.62913 1.87085,-2.14736 3.50753,-4.48802 5.27173,-6.72382 0.84898,-1.07593 1.64061,-2.20069 2.55695,-3.21986 2.45757,-2.73336 5.28729,-5.10896 7.86025,-7.73398 2.03724,-2.07846 4.17328,-4.07754 5.99778,-6.34503 1.30085,-1.6167 2.36538,-3.41064 3.50396,-5.14546 0.59426,-0.90545 1.21179,-1.79873 1.7362,-2.74635 0.96622,-1.746 1.53853,-3.70106 2.58852,-5.39801 0.56814,-0.91821 1.3845,-1.66207 1.98874,-2.55694 1.62803,-2.41107 2.91946,-5.03309 4.38785,-7.54458 1.5093,-2.58147 2.98876,-5.18095 4.54568,-7.73398 1.32233,-2.16835 2.68366,-4.31315 4.07218,-6.43972 0.31911,-0.48873 0.40056,-1.5332 0.97859,-1.4521 0.43827,0.0615 0.25015,0.85014 0.41037,1.26269 0.18411,0.47408 0.48514,0.90186 0.63135,1.38896 0.23276,0.77543 0.16692,1.61772 0.3788,2.39911 0.068,0.25083 0.23489,0.47087 0.28411,0.72605 0.24711,1.28121 0.21391,2.62232 0.0316,3.91434 -0.13955,0.989 -0.469,1.95031 -0.85232,2.87262 -0.506,1.21749 -1.30741,2.29164 -1.89404,3.4724 -1.23215,2.48008 -2.31731,5.03122 -3.40926,7.57615 -0.95462,2.22487 -1.71964,4.53129 -2.74635,6.72383 -1.14183,2.4384 -2.44396,4.80119 -3.78807,7.1342 -1.23164,2.1378 -2.5318,4.23843 -3.91435,6.28188 -1.91528,2.83085 -3.96978,5.56708 -6.06091,8.27063 -1.89429,2.44907 -3.89259,4.81614 -5.87151,7.19734 -1.66542,2.00398 -3.43163,3.92466 -5.05077,5.96621 -1.57972,1.99186 -5.72825,3.87359 -4.54568,6.12405 0.55345,1.05322 2.38237,-0.0168 3.5671,-0.12627 0.8476,-0.0783 1.69579,-0.18816 2.52538,-0.37881 0.51572,-0.11852 1.00487,-0.3337 1.51523,-0.47351 0.75078,-0.20567 1.52598,-0.31716 2.27284,-0.53664 3.36223,-0.98808 6.66944,-2.1751 9.91212,-3.50397 4.08569,-1.67433 8.08832,-3.56234 11.99557,-5.61897 3.7145,-1.95517 7.30709,-4.13982 10.85914,-6.37659 2.96349,-1.86615 5.67012,-4.13704 8.71256,-5.87151 5.81858,-3.31712 12.31022,-11.89543 18.15118,-8.61786 0.17531,0.0984 0.10406,0.40296 0.0631,0.59977 -0.20452,0.98261 -0.92111,1.7889 -1.48367,2.62009 -1.05741,1.56234 -2.2197,3.06752 -3.53553,4.41941 -2.67161,2.74483 -5.80801,4.99666 -8.7757,7.41831 -3.32066,2.70967 -6.70705,5.33834 -10.10153,7.95495 -2.93352,2.26128 -5.81253,4.60219 -8.8704,6.69226 -3.49092,2.38606 -7.13572,4.54358 -10.796,6.6607 -3.02409,1.74915 -6.02827,3.56197 -9.21765,4.98763 -2.64358,1.18169 -5.35267,2.29216 -8.17592,2.93575 -1.58843,0.3621 -3.23626,0.38989 -4.86136,0.50508 -2.76247,0.19581 -5.54162,0.0948 -8.30219,0.31567 -1.46882,0.11754 -2.92587,0.35264 -4.38785,0.53664 -0.89481,0.11262 -1.79705,0.17972 -2.68322,0.34724 -0.68208,0.12894 -1.34773,0.33329 -2.0203,0.50508 -0.48467,0.1238 -0.98088,0.21094 -1.4521,0.37881 -1.54799,0.55147 -3.06512,1.22045 -4.48255,2.05187 -1.38331,0.81141 -2.57921,1.90688 -3.88277,2.84105 -2.38234,1.70724 -4.75906,3.42443 -7.19734,5.05077 -2.79768,1.86606 -5.64219,3.66329 -8.52316,5.398 -4.48583,2.70104 -9.05106,5.26988 -13.63706,7.79711 -3.22389,1.7766 -6.50548,3.44644 -9.75429,5.17704 -4.86529,2.59167 -9.74843,5.15053 -14.58407,7.79711 -3.60768,1.97451 -8.8499,2.38949 -10.76444,6.02935 -0.80182,1.52439 0.26724,3.43546 0.47351,5.14546 0.11085,0.91896 0.2421,1.83617 0.41037,2.74636 0.15084,0.81591 0.38612,1.61471 0.53665,2.43068 0.14282,0.77415 0.24307,1.55568 0.34724,2.33597 0.10656,0.79821 0.14868,1.60529 0.2841,2.39912 0.1378,0.8078 0.37168,1.59642 0.53665,2.39911 0.17242,0.83893 0.31639,1.68345 0.4735,2.52538 0.13743,0.73645 0.2481,1.47833 0.41038,2.20971 0.13655,0.61541 0.3678,1.20945 0.47351,1.8309 0.18948,1.11387 0.15791,2.25489 0.2841,3.3777 0.16853,1.49949 0.49009,2.98025 0.63135,4.48255 0.12426,1.3215 0.0736,2.65521 0.1894,3.97747 0.12309,1.40549 0.36232,2.79839 0.53665,4.19845 0.17288,1.3884 0.37178,2.77412 0.50507,4.16688 0.12863,1.34405 0.0246,2.71558 0.28411,4.04061 0.12342,0.63024 0.44554,1.20749 0.59978,1.8309 0.7383,2.98403 1.15513,6.04242 1.54679,9.09138 0.23147,1.80192 0.34419,3.61745 0.47351,5.42957 0.16204,2.27057 -0.0625,4.58537 0.37881,6.81852 0.0994,0.50275 0.41829,0.94702 0.50507,1.4521 0.63791,3.71268 0.38706,7.54795 0.0631,11.30108 -0.11768,1.36337 -0.5201,2.68776 -0.72605,4.04061 -0.25535,1.67736 -0.44537,3.36429 -0.63134,5.05076 -0.15757,1.42891 -0.23957,2.86576 -0.41038,4.29315 -0.17558,1.46721 -0.3763,2.93235 -0.63134,4.38785 -0.26891,1.53469 -0.59162,3.06027 -0.94702,4.57726 -0.6724,2.87011 -1.46531,5.71088 -2.24128,8.55473 -0.63919,2.34258 -1.1756,4.71991 -1.98874,7.00793 -0.90916,2.55822 -2.13818,4.99125 -3.21986,7.48144 -1.85511,4.27073 -5.60846,12.79339 -5.60846,12.79339"
         style="fill:#e82a2a;fill-opacity:1;stroke:#000000;stroke-width:1px;stroke-linecap:butt;stroke-linejoin:miter;stroke-opacity:1;display:inline" />
      <path
         sodipodi:nodetypes="cccccccccccccccccccccccccccc"
         inkscape:connector-curvature="0"
         id="path3883"
         d="m 651.99685,238.25356 38.3125,10.25 34.1875,11.6875 33.5625,13.125 29.8125,14.3125 25.9375,13.75 34.25,21.06249 34.125,24.8125 22.125,17.6875 23.6875,22 21.9375,21.75 25.8125,28.9375 16.25,20.875 12.12495,16.9375 31.0625,-17.1875 44.8125,-21.125 -24.375,-21 -25.75,-28.1875 -45.68745,-34.125 -49.3125,-28.5625 -52.4375,-29.06249 -52.875,-24.375 -60.375,-23.5625 -62,-16.375 -58.375,-5.875 -49.875,-0.125 9.625,3.49414 z"
         style="fill:#b72b2b;fill-opacity:1;stroke:none;display:inline" />
      <path
         inkscape:connector-curvature="0"
         id="path3094"
         d="m 516.53903,508.79485 c 0.35356,0.0442 10.03208,-0.97227 10.03208,-0.97227 l 10.69499,-2.20971 10.45192,-3.38086 8.41899,-3.95538 10.36354,-5.17071 8.24221,-5.21492 8.17592,-6.23137 6.8722,-5.67896 9.94368,-9.0819 8.33061,-8.86093 5.45798,-6.91639 4.5299,-7.46881 11.2563,-21.58659 2.09375,-5.8125 1.90625,-6.40625 1.6875,-6.53125 1.875,-9.84375 0.9375,-9.125 -0.3125,-10.9375 -41.62928,55.70295 -85.91347,58.33631 0.70711,24.57196 z"
         style="fill:#b43232;fill-opacity:1;stroke:none;display:inline" />
      <path
         id="path3089"
         d="m 600.5906,219.28407 c -3.92656,0.002 -7.86148,0.0808 -11.78125,0.28125 -1.39386,0.0713 -2.76905,0.25259 -4.15625,0.40625 -2.05479,0.22759 -4.14962,0.28388 -6.15625,0.78125 -1.43554,0.35582 -2.83695,0.89405 -4.15625,1.5625 -1.76245,0.89298 -3.44666,1.95904 -4.96875,3.21875 -4.01345,3.32163 -7.06696,7.69148 -10.8125,11.31251 -3.58984,3.4705 -7.64045,6.42326 -11.15625,9.96875 -1.85331,1.86896 -3.02201,4.48765 -5.21875,5.9375 -1.52467,1.00629 -3.39201,1.70305 -5.21875,1.71875 -4.10702,0.0354 -7.22176,-2.65269 -11.75,-3.65625 -3.02549,-0.63007 -6.37864,-0.50069 -9.8125,-0.0937 -2.55525,0.32911 -5.53431,0.78866 -8.28125,1.34375 -1.64601,0.33261 -3.29511,0.71402 -4.90625,1.1875 -2.01774,0.59297 -4.02367,1.2628 -5.96875,2.0625 -1.77157,0.72837 -3.4721,1.58751 -5.15625,2.5 -3.39548,1.8397 -6.77447,3.78438 -9.9375,6 -2.95441,2.06949 -5.6575,4.44551 -8.40625,6.78125 -4.36099,3.70574 -8.52319,7.61392 -12.78125,11.4375 -2.83288,2.54381 -5.66617,5.1135 -8.5,7.65625 -2.70112,2.42367 -5.62136,4.62284 -8.125,7.25 -3.17899,3.33583 -5.89929,7.10523 -8.71875,10.75 -3.46262,4.4762 -6.72803,9.08378 -10.0625,13.65624 -2.1716,2.97785 -4.16648,6.09074 -6.46875,8.96875 -3.5716,4.46476 -7.84473,8.34625 -11.375,12.84375 -3.64599,4.64492 -6.81662,9.65038 -10.09375,14.5625 -1.69929,2.54708 -3.35547,5.09723 -4.9375,7.71875 -2.18153,3.61492 -4.14866,7.36914 -6.25,11.03125 -1.16858,2.03655 -2.40063,4.05336 -3.5625,6.09375 -2.13521,3.7497 -4.1568,7.5433 -6.3125,11.28125 -1.48033,2.56687 -3.01677,5.10938 -4.53125,7.65625 -1.95813,3.29294 -4.14344,6.45748 -5.875,9.875 -0.99728,1.96829 -1.82973,4.02372 -2.59375,6.09375 -1.12696,3.05338 -1.96028,6.20795 -2.9375,9.3125 -0.69545,2.2094 -1.38521,4.40997 -2.0625,6.625 -0.7126,2.33051 -1.37489,4.67141 -2.09375,7 -0.66159,2.14308 -1.2862,4.302 -2.0625,6.40625 -1.02676,2.78316 -2.23782,5.50563 -3.4375,8.21875 -0.81672,1.84705 -1.85712,3.60763 -2.5625,5.5 -1.29943,3.48607 -2.11754,7.12038 -3.0625,10.71875 -0.62944,2.39689 -1.25282,4.81604 -1.71875,7.25 -0.41771,2.18211 -0.64409,4.39148 -0.9375,6.59375 -0.34163,2.56415 -0.69277,5.11546 -0.96875,7.6875 -0.25816,2.40594 -0.44575,4.83943 -0.65625,7.25 -0.19932,2.28252 -0.37429,4.56029 -0.5625,6.84375 -0.2012,2.4411 -0.34824,4.87546 -0.59375,7.3125 -0.24856,2.46732 -0.56326,4.91902 -0.90625,7.375 -0.24908,1.78353 -0.51443,3.57328 -0.84375,5.34375 -0.47213,2.53823 -0.95094,5.09328 -1.59375,7.59375 -0.41606,1.61842 -0.99855,3.17772 -1.46875,4.78125 -1.4908,5.08411 -4.34375,15.25 -4.34375,15.25 0,0 -1.0366,5.53862 -1.59375,8.3125 -0.39582,1.97067 -0.82006,3.93616 -1.21875,5.90625 -0.67211,3.32115 -1.33806,6.63948 -1.96875,9.96875 -0.62117,3.27902 -1.20562,6.55643 -1.78125,9.84375 -0.35148,2.00725 -0.70571,4.01963 -1.03125,6.03125 -0.45766,2.82803 -0.84553,5.67349 -1.3125,8.5 -0.37954,2.29734 -0.835,4.57836 -1.21875,6.875 -0.64804,3.87832 -1.23438,7.77166 -1.84375,11.65625 -0.45042,2.8713 -0.83984,5.73135 -1.34375,8.59375 -0.4687,2.6624 -0.98388,5.32806 -1.5625,7.96875 -0.34742,1.58557 -0.78427,3.13173 -1.125,4.71875 -0.39118,1.82202 -0.60882,3.69253 -1.0625,5.5 -0.99114,3.94871 -3.96415,7.59675 -3.65625,11.65625 0.35278,4.6514 1.73765,11.0673 6.15625,12.5625 5.4106,1.8308 11.30025,-3.5906 15.34375,-7.625 3.27459,-3.2672 4.14614,-8.27079 6.21875,-12.40625 2.42051,-4.82962 4.73316,-9.71988 7.25,-14.5 2.2403,-4.2549 4.65322,-8.42789 7,-12.625 2.55484,-4.56923 5.13219,-9.13615 7.71875,-13.6875 2.70584,-4.76123 5.3667,-9.53733 8.15625,-14.25 2.11603,-3.57481 4.2149,-7.15582 6.5,-10.625 0.38325,-0.58184 0.83874,-1.13479 1.21875,-1.71875 1.08295,-1.66417 1.98818,-3.42399 3.0625,-5.09375 1.02739,-1.59682 2.15798,-3.11266 3.21875,-4.6875 1.36271,-2.02311 2.6912,-4.08681 4.03125,-6.125 1.42705,-2.17051 2.72467,-4.42043 4.28125,-6.5 1.73581,-2.31902 3.67188,-4.48579 5.625,-6.625 1.75092,-1.91775 3.55036,-3.77863 5.4375,-5.5625 2.08611,-1.97195 4.20021,-3.92848 6.46875,-5.6875 2.18419,-1.69361 4.59929,-3.11901 6.875,-4.6875 3.30472,-2.27772 6.53231,-4.65338 9.875,-6.875 2.09569,-1.39284 4.19363,-2.77684 6.375,-4.03125 4.5327,-2.60656 9.22598,-4.88752 13.90625,-7.21875 3.67363,-1.82983 7.38973,-3.61203 11.125,-5.3125 5.65748,-2.57555 11.39455,-4.92439 17.09375,-7.40625 5.12799,-2.2331 10.26693,-4.4717 15.375,-6.75 5.36284,-2.39193 16.1875,-7.53125 16.1875,-7.53125 l 2.6875,23.375 1.59375,13.53125 1.0625,8.25 0.25,6 0.46875,7.09375 -0.21875,21.40625 -1.3125,9.28125 -3.21875,15.375 -4.09375,12.3125 -7.65625,14.53125 -8.1875,14.9375 -0.125,0.28125 c 0,0 -7.60095,4.74815 -7.65625,4.78125 l 0,0.0312 c -0.16357,0.10186 -2.12662,1.29464 -3.1875,1.9375 -1.82192,1.10403 -3.70368,2.10479 -5.5,3.25 -1.87403,1.19475 -3.71132,2.43089 -5.5,3.75 -1.67239,1.23335 -3.26069,2.59784 -4.875,3.90625 -2.48526,2.0144 -5.01098,3.97315 -7.40625,6.09375 -2.3573,2.087 -4.54208,4.3518 -6.84375,6.5 -1.4564,1.3592 -2.90799,2.7495 -4.40625,4.0625 -1.51682,1.3292 -3.17732,2.5038 -4.65625,3.875 -1.24409,1.1536 -2.46128,2.3083 -3.53125,3.625 -1.00403,1.2355 -1.84802,2.61605 -2.6875,3.96875 -0.79524,1.2814 -1.50635,2.6083 -2.21875,3.9375 -1.07923,2.0137 -2.0718,4.0817 -3.09375,6.125 -1.14088,2.2812 -2.25594,4.56735 -3.40625,6.84375 -0.82139,1.6255 -1.72785,3.2255 -2.5,4.875 -0.99847,2.1329 -1.81182,4.3398 -2.75,6.5 -0.51137,1.1774 -1.09293,2.3053 -1.5625,3.5 -0.64515,1.6414 -1.18085,3.35165 -1.71875,5.03125 -0.55238,1.7249 -1.14003,3.4263 -1.5625,5.1875 -0.23045,0.9607 -0.3361,1.969 -0.53125,2.9375 -0.17527,0.8699 -0.39205,1.72295 -0.5625,2.59375 -0.19726,1.0078 -0.45665,2.00705 -0.53125,3.03125 -0.2042,3.2944 -0.68821,10.52285 0.3125,11.59375 1.00071,1.0709 2.88949,-1.3409 4.0625,-2.375 1.63615,-1.4424 3.22423,-2.963 4.84375,-4.4375 1.62617,-1.4806 3.28447,-2.9187 4.875,-4.4375 0.59497,-0.5682 1.13802,-1.2003 1.75,-1.75 0.81998,-0.7367 1.70497,-1.4105 2.59375,-2.0625 1.31992,-0.96822 3.80193,-2.55407 4.15625,-2.78125 0.13177,0.0682 0.27135,0.17515 0.3125,0.28125 0.4742,1.2231 -0.5971,2.5457 -0.9375,3.8125 -0.71638,2.6661 -1.66898,5.28415 -2.3125,7.96875 -0.65424,2.7293 -1.31772,5.48525 -1.5625,8.28125 -0.39557,4.5183 -0.13251,9.06945 0.1875,13.59375 0.0936,1.3228 0.31557,2.6243 0.5,3.9375 0.12584,0.896 0.2616,1.7943 0.40625,2.6875 0.32938,2.0338 0.58073,4.08325 1.03125,6.09375 0.60905,2.7178 1.40638,5.4081 2.25,8.0625 1.00204,3.1529 2.14807,6.25905 3.34375,9.34375 0.97677,2.52 1.97878,5.02115 3.125,7.46875 1.68067,3.5887 3.81186,6.94605 5.5,10.53125 0.81755,1.7363 1.5483,3.5263 2.25,5.3125 1.21586,3.0952 2.3647,6.217 3.40625,9.375 0.71849,2.1785 0.28064,5.00725 1.9375,6.59375 0.12535,0.1162 0.36572,0.177 0.53125,0.125 0.91774,-0.2889 1.30283,-1.38275 1.875,-2.15625 1.09908,-1.4859 2.01659,-3.11635 2.9375,-4.71875 0.652,-1.1345 1.19384,-2.33305 1.84375,-3.46875 0.64539,-1.1278 1.28818,-2.2465 2.03125,-3.3125 0.24435,-0.3505 0.43593,-0.7981 0.8125,-1 0.12091,-0.065 0.29815,-0.11625 0.40625,-0.0312 0.64744,0.5059 0.30499,1.59085 0.40625,2.40625 0.1626,1.3095 0.17335,2.65665 0.3125,3.96875 0.13543,1.2772 0.37041,2.5347 0.5,3.8125 0.12028,1.1859 0.1635,2.3736 0.25,3.5625 0.082,1.126 0.0703,2.2603 0.25,3.375 0.20711,1.2849 0.49077,2.57065 0.96875,3.78125 0.75591,1.9146 1.97348,3.62205 3,5.40625 1.08715,1.8895 2.21451,3.7604 3.34375,5.625 1.21625,2.0084 2.39539,4.0396 3.6875,6 1.50859,2.2888 2.95871,4.61715 4.71875,6.71875 2.07332,2.4757 4.49322,4.6608 6.84375,6.875 1.60101,1.5082 3.1831,3.0484 4.9375,4.375 2.28849,1.7304 4.65644,3.36545 7.21875,4.65625 2.83108,1.4262 5.86373,2.45365 8.90625,3.34375 1.45586,0.4259 2.96077,0.7734 4.46875,0.9375 2.94999,0.3208 5.95034,0.3233 8.90625,0.0625 0.86345,-0.0762 1.67576,-0.32915 2.53125,-0.46875 1.92984,-0.3149 3.89092,-0.4506 5.8125,-0.8125 3.4638,-0.6523 6.84302,-1.8161 10.3125,-2.4375 4.91527,-0.8804 9.89035,-1.1809 14.84375,-1.8125 5.19044,-0.6617 10.37862,-1.3513 15.5625,-2.0625 5.31774,-0.7297 10.66765,-1.43925 15.96875,-2.28125 8.67243,-1.3775 17.277,-3.08055 25.9375,-4.53125 2.56434,-0.4295 5.14211,-0.7196 7.6875,-1.25 8.12753,-1.6935 16.07522,-4.18765 24.125,-6.21875 4.93914,-1.2463 9.93767,-2.28565 14.84375,-3.65625 7.47484,-2.0883 14.76309,-4.7818 22.21875,-6.9375 4.71748,-1.3641 9.50199,-2.52765 14.25,-3.78125 2.85015,-0.7525 5.70727,-1.4045 8.53125,-2.25 4.19184,-1.255 8.32445,-2.6944 12.4375,-4.1875 3.62946,-1.3176 7.15142,-2.99175 10.8125,-4.21875 3.9195,-1.3135 8.044,-1.9862 11.9375,-3.375 3.18706,-1.1367 6.18223,-2.74635 9.3125,-4.03125 4.82297,-1.9797 9.70193,-3.77075 14.5625,-5.65625 4.90425,-1.9025 9.78196,-3.90235 14.71875,-5.71875 3.87886,-1.4271 7.84029,-2.6343 11.71875,-4.0625 3.48582,-1.2836 6.92803,-2.64665 10.375,-4.03125 5.86602,-2.3562 11.67807,-4.89325 17.53125,-7.28125 4.00012,-1.6319 8.00371,-3.2495 12.03125,-4.8125 4.97597,-1.9312 9.96285,-3.8597 15,-5.625 4.095,-1.4351 8.2866,-2.57775 12.375,-4.03125 3.5591,-1.2654 7.0083,-2.81495 10.5625,-4.09375 4.396,-1.5816 8.85095,-2.9549 13.28125,-4.4375 3.3353,-1.1162 6.6431,-2.29435 10,-3.34375 4.1317,-1.2917 8.30395,-2.4441 12.46875,-3.625 4.4527,-1.2624 8.95695,-2.4129 13.40625,-3.6875 3.9783,-1.1397 7.96955,-2.2868 11.90625,-3.5625 2.9285,-0.9489 5.7262,-2.2217 8.6875,-3.0625 4.9736,-1.4122 10.08245,-2.3189 15.15625,-3.3125 3.5108,-0.6876 7.08175,-1.1312 10.59375,-1.8125 5.5048,-1.0677 10.981,-2.23875 16.4375,-3.53125 4.125,-0.977 8.2175,-2.0916 12.3125,-3.1875 4.3131,-1.1542 8.59555,-2.43055 12.9062,-3.59375 6.2614,-1.6896 12.5565,-3.2284 18.8125,-4.9375 4.4728,-1.222 8.9448,-2.41275 13.375,-3.78125 5.8213,-1.7982 11.5986,-3.7844 17.3438,-5.8125 5.0483,-1.7821 10.0962,-3.59465 15.0625,-5.59375 3.9914,-1.6066 7.8705,-3.50515 11.8437,-5.15625 4.4532,-1.8505 9.0665,-3.2755 13.4375,-5.3125 5.5263,-2.5754 10.8085,-5.6482 16.0938,-8.6875 4.4383,-2.5523 8.7417,-5.33445 13.0937,-8.03125 4.4769,-2.7743 9.0021,-5.4866 13.4063,-8.375 3.861,-2.5322 7.5586,-5.29125 11.4062,-7.84375 5.0956,-3.3804 10.3906,-6.45355 15.4375,-9.90625 3.3943,-2.3221 6.6411,-4.86455 9.9688,-7.28125 2.1765,-1.5806 4.3585,-3.17665 6.5625,-4.71875 2.0182,-1.4121 4.005,-2.87091 6.125,-4.125 4.1437,-2.45105 8.5371,-4.47327 12.8437,-6.625 3.3384,-1.66796 6.7444,-3.16724 10.0626,-4.875 2.1729,-1.1183 4.3596,-2.21372 6.4375,-3.5 1.6704,-1.03405 3.2827,-2.18214 4.8437,-3.375 1.4366,-1.0978 2.9132,-2.15595 4.1563,-3.46875 2.2284,-2.35326 4.2167,-4.99167 5.8125,-7.8125 1.4057,-2.4848 2.3175,-5.20799 3.25,-7.90625 0.8574,-2.48082 1.5173,-5.04027 2.125,-7.59375 0.2308,-0.96967 0.4547,-1.9505 0.5938,-2.9375 0.1325,-0.94146 0.2058,-1.89403 0.25,-2.84375 0.2142,-4.59335 0.1992,-9.18493 0.062,-13.78125 -0.049,-1.64414 -0.1371,-3.30202 -0.3124,-4.9375 -0.2034,-1.89395 -0.5755,-3.77514 -0.875,-5.65625 -0.2703,-1.69639 -0.5463,-3.3707 -0.8438,-5.0625 -0.3021,-1.71761 -0.4203,-3.49075 -0.9375,-5.15625 -0.3213,-1.03461 -0.8373,-2.01117 -1.3437,-2.96875 -1.1336,-2.14238 -2.5305,-4.1306 -3.8126,-6.1875 -1.5255,-2.44779 -3.1568,-4.81152 -4.5937,-7.3125 -0.5322,-0.92637 -2.217,-2.0517 -1.5,-2.84375 2.8233,-3.11881 7.7679,3.24211 11.7187,4.6875 13.4046,4.95242 2.8388,-4.61556 0.875,-12.375 -0.8718,-2.67356 -1.8051,-5.31443 -2.5312,-8.03125 -0.7653,-2.86351 -1.2189,-5.80434 -1.9062,-8.6875 -0.6022,-2.52469 -1.2225,-5.03623 -1.9376,-7.53125 -0.7545,-2.63275 -1.5611,-5.27091 -2.5,-7.84375 -1.2953,-3.55023 -2.8269,-6.99386 -4.3124,-10.46875 -0.8279,-1.93625 -1.592,-3.91243 -2.5626,-5.78125 -0.9789,-1.88496 -2.112,-3.69555 -3.2812,-5.46875 -1.2282,-1.86265 -2.5593,-3.65889 -3.9062,-5.4375 -1.664,-2.19691 -3.2439,-4.48446 -5.1563,-6.46875 -0.8752,-0.90805 -1.8804,-1.6934 -2.8751,-2.46875 -1.2503,-0.97463 -2.594,-1.78477 -3.875,-2.71875 -1.8824,-1.37253 -3.8289,-2.6979 -5.5937,-4.21875 -1.5669,-1.35037 -5.1864,-2.42801 -4.4063,-4.34375 1.6748,-4.11257 8.8766,-0.26451 13.3125,-0.0625 1.8692,0.0851 3.7252,0.43835 5.5939,0.53125 2.9321,0.14576 5.773,0.52311 8.8124,0.0312 3.0395,-0.49186 -2.028,-3.82379 -2.9374,-5.40625 -2.1714,-2.51933 -4.6118,-4.78598 -7.0938,-7 -2.178,-1.94284 -4.4394,-3.84558 -6.8439,-5.5 -3.0492,-2.09823 -6.3339,-3.8401 -9.5937,-5.59375 -2.1923,-1.17938 -4.4346,-2.25364 -6.6875,-3.3125 -4.7534,-2.23404 -9.5941,-4.30175 -14.4062,-6.40625 -3.1268,-1.36743 -6.1593,-2.98051 -9.4063,-4.03125 -1.3747,-0.44487 -2.7851,-0.75692 -4.2187,-0.9375 -4.4703,-0.56311 -8.997,-0.24933 -13.5,-0.40625 -1.8733,-0.0653 -3.7537,-0.11191 -5.625,-0.21875 -2.3914,-0.13652 -4.7635,-0.4537 -7.1563,-0.5625 -3.259,-0.14784 -6.5568,-0.36475 -9.8125,-0.15625 -1.39,0.089 -2.7391,0.48545 -4.125,0.625 -1.4785,0.14888 -2.9571,0.11963 -4.4375,0.25 -1.9424,0.17106 -3.8776,0.44606 -5.8125,0.6875 -1.053,0.13138 -2.1073,0.24585 -3.1562,0.40625 -2.6403,0.40376 -5.2992,0.79408 -7.9063,1.375 -1.693,0.40459 -4.9765,0.0123 -6.625,-1.34375 -3.2641,-1.79107 -5.139,-2.8894 -7.4375,-4.71875 -2.3753,-1.89045 -4.7913,-3.87598 -6.4687,-6.40625 -0.5949,-0.89736 -0.6676,-2.07516 -1.2188,-3 -2.2645,-3.79943 -5.3648,-7.03649 -8.4687,-10.1875 -2.8225,-2.8653 -6.1031,-5.22563 -9.1563,-7.84375 -3.9543,-3.39077 -7.9361,-6.77895 -11.875,-10.1875 -2.1879,-1.89331 -4.3218,-3.81929 -6.5312,-5.6875 -2.9579,-2.50108 -5.941,-4.99872 -9,-7.375 -2.0858,-1.62029 -4.1861,-3.20941 -6.375,-4.6875 -2.5097,-1.69472 -5.2048,-3.1404 -7.75,-4.78125 -3.4978,-2.25496 -6.9439,-4.56862 -10.3438,-6.96875 -2.45845,-1.73564 -4.85165,-3.557 -7.24995,-5.375 -2.4322,-1.84366 -4.6949,-3.95589 -7.25,-5.625 -4.3084,-2.81445 -9.0422,-4.88391 -13.5625,-7.34375 -2.7174,-1.47879 -5.45245,-2.93399 -8.15625,-4.4375 -2.895,-1.60981 -5.6876,-3.37526 -8.625,-4.90625 -2.1411,-1.11592 -4.4118,-2.02762 -6.5625,-3.125 -2.4744,-1.26262 -4.9263,-2.54629 -7.3125,-3.96875 -2.1684,-1.29269 -4.16775,-2.87624 -6.34375,-4.15625 -3.6513,-2.14788 -7.4616,-4.04188 -11.25,-5.93749 -3.6958,-1.84925 -7.4578,-3.50134 -11.1875,-5.28125 -3.0879,-1.47362 -6.2002,-2.91787 -9.25,-4.46875 -3.2144,-1.63457 -6.34275,-3.40925 -9.53125,-5.09375 -5.1809,-2.73709 -10.34585,-5.5187 -15.59375,-8.125 -7.6639,-3.80621 -15.46715,-7.37565 -23.21875,-11 -5.6169,-2.62623 -11.2177,-5.24327 -16.875,-7.78125 -9.03752,-4.05444 -18.12654,-8.01785 -27.25,-11.875 -9.65732,-4.08299 -19.22299,-8.39925 -29.09335,-11.93745 -7.12154,-2.55284 -14.39854,-4.66157 -21.6875,-6.6875 -10.58046,-2.94079 -21.28406,-5.50562 -32,-7.90625 -8.25216,-1.84868 -16.57511,-3.37901 -24.875,-5.00001 -6.80144,-1.32834 -13.54717,-2.8865 -20.40625,-3.875 -2.43845,-0.35142 -4.89208,-0.47617 -7.34375,-0.71875 -1.27324,-0.12597 -2.56843,-0.3034 -3.84375,-0.40625 -2.02816,-0.16357 -4.06243,-0.25695 -6.09375,-0.375 -2.72469,-0.15834 -5.43418,-0.23914 -8.15625,-0.4375 -2.29743,-0.16742 -4.60783,-0.47178 -6.90625,-0.625 -1.26099,-0.084 -2.52309,-0.0372 -3.78125,-0.15625 -1.42964,-0.13531 -2.82596,-0.43983 -4.25,-0.625 -1.31248,-0.17066 -2.6158,-0.3679 -3.9375,-0.4375 -4.93881,-0.2599 -9.90191,0.28752 -14.84375,0.0937 -1.61449,-0.0633 -3.23243,-0.31815 -4.84375,-0.4375 -2.82843,-0.20952 -5.63381,-0.44745 -8.46875,-0.53125 -3.92318,-0.11594 -7.85469,-0.19004 -11.78125,-0.1875 z m 13.65625,9.21875 c 1.75666,0.009 3.52477,0.0495 5.28125,0.0625 8.34235,0.0618 16.68347,-0.31499 25,0.34376 2.08276,0.16497 4.14481,0.65349 6.21875,0.90625 2.70798,0.33003 5.44063,0.52152 8.15625,0.78125 2.21555,0.21189 4.4094,0.41366 6.625,0.625 2.57222,0.24535 5.16288,0.37046 7.71875,0.75 3.56604,0.52953 7.07663,1.48774 10.625,2.125 2.3284,0.41815 4.67052,0.71289 7,1.125 2.99226,0.52935 5.96351,1.09487 8.9375,1.71875 2.22229,0.46618 4.43935,1.00883 6.65625,1.5 3.31172,0.73372 6.63606,1.4088 9.9375,2.1875 3.88362,0.916 7.72545,1.9588 11.59375,2.9375 2.48772,0.6294 4.98949,1.21307 7.46875,1.875 2.11284,0.56409 4.19389,1.23923 6.3125,1.78125 1.27602,0.32645 2.56354,0.59667 3.84375,0.90625 1.88897,0.45677 3.78862,0.86884 5.65625,1.40625 2.32647,0.66944 4.64203,1.39329 6.90625,2.25 1.36401,0.51609 2.6666,1.23561 4.03125,1.75 2.42884,0.9155 4.94588,1.54797 7.40625,2.375 2.55993,0.86049 5.10068,1.81415 7.65625,2.6875 2.84171,0.97112 5.68598,1.85184 8.53125,2.8125 2.5522,0.8617 5.13055,1.71971 7.65625,2.65625 2.83422,1.05093 5.65276,2.16795 8.4375,3.34375 2.03938,0.86108 4.02111,1.79147 6.03125,2.71875 2.94046,1.35643 5.85077,2.77839 8.78125,4.15625 2.21104,1.03959 4.43844,2.06867 6.65625,3.09375 2.10706,0.97388 4.2072,1.92854 6.3125,2.90625 2.01935,0.93779 4.06771,1.85479 6.0625,2.84375 2.52582,1.25222 4.9611,2.68076 7.5,3.90625 1.77328,0.85593 3.62104,1.5755 5.40625,2.40625 2.76908,1.28859 5.47582,2.65665 8.21875,4 1.85954,0.91071 3.74096,1.82565 5.59375,2.75 1.07587,0.53675 2.1317,1.11127 3.21875,1.625 1.36731,0.64618 2.74737,1.21986 4.125,1.84375 1.50095,0.67974 3.00681,1.36588 4.5,2.0625 1.74263,0.81299 3.48186,1.64358 5.21875,2.46875 1.31354,0.62404 2.64503,1.20841 3.9375,1.875 1.53192,0.79008 2.99804,1.71242 4.53125,2.5 1.29153,0.66343 2.58028,1.28339 3.90625,1.875 2.88207,1.2859 5.83485,2.41598 8.75,3.625 2.79328,1.15848 5.61484,2.23344 8.375,3.46875 2.61178,1.1689 5.19035,2.47095 7.75,3.74999 2.35334,1.17595 4.72276,2.30771 7,3.625 1.2557,0.72637 2.48043,1.49414 3.65625,2.34375 1.49785,1.0823 2.84006,2.38338 4.3125,3.5 1.55749,1.18112 3.12255,2.34082 4.78125,3.375 2.21553,1.38135 4.5978,2.53026 6.90625,3.75 2.93344,1.54997 5.8902,3.01994 8.84375,4.53125 2.88645,1.47697 5.85604,2.80293 8.65625,4.4375 2.6162,1.52716 5.14551,3.21595 7.59375,5 1.70928,1.24556 3.36728,2.5519 4.9375,3.96875 0.98056,0.88478 1.78856,1.9726 2.78125,2.84375 1.23379,1.08273 2.58322,2.04114 3.9375,2.96875 2.07786,1.42322 4.23574,2.69129 6.40625,3.96875 1.81269,1.06686 3.71736,1.99768 5.53125,3.0625 1.85984,1.09179 3.69891,2.22004 5.5,3.40625 3.70575,2.44066 7.24395,5.1057 10.87495,7.65625 1.3414,0.94218 2.7558,1.78293 4.0313,2.8125 2.955,2.38529 5.6418,5.11348 8.375,7.75 2.0806,2.00705 4.0945,4.0985 6.125,6.15625 2.5536,2.5879 5.0307,5.23411 7.625,7.78125 2.2421,2.20141 4.5865,4.28279 6.8437,6.46875 2.0939,2.02771 4.2108,4.04356 6.2188,6.15625 1.4665,1.54294 2.8721,3.1274 4.25,4.75 1.3223,1.55714 2.5136,3.23086 3.8437,4.78125 1.1625,1.35495 2.417,2.65423 3.625,3.96875 0.9912,1.07855 2.0515,2.29774 2.9688,3.21875 1.0619,1.06622 1.8189,1.74071 2.7187,2.71875 0.5264,0.78046 1.2472,1.3172 0.9063,2.375 -0.5763,1.06599 -1.9232,1.48121 -2.9688,2.09375 -1.3582,0.79572 -2.8018,1.41413 -4.25,2.03125 -3.5266,1.50281 -7.1779,2.75419 -10.7812,4.0625 -2.8886,1.04884 -5.7788,2.03936 -8.6875,3.03125 -2.6501,0.9037 -5.4031,1.53497 -7.9688,2.65625 -2.2091,0.96548 -4.2472,2.30957 -6.3437,3.5 -3.0305,1.72079 -6.0904,3.4113 -9.0313,5.28125 -3.6799,2.33991 -7.0931,5.0792 -10.7812,7.40625 -3.0081,1.89799 -6.14005,3.56261 -9.21875,5.34375 -4.71236,2.72627 -9.39586,5.49045 -14.125,8.1875 -5.23187,2.98376 -10.40617,6.12645 -15.78125,8.84375 -6.90945,3.49299 -14.07652,6.42898 -21.15625,9.5625 -6.33862,2.8055 -12.65718,5.70842 -19.09375,8.28125 -5.46892,2.18604 -11.03016,4.07359 -16.5625,6.09375 -6.29005,2.29684 -12.61334,4.55477 -18.90625,6.84375 -6.34847,2.30919 -12.66137,4.68802 -19.03125,6.9375 -4.68584,1.65477 -9.37526,3.25326 -14.09375,4.8125 -2.62524,0.86752 -5.24176,1.79302 -7.90625,2.53125 -3.37409,0.93483 -6.79709,1.66418 -10.21875,2.40625 -3.10593,0.6736 -6.24535,1.29071 -9.375,1.84375 -4.53056,0.80059 -9.08217,1.39722 -13.625,2.125 -4.28892,0.6871 -8.56774,1.36164 -12.84375,2.125 -4.38572,0.78295 -8.77739,1.55872 -13.125,2.53125 -3.98709,0.89189 -7.90543,2.06436 -11.875,3.03125 -4.22965,1.03024 -8.51081,1.94727 -12.75,2.9375 -4.2653,0.99633 -8.51208,2.05165 -12.78125,3.03125 -4.4584,1.02302 -8.91427,1.95595 -13.375,2.96875 -4.2594,0.96709 -8.52631,1.98221 -12.78125,2.96875 -4.4728,1.03705 -8.93488,2.0818 -13.40625,3.125 -2.96155,0.69095 -5.94618,1.36526 -8.90625,2.0625 -2.66481,0.62769 -5.29561,1.31503 -7.96875,1.90625 -1.77243,0.39201 -3.57586,0.68175 -5.34375,1.09375 -2.95099,0.68771 -5.84564,1.53061 -8.78125,2.28125 -2.64522,0.67639 -5.33398,1.28399 -7.96875,2 -2.3947,0.65077 -4.74224,1.40051 -7.125,2.09375 -3.50927,1.02099 -7.02345,2.00522 -10.53125,3.03125 -5.24431,1.53396 -10.50151,3.06385 -15.71875,4.6875 -2.27137,0.70687 -4.56752,1.31676 -6.78125,2.1875 -2.77878,1.09299 -5.38859,2.58615 -8.125,3.78125 -2.57169,1.12316 -5.19766,2.16882 -7.8125,3.1875 -2.77921,1.08271 -5.57267,2.07234 -8.375,3.09375 -3.43181,1.25084 -6.86218,2.5199 -10.3125,3.71875 -3.13602,1.08964 -6.28158,2.12567 -9.4375,3.15625 -4.20757,1.374 -8.4266,2.72679 -12.65625,4.03125 -2.4789,0.76451 -4.97207,1.51446 -7.46875,2.21875 -2.85211,0.80455 -5.73689,1.49376 -8.59375,2.28125 -3.02186,0.83297 -6.02712,1.69895 -9.03125,2.59375 -3.42612,1.0205 -6.87301,2.0146 -10.25,3.1875 -2.946,1.02321 -5.81971,2.1942 -8.71875,3.34375 -2.36714,0.93864 -4.769,1.86705 -7.09375,2.90625 -2.11981,0.94759 -4.15539,2.02918 -6.25,3.03125 -4.42095,2.11499 -9.29513,4.5416 -13.3125,6.25 l 0.25,-0.25 c 0,0 3.73864,-8.54177 5.59375,-12.8125 1.08168,-2.49019 2.30959,-4.91053 3.21875,-7.46875 0.81314,-2.28802 1.36081,-4.65742 2,-7 0.77597,-2.84385 1.5776,-5.69239 2.25,-8.5625 0.3554,-1.51699 0.66859,-3.05906 0.9375,-4.59375 0.25504,-1.4555 0.44942,-2.90779 0.625,-4.375 0.17081,-1.42739 0.24868,-2.85234 0.40625,-4.28125 0.18597,-1.68647 0.4009,-3.38514 0.65625,-5.0625 0.20595,-1.35285 0.60107,-2.66788 0.71875,-4.03125 0.32396,-3.75313 0.57541,-7.59982 -0.0625,-11.3125 -0.0868,-0.50508 -0.4006,-0.93475 -0.5,-1.4375 -0.44131,-2.23315 -0.21296,-4.57318 -0.375,-6.84375 -0.12932,-1.81212 -0.26853,-3.60433 -0.5,-5.40625 -0.39166,-3.04896 -0.79295,-6.10972 -1.53125,-9.09375 -0.15424,-0.62341 -0.47033,-1.21351 -0.59375,-1.84375 -0.25951,-1.32503 -0.15262,-2.6872 -0.28125,-4.03125 -0.13329,-1.39276 -0.32712,-2.7991 -0.5,-4.1875 -0.17433,-1.40006 -0.43941,-2.78201 -0.5625,-4.1875 -0.1158,-1.32226 -0.0632,-2.64725 -0.1875,-3.96875 -0.14126,-1.5023 -0.45647,-3.00051 -0.625,-4.5 -0.12619,-1.12281 -0.0918,-2.26113 -0.28125,-3.375 -0.10571,-0.62145 -0.3322,-1.19709 -0.46875,-1.8125 -0.16228,-0.73138 -0.26882,-1.4823 -0.40625,-2.21875 -0.15711,-0.84193 -0.29633,-1.69232 -0.46875,-2.53125 -0.16497,-0.80269 -0.4247,-1.59845 -0.5625,-2.40625 -0.13542,-0.79383 -0.17469,-1.57679 -0.28125,-2.375 -0.10417,-0.78029 -0.20093,-1.5696 -0.34375,-2.34375 -0.15053,-0.81597 -0.38041,-1.62159 -0.53125,-2.4375 -0.16827,-0.91019 -0.2954,-1.83104 -0.40625,-2.75 -0.20627,-1.71 -1.27057,-3.60061 -0.46875,-5.125 1.91454,-3.63986 7.14232,-4.05674 10.75,-6.03125 4.83564,-2.64658 9.72846,-5.22083 14.59375,-7.8125 3.24881,-1.7306 6.52611,-3.4109 9.75,-5.1875 4.586,-2.52723 9.13917,-5.08021 13.625,-7.78125 2.88097,-1.73471 5.73357,-3.54019 8.53125,-5.40625 2.43828,-1.62634 4.80516,-3.32401 7.1875,-5.03125 1.30356,-0.93417 2.52294,-2.03234 3.90625,-2.84375 1.41743,-0.83142 2.92076,-1.51103 4.46875,-2.0625 0.47122,-0.16787 0.98408,-0.2512 1.46875,-0.375 0.67257,-0.17179 1.31792,-0.37106 2,-0.5 0.88617,-0.16752 1.79269,-0.23113 2.6875,-0.34375 1.46198,-0.184 2.93743,-0.44496 4.40625,-0.5625 2.76057,-0.22087 5.51878,-0.11669 8.28125,-0.3125 1.6251,-0.11519 3.28657,-0.1379 4.875,-0.5 2.82325,-0.64359 5.51267,-1.75581 8.15625,-2.9375 3.18938,-1.42566 6.19466,-3.2196 9.21875,-4.96875 3.66028,-2.11712 7.32158,-4.30144 10.8125,-6.6875 3.05787,-2.09007 5.94148,-4.42622 8.875,-6.6875 3.39448,-2.61661 6.77309,-5.22783 10.09375,-7.9375 2.96769,-2.42165 6.10964,-4.69267 8.78125,-7.4375 1.31583,-1.35189 2.47384,-2.84391 3.53125,-4.40625 0.56256,-0.83119 1.26423,-1.64239 1.46875,-2.625 0.041,-0.19681 0.11281,-0.49535 -0.0625,-0.59375 -5.84096,-3.27757 -12.30642,5.30788 -18.125,8.625 -3.04244,1.73447 -5.75526,4.00885 -8.71875,5.875 -3.55205,2.23677 -7.1605,4.41983 -10.875,6.375 -3.90725,2.05663 -7.91431,3.91942 -12,5.59375 -3.24268,1.32887 -6.54402,2.54317 -9.90625,3.53125 -0.74686,0.21948 -1.53047,0.32558 -2.28125,0.53125 -0.51036,0.13981 -0.98428,0.35023 -1.5,0.46875 -0.82959,0.19065 -1.68365,0.2967 -2.53125,0.375 -1.18473,0.10947 -3.00905,1.17822 -3.5625,0.125 -1.18257,-2.25046 2.95153,-4.13314 4.53125,-6.125 1.61914,-2.04155 3.39708,-3.96477 5.0625,-5.96875 1.97892,-2.3812 3.98071,-4.73843 5.875,-7.1875 2.09113,-2.70355 4.14722,-5.4504 6.0625,-8.28125 1.38255,-2.04345 2.67461,-4.14345 3.90625,-6.28125 1.34411,-2.33301 2.63942,-4.6866 3.78125,-7.125 1.02671,-2.19254 1.79538,-4.49388 2.75,-6.71875 1.09195,-2.54493 2.1741,-5.11367 3.40625,-7.59375 0.58663,-1.18076 1.40025,-2.25126 1.90625,-3.46875 0.38332,-0.92231 0.7042,-1.886 0.84375,-2.875 0.18231,-1.29202 0.21586,-2.62504 -0.0312,-3.90625 -0.0492,-0.25518 -0.21325,-0.46792 -0.28125,-0.71875 -0.21188,-0.78139 -0.14224,-1.63082 -0.375,-2.40625 -0.14621,-0.4871 -0.44089,-0.90092 -0.625,-1.375 -0.16022,-0.41255 0.032,-1.21975 -0.40625,-1.28125 -0.57803,-0.0811 -0.68089,0.98002 -1,1.46875 -1.38852,2.12657 -2.74017,4.26915 -4.0625,6.4375 -1.55692,2.55303 -3.02195,5.13728 -4.53125,7.71875 -1.46839,2.51149 -2.77822,5.15143 -4.40625,7.5625 -0.60424,0.89487 -1.40061,1.61304 -1.96875,2.53125 -1.04999,1.69695 -1.62753,3.66025 -2.59375,5.40625 -0.52441,0.94762 -1.15574,1.84455 -1.75,2.75 -1.13858,1.73482 -2.19915,3.53955 -3.5,5.15625 -1.8245,2.26749 -3.96276,4.26529 -6,6.34375 -2.57296,2.62502 -5.38618,4.98539 -7.84375,7.71875 -0.91634,1.01917 -1.71352,2.14282 -2.5625,3.21875 -1.7642,2.2358 -3.4104,4.57139 -5.28125,6.71875 -2.01887,2.31726 -4.17556,4.54212 -6.40625,6.65625 -1.07195,1.01594 -2.20377,1.93604 -3.34375,2.875 -0.98946,0.81498 -1.98518,1.63409 -3.03125,2.375 -1.78409,1.26363 -3.70329,2.33195 -5.53125,3.53125 -2.45964,1.61374 -4.87795,3.28615 -7.3125,4.9375 -3.00716,2.03974 -5.98313,4.1309 -9,6.15625 -3.03366,2.03662 -6.14945,3.95519 -9.15625,6.03125 -1.69914,1.17318 -3.32209,2.46646 -5.03125,3.625 -2.22787,1.51015 -4.48291,2.96455 -6.8125,4.3125 -2.81914,1.63122 -5.75935,3.07374 -8.65625,4.5625 -2.18898,1.12495 -4.35877,2.28197 -6.59375,3.3125 -1.57594,0.72666 -3.22843,1.25642 -4.78125,2.03125 -0.72992,0.36422 -1.41518,0.81676 -2.125,1.21875 -4.11846,2.33237 -8.28007,4.58158 -12.4375,6.84375 -4.33378,2.35813 -8.56195,4.91006 -13.03125,7 -3.22494,1.50805 -6.61855,2.63416 -9.90625,4 -3.83929,1.595 -7.68024,3.19413 -11.46875,4.90625 -3.53423,1.59721 -6.99667,3.33612 -10.5,5 -3.8519,1.82943 -7.7586,3.57273 -11.5625,5.5 -3.30515,1.67458 -6.54318,3.44913 -9.78125,5.25 -3.73209,2.07562 -7.46286,4.17832 -11.125,6.375 -2.82166,1.69253 -5.61474,3.45908 -8.375,5.25 -2.81793,1.82833 -5.59899,3.68856 -8.34375,5.625 -2.51411,1.77371 -4.96079,3.67444 -7.4375,5.5 -1.61788,1.19253 -3.26907,2.31349 -4.84375,3.5625 -1.73651,1.37737 -3.46344,2.7777 -5.0625,4.3125 -1.62756,1.56216 -3.09841,3.27959 -4.59375,4.96875 -1.33151,1.5041 -2.68865,2.99604 -3.90625,4.59375 -1.23839,1.62499 -2.32931,3.36666 -3.46875,5.0625 -1.61462,2.40307 -3.08621,4.88072 -4.75,7.25 -1.81414,2.58338 -3.7146,5.12949 -5.6875,7.59375 -1.12417,1.40415 -2.30943,2.74544 -3.5,4.09375 -1.08458,1.22828 -2.32215,2.31955 -3.3125,3.625 -1.17702,1.5515 -2.11238,3.28665 -3.09375,4.96875 -1.16504,1.99691 -2.31175,4.00965 -3.3125,6.09375 -0.91867,1.91316 -1.6374,3.92231 -2.46875,5.875 -0.89356,2.09883 -1.76633,4.20846 -2.71875,6.28125 -1.1632,2.53151 -2.38387,5.02157 -3.65625,7.5 -1.43636,2.79785 -2.93513,5.58445 -4.5,8.3125 -1.47081,2.56406 -3.07369,5.02732 -4.59375,7.5625 -1.52099,2.53673 -3.13768,5.03089 -4.5,7.65625 -1.46202,2.81749 -2.68695,5.73874 -3.9375,8.65625 -1.19937,2.79811 -2.19092,5.69135 -3.4375,8.46875 -0.62433,1.39102 -1.03847,2.91046 -2,4.09375 -0.29259,0.36008 -0.6789,0.74749 -1.125,0.875 -0.40292,0.11516 -1.0041,0.21432 -1.25,-0.125 -1.23653,-1.70631 0.86704,-4.13488 1.34375,-6.1875 0.52418,-2.25701 1.08856,-4.51166 1.6875,-6.75 0.54976,-2.05456 1.29145,-4.04818 1.75,-6.125 0.3054,-1.38319 0.39451,-2.82663 0.65625,-4.21875 0.28557,-1.51888 0.69816,-3.00963 0.96875,-4.53125 0.27358,-1.53845 0.40953,-3.08201 0.65625,-4.625 0.33068,-2.06805 0.70142,-4.13646 1.125,-6.1875 0.29202,-1.41402 0.66815,-2.80653 0.96875,-4.21875 0.31869,-1.49719 0.59564,-2.99497 0.875,-4.5 0.3793,-2.04345 0.72018,-4.11174 1.09375,-6.15625 0.36329,-1.98823 0.73669,-3.98526 1.125,-5.96875 0.40707,-2.0793 0.83237,-4.14808 1.28125,-6.21875 0.43019,-1.98445 0.85229,-3.96733 1.34375,-5.9375 0.40102,-1.60763 0.92591,-3.17009 1.3125,-4.78125 0.4382,-1.82624 0.79976,-3.68731 1.15625,-5.53125 0.3743,-1.93605 0.69921,-3.86876 1.03125,-5.8125 0.33779,-1.97742 0.59555,-3.96646 0.96875,-5.9375 0.37791,-1.99591 0.88437,-3.97653 1.28125,-5.96875 0.33559,-1.68455 0.55566,-3.38783 0.9375,-5.0625 0.51079,-2.24022 1.14616,-4.45728 1.8125,-6.65625 0.52335,-1.72711 1.19854,-3.39694 1.71875,-5.125 0.71276,-2.36767 1.28644,-4.79382 1.90625,-7.1875 0.14611,-0.56427 0.30962,-1.11882 0.4375,-1.6875 0.15814,-0.70328 0.25568,-1.42006 0.40625,-2.125 0.14026,-0.65665 0.32897,-1.30612 0.4375,-1.96875 0.15473,-0.94469 0.17869,-1.89587 0.3125,-2.84375 0.15749,-1.11562 0.4603,-2.19375 0.59375,-3.3125 0.0909,-0.76227 0.041,-1.54945 0.125,-2.3125 0.13701,-1.24383 0.45379,-2.47917 0.625,-3.71875 0.21618,-1.5652 0.37894,-3.11479 0.53125,-4.6875 0.1439,-1.4859 0.22848,-2.98036 0.34375,-4.46875 0.13078,-1.68866 0.23408,-3.37465 0.375,-5.0625 0.14174,-1.6977 0.31733,-3.39689 0.46875,-5.09375 0.14603,-1.6365 0.27305,-3.2715 0.4375,-4.90625 0.11094,-1.10286 0.23769,-2.21261 0.375,-3.3125 0.16554,-1.32609 0.36332,-2.64296 0.53125,-3.96875 0.12711,-1.00348 0.22857,-2.03041 0.375,-3.03125 0.11917,-0.81457 0.25145,-1.5977 0.40625,-2.40625 0.16436,-0.8585 0.36741,-1.73515 0.53125,-2.59375 0.1472,-0.77139 0.24669,-1.54357 0.40625,-2.3125 0.10267,-0.49476 0.25543,-0.9778 0.375,-1.46875 0.17039,-0.69958 0.32392,-1.39558 0.5,-2.09375 0.14475,-0.57396 0.31379,-1.13989 0.4375,-1.71875 0.14035,-0.65671 0.17739,-1.34939 0.34375,-2 0.14631,-0.57221 0.45117,-1.0831 0.59375,-1.65625 0.10539,-0.42379 0.0646,-0.89343 0.1875,-1.3125 0.11902,-0.40597 0.33941,-0.76485 0.5,-1.15625 1.23529,-3.0108 2.244,-6.1099 3.46875,-9.125 0.64712,-1.59309 1.39588,-3.13372 2.0625,-4.71875 1.19291,-2.83638 2.29474,-5.71825 3.46875,-8.5625 1.95705,-4.74133 3.86731,-9.49447 5.9375,-14.1875 1.06944,-2.42438 2.24374,-4.80809 3.34375,-7.21875 0.78531,-1.72099 1.54748,-3.47156 2.34375,-5.1875 0.95536,-2.05877 1.93461,-4.08896 2.9375,-6.125 0.69988,-1.42088 1.45934,-2.82766 2.15625,-4.25 0.64872,-1.32399 1.17172,-2.70416 1.875,-4 0.45409,-0.83669 1.0526,-1.59721 1.5,-2.4375 0.38808,-0.72888 0.64528,-1.52 1.03125,-2.25 0.36204,-0.68474 0.84998,-1.28761 1.21875,-1.96875 0.28678,-0.5297 0.51086,-1.08674 0.78125,-1.625 0.29431,-0.58588 0.61349,-1.16334 0.90625,-1.75 0.27196,-0.54499 0.53281,-1.10015 0.78125,-1.65625 0.31284,-0.70024 0.53354,-1.43826 0.875,-2.125 0.31762,-0.63879 0.7555,-1.21564 1.09375,-1.84375 0.6863,-1.27441 1.30136,-2.57482 1.9375,-3.875 0.42416,-0.86691 0.76748,-1.78917 1.25,-2.625 0.48702,-0.84362 1.12873,-1.58735 1.65625,-2.40625 0.40495,-0.62862 0.7728,-1.29554 1.15625,-1.9375 0.443,-0.74167 0.87077,-1.47633 1.3125,-2.21875 0.62115,-1.04397 1.22785,-2.09695 1.875,-3.125 0.46063,-0.73175 0.96627,-1.43128 1.4375,-2.15625 0.66928,-1.02966 1.36076,-2.058 1.96875,-3.125 0.61447,-1.07838 1.06724,-2.23744 1.6875,-3.3125 0.40015,-0.69355 0.89382,-1.31747 1.3125,-2 0.46181,-0.75284 0.92188,-1.52038 1.3125,-2.3125 0.19618,-0.39782 0.29397,-0.84399 0.53125,-1.21875 0.2142,-0.3383 0.5066,-0.61489 0.78125,-0.90625 0.55938,-0.59342 1.17393,-1.11194 1.71875,-1.71875 0.48755,-0.54302 0.92547,-1.16973 1.40625,-1.71875 0.22194,-0.25344 0.45969,-0.47057 0.6875,-0.71875 1.31119,-1.42844 2.56773,-2.91172 3.875,-4.34375 1.8351,-2.01024 3.68357,-3.99942 5.5625,-5.96875 1.06419,-1.11538 2.15437,-2.1973 3.21875,-3.3125 2.09735,-2.19748 4.15603,-4.45748 6.21875,-6.6875 1.2908,-1.39549 2.59383,-2.78316 3.875,-4.1875 1.98109,-2.17155 3.95937,-4.32898 5.90625,-6.53124 1.48491,-1.6797 2.91035,-3.42382 4.40625,-5.09375 2.08663,-2.32938 4.19427,-4.63347 6.375,-6.875 1.54094,-1.58391 3.15693,-3.09292 4.71875,-4.65625 2.12706,-2.12912 4.13541,-4.35956 6.3125,-6.4375 1.86793,-1.78286 3.87387,-3.41566 5.78125,-5.15625 1.58654,-1.4478 3.11974,-2.97224 4.71875,-4.40625 1.26472,-1.13421 2.57064,-2.22411 3.875,-3.3125 1.95394,-1.63042 3.95722,-3.21418 5.9375,-4.8125 1.4947,-1.2064 2.9546,-2.41187 4.46875,-3.59375 1.59536,-1.24527 3.22178,-2.4771 4.84375,-3.6875 1.40734,-1.05024 2.82087,-2.10462 4.25,-3.125 1.67131,-1.19331 3.35547,-2.35837 5.0625,-3.5 1.33296,-0.89147 2.60452,-1.86167 4.03125,-2.59375 0.99573,-0.51094 2.05672,-0.91637 3.125,-1.25 0.62017,-0.19369 1.26662,-0.32347 1.90625,-0.4375 2.96031,-0.52775 5.96252,-1.16083 8.96875,-1.09375 2.65395,0.0592 5.36028,0.37479 7.84375,1.3125 1.01602,0.38362 2.2534,0.76962 2.78125,1.71875 0.11211,0.20157 0.0981,0.47873 0,0.6875 -0.84263,1.79344 -3.08687,2.52573 -4.59375,3.8125 -2.24517,1.9172 -4.44217,3.89072 -6.65625,5.84375 -1.49024,1.31453 -2.94666,2.65997 -4.46875,3.9375 -1.9955,1.67487 -4.01344,3.30672 -6.09375,4.875 -1.86134,1.40321 -3.75064,2.76551 -5.6875,4.0625 -1.60556,1.07514 -3.31877,2.03854 -4.9375,3.09375 -1.93451,1.26106 -3.87563,2.48377 -5.71875,3.875 -1.39527,1.05318 -2.78042,2.15377 -4.03125,3.375 -0.89338,0.87224 -1.6574,1.86348 -2.46875,2.8125 -0.85452,0.99951 -2.78832,2.4061 -2.53125,3.03125 0.25707,0.62515 1.44919,0.034 2.5,-0.34375 1.05081,-0.37771 2.29838,-0.75885 3.40625,-1.25 1.45856,-0.64662 2.85246,-1.44908 4.25,-2.21875 1.46624,-0.80751 2.88296,-1.66041 4.3125,-2.53125 1.14548,-0.6978 2.2781,-1.43076 3.40625,-2.15625 1.29247,-0.83116 2.58166,-1.6702 3.875,-2.5 1.13265,-0.7267 2.2587,-1.48457 3.40625,-2.1875 1.42807,-0.87476 2.88457,-1.65627 4.3125,-2.53125 1.16361,-0.71302 2.2995,-1.51502 3.46875,-2.21875 1.00138,-0.60269 2.05291,-1.07934 3.03125,-1.71875 1.63039,-1.06556 3.14283,-2.31359 4.6875,-3.5 1.43752,-1.10412 2.86202,-2.24747 4.28125,-3.375 2.30125,-1.82826 4.57998,-3.66394 6.875,-5.5 1.98706,-1.58969 3.97605,-3.19865 5.96875,-4.78125 1.99536,-1.58472 4.0343,-3.0974 6,-4.71875 2.21263,-1.82502 4.40727,-3.66366 6.5,-5.625 2.05487,-1.92587 3.99056,-3.99634 5.9375,-6.03125 1.71149,-1.78884 3.37913,-3.62218 5.0625,-5.4375 0.93662,-1.01004 1.82404,-2.07189 2.8125,-3.03125 1.89442,-1.83866 3.84485,-3.61953 5.96875,-5.1875 1.31909,-0.97383 2.66817,-1.97734 4.1875,-2.59375 2.33419,-0.60456 4.73479,-1.02365 7.3125,-1.625 1.99818,-0.36681 4.00901,-0.68054 6.03125,-0.875 4.77306,-0.45899 9.54994,-0.57732 14.34375,-0.68751 1.75608,-0.0404 3.52459,-0.0401 5.28125,-0.0312 z m 516.12495,209.0625 c 1.1597,-0.007 2.3181,0.0623 3.4688,0.1875 3.5311,0.3837 6.9501,1.54505 10.4375,2.21875 4.0985,0.7916 8.2995,1.0915 12.3437,2.125 3.9882,1.0191 7.9031,2.3096 11.6563,4 5.1945,2.3395 15.5451,2.78 14.875,8.4375 -0.8422,7.1106 -13.994,3.2356 -20.625,5.9375 -2.0143,0.8208 -4.0846,1.69475 -5.75,3.09375 -1.8875,1.5855 -3.2996,3.7145 -4.5938,5.8125 -0.4819,0.7812 -1.6513,1.69575 -1.1562,2.46875 2.6389,4.1205 9.8396,-0.75645 14.6875,-0.0937 4.1744,0.5709 8.2208,1.916 12.125,3.5 2.8661,1.1628 5.5533,2.754 8.1875,4.375 1.969,1.2116 3.8823,2.52435 5.6875,3.96875 2.3786,1.9034 4.6848,3.91675 6.7499,6.15625 1.4697,1.5937 2.7375,3.37205 3.9688,5.15625 1.1778,1.7067 2.3079,3.4654 3.2501,5.3125 1.3097,2.5676 2.2711,5.28115 3.3125,7.96875 0.7961,2.0546 1.4799,4.15425 2.25,6.21875 0.8277,2.219 1.8265,4.37388 2.5625,6.625 1.9259,5.8907 7.7063,16.15633 4.8438,17.96875 -2.8628,1.81242 -6.7149,-10e-4 -10.0313,-0.4375 -2.5008,-0.32882 -4.9048,-1.14595 -7.3751,-1.65625 -1.8674,-0.3857 -3.7327,-0.8266 -5.625,-1.0625 -3.1693,-0.3952 -7.1687,-2.6769 -9.5625,-0.5625 -0.2449,0.2164 -0.1733,0.66125 -0.062,0.96875 0.4368,1.2114 1.6383,2.0239 2.6563,2.8125 1.2919,1.0009 2.8794,1.535 4.2812,2.375 1.6249,0.9735 3.2962,1.91805 4.7812,3.09375 2.9353,2.3234 5.3953,5.1555 8.0939,7.75 1.5396,1.4802 3.1799,2.89615 4.625,4.46875 1.1387,1.2391 2.2442,2.51265 3.1875,3.90625 1.0455,1.5447 1.8821,3.23925 2.7187,4.90625 1.01,2.0118 1.9995,4.04515 2.7813,6.15625 0.636,1.7173 1.095,3.4714 1.5313,5.25 0.5543,2.2608 1.0187,4.54345 1.375,6.84375 0.1732,1.1196 0.2486,2.28035 0.375,3.40625 0.1261,1.1259 0.3083,2.244 0.375,3.375 0.2029,3.4454 0.3485,6.90415 0.062,10.34375 -0.1884,2.267 -0.6952,4.49115 -1.1562,6.71875 -0.5833,2.8191 -1.0862,5.68695 -2.0312,8.40625 -1.3012,3.7445 -3.0033,7.35665 -5,10.78125 -1.1355,1.9475 -2.2375,4.0195 -3.9376,5.5 -6.4673,5.6318 -15.371,7.6301 -22.75,12 -6.7298,3.9853 -13.1983,8.4351 -19.5938,12.9375 -5.5134,3.8816 -10.6505,8.2769 -16.1875,12.125 -9.0646,6.2997 -18.4361,12.1625 -27.8437,17.9375 -7.2503,4.4507 -14.5608,8.8048 -22.0313,12.875 -5.624,3.0643 -11.3367,5.946 -17.125,8.6875 -6.5909,3.1217 -13.4669,5.66645 -20.0312,8.84375 -3.2665,1.581 -6.3306,3.5405 -9.625,5.0625 -2.8079,1.2972 -5.7082,2.408 -8.625,3.4375 -6.5409,2.3086 -13.2251,4.1524 -19.875,6.125 -4.4481,1.3194 -8.9266,2.4941 -13.375,3.8125 -3.3986,1.0073 -6.781,2.1447 -10.1875,3.125 -3.86331,1.1117 -7.71227,2.2021 -11.625,3.125 -9.63687,2.273 -19.42851,3.934 -29.125,5.9375 -7.89569,1.63135 -15.84034,2.9869 -23.65585,4.9687 -10.4748,2.6562 -20.72554,6.13095 -31.0625,9.28125 -9.80236,2.9873 -19.60778,6.0247 -29.375,9.125 -5.33472,1.6934 -10.70211,3.293 -15.96875,5.1875 -4.97352,1.789 -9.80156,3.9552 -14.75,5.8125 -7.30668,2.7424 -14.69393,5.27225 -22.0625,7.84375 -8.1718,2.8518 -16.51713,5.2464 -24.5625,8.4375 -6.83779,2.7121 -13.31999,6.22545 -20.09375,9.09375 -7.16847,3.0355 -14.48918,5.6756 -21.71875,8.5625 -7.02812,2.8065 -13.97833,5.8382 -21.0625,8.5 -5.89387,2.2146 -11.7912,4.48415 -17.84375,6.21875 -3.52627,1.0106 -7.17647,1.4845 -10.71875,2.4375 -4.42863,1.1914 -8.76606,2.66835 -13.125,4.09375 -6.77463,2.2154 -13.45053,4.76835 -20.25,6.90625 -7.84409,2.4664 -15.74934,4.69935 -23.6875,6.84375 -7.46026,2.0153 -14.99137,3.82935 -22.5,5.65625 -6.33147,1.5404 -12.64222,3.18775 -19.03125,4.46875 -5.80583,1.164 -11.6468,2.0416 -17.5,2.9375 -2.12115,0.3247 -4.2518,0.564 -6.375,0.875 -3.41321,0.4999 -6.82744,1.16255 -10.25,1.59375 -3.43015,0.4321 -6.87395,0.6408 -10.3125,1 -2.65352,0.2773 -5.30419,0.7403 -7.96875,0.875 -2.18597,0.1105 -4.386,-0.2939 -6.5625,-0.0625 -3.33555,0.3545 -6.48288,1.81225 -9.8125,2.21875 -4.8371,0.5906 -9.78343,-0.2402 -14.625,0.3125 -2.45634,0.2804 -4.79426,1.24565 -7.25,1.53125 -1.21283,0.1411 -2.44089,0.21075 -3.65625,0.0937 -2.56405,-0.2474 -5.14224,-0.8055 -7.5625,-1.6875 -3.89135,-1.418 -7.46866,-3.5859 -11,-5.75 -1.53105,-0.9383 -2.9798,-1.9945 -4.375,-3.125 -1.90948,-1.5471 -3.78391,-3.15065 -5.4375,-4.96875 -1.46559,-1.6113 -2.60559,-3.51985 -3.96875,-5.21875 -1.71926,-2.1427 -3.74523,-4.02495 -5.3125,-6.28125 -1.32765,-1.9113 -2.3812,-4.00445 -3.40625,-6.09375 -1.0778,-2.1967 -1.96134,-4.48 -2.875,-6.75 -0.71875,-1.7857 -1.59108,-3.53985 -2.0625,-5.40625 -0.35352,-1.3995 -0.30703,-2.86055 -0.5625,-4.28125 -0.10887,-0.6055 -0.33638,-1.2013 -0.40625,-1.8125 -0.35018,-3.0632 -0.18521,-6.1708 -0.0312,-9.25 0.0713,-1.4264 0.2618,-2.8327 0.4375,-4.25 0.12687,-1.0234 0.30861,-2.0393 0.4375,-3.0625 0.17195,-1.365 0.23522,-2.7641 0.4375,-4.125 0.19055,-1.2819 0.36455,-2.5659 0.71875,-3.8125 0.90848,-3.1975 1.96109,-6.417 3.59375,-9.3125 0.99624,-1.3993 1.04902,-4.5547 -0.0312,-5.0625 -2.44146,-0.9675 -4.10564,3.2741 -5.96875,5.125 -2.51826,2.5016 -4.83729,5.24085 -7.03125,8.03125 -1.78276,2.2675 -3.38503,4.6518 -4.96875,7.0625 -1.52991,2.3288 -2.80679,4.8219 -4.375,7.125 -0.30441,0.4471 -0.4912,1.0585 -0.96875,1.3125 -0.34426,0.183 -0.84101,0.292 -1.15625,0.0625 -1.53115,-1.1145 -0.94162,-3.6811 -1.46875,-5.5 -0.74938,-2.5859 -1.64861,-5.1133 -2.4375,-7.6875 -0.74628,-2.435 -1.4029,-4.91075 -2.15625,-7.34375 -0.86323,-2.7877 -1.78052,-5.56995 -2.6875,-8.34375 -0.86143,-2.6346 -1.85494,-5.2124 -2.625,-7.875 -1.77578,-4.1925 -1.50802,-9.2768 -2.8125,-12.9375 -0.43877,-2.7112 -0.21578,-5.5177 0.0625,-8.25 0.20324,-1.9955 0.78268,-3.94165 1.1875,-5.90625 0.33446,-1.6231 0.569,-3.25225 1.03125,-4.84375 0.91376,-3.146 1.96955,-6.27455 3.40625,-9.21875 1.60592,-3.2908 3.58484,-6.41375 5.78125,-9.34375 1.69825,-2.2654 3.57467,-4.4278 5.6875,-6.3125 1.90868,-1.7026 4.22319,-2.90865 6.25,-4.46875 0.70462,-0.5424 1.72513,-0.8527 2.03125,-1.6875 0.0625,-0.1706 0.0233,-0.39235 -0.0937,-0.53125 -0.94399,-1.1196 -2.70251,-1.1519 -4.125,-1.5 -1.36164,-0.3333 -2.75643,-0.4877 -4.15625,-0.5625 -1.46114,-0.078 -2.95978,-0.0953 -4.40625,0.125 -2.07466,0.3167 -4.09355,0.961 -6.0625,1.6875 -4.14313,1.5286 -9.34299,4.4786 -12.03125,5.5625 -2.68826,1.0839 -3.07275,1.4087 -3.90625,1.375 -0.8335,-0.034 -0.64927,-0.4293 -0.6875,-0.625 -0.0382,-0.1957 2.04273,-6.3829 3.40625,-9.4375 1.63111,-3.6541 3.59869,-7.1493 5.6875,-10.5625 1.49618,-2.4448 3.07665,-4.8306 4.875,-7.0625 1.49939,-1.8609 3.31483,-3.4672 4.90625,-5.25 2.63427,-2.9511 5.00697,-6.12215 7.6875,-9.03125 1.8806,-2.041 3.67681,-4.21205 5.875,-5.90625 7.87935,-6.0728 16.95217,-10.50755 25.84375,-14.96875 3.93945,-1.9766 8.10359,-3.4549 12.15625,-5.1875 6.51094,-2.7836 12.98575,-5.64235 19.53125,-8.34375 8.81782,-3.6391 17.65071,-7.19115 26.5625,-10.59375 5.10634,-1.9496 10.26669,-3.7648 15.40625,-5.625 10.44996,-3.7824 20.98918,-7.32615 31.375,-11.28125 8.34319,-3.1773 16.59665,-6.581 24.84375,-10 3.51885,-1.4588 6.98268,-3.08385 10.53125,-4.46875 2.08033,-0.8119 4.20026,-1.5251 6.3125,-2.25 1.83489,-0.6297 3.67705,-1.27345 5.53125,-1.84375 3.53388,-1.0869 7.11815,-1.95815 10.65625,-3.03125 3.67161,-1.1135 7.32678,-2.32425 10.96875,-3.53125 4.68421,-1.5524 9.30138,-3.2418 14,-4.75 4.46904,-1.4346 8.93278,-2.88745 13.46875,-4.09375 7.06478,-1.8789 14.26711,-3.19775 21.375,-4.90625 7.16127,-1.7214 14.28529,-3.6163 21.4375,-5.375 8.57748,-2.1091 17.14965,-4.20495 25.75,-6.21875 10.69486,-2.5043 21.41485,-4.98485 32.15625,-7.28125 8.41713,-1.7996 16.85214,-3.50985 25.3125,-5.09375 8.39815,-1.5722 16.87431,-2.6872 25.25,-4.375 4.79429,-0.9661 9.59272,-1.99975 14.3125,-3.28125 7.48323,-2.0319 14.84264,-4.514 22.1875,-7 8.12197,-2.749 16.14945,-5.7645 24.1875,-8.75 11.16408,-4.1465 22.33843,-8.24385 33.375,-12.71875 9.05897,-3.6731 18.00929,-7.61335 26.9375,-11.59375 5.60748,-2.4999 11.19707,-5.03465 16.71875,-7.71875 7.30517,-3.5511 14.55657,-7.20455 21.6875,-11.09375 5.38085,-2.9347 10.56095,-6.21985 15.90625,-9.21875 6.9233,-3.8842 13.8659,-7.7678 20.9375,-11.375 4.9765,-2.5386 10.0386,-4.90805 15.125,-7.21875 2.0325,-0.9234 4.0626,-1.88135 6.1562,-2.65625 5.8727,-2.1734 11.9214,-3.85675 17.9375,-5.59375 3.8917,-1.1236 7.8697,-1.9631 11.75,-3.125 2.5183,-0.754 4.9185,-1.8628 7.4688,-2.5 6.109,-1.5262 12.4112,-2.13715 18.625,-3.15625 3.4484,-0.5656 6.8828,-1.142 10.3437,-1.625 1.8265,-0.2549 3.6589,-0.581 5.5,-0.6875 1.1556,-0.0668 2.3092,-0.1184 3.4688,-0.125 z"
         style="fill:#000000;stroke:#000000;stroke-width:1px;stroke-linecap:butt;stroke-linejoin:miter;stroke-opacity:1;display:inline"
         inkscape:connector-curvature="0" />
      <path
         transform="matrix(0.60219359,0,0,0.60219359,606.38247,695.34353)"
         d="m -388.00001,160.09448 -58.75324,0.0818 -11.95147,57.52488 -47.58047,-34.46807 -43.48122,39.51371 L -568,166.89448 l -58.40262,6.40965 18.07791,-55.90295 -51.01621,-29.142686 47.48426,-34.600501 -24.14333,-53.56350539 58.75324,-0.08184404 11.95147,-57.52488357 47.58047,34.468075 43.48122,-39.513712 18.23359,55.8523609 58.40262,-6.4096449 -18.07791,55.902943 51.01621,29.142689 -47.48426,34.600499 z"
         inkscape:randomized="0"
         inkscape:rounded="0"
         inkscape:flatsided="false"
         sodipodi:arg2="0.88712541"
         sodipodi:arg1="0.57296614"
         sodipodi:r2="103.29685"
         sodipodi:r1="147.56693"
         sodipodi:cy="80.094482"
         sodipodi:cx="-512"
         sodipodi:sides="10"
         id="path3916"
         style="fill:#ffffff;fill-opacity:1;stroke:#000000;stroke-width:19.92714691;stroke-linecap:round;stroke-linejoin:round;stroke-miterlimit:4;stroke-opacity:1;stroke-dasharray:none;display:inline"
         sodipodi:type="star" />
    </g>
  </g>
  <g
     inkscape:groupmode="layer"
     id="layer3"
     inkscape:label="Sf"
     style="display:none" />
  <g
     inkscape:groupmode="layer"
     id="layer2"
     inkscape:label="Sfumature"
     style="display:none" />
</svg>
