<?xml version="1.0" encoding="UTF-8" standalone="no"?>
<!-- Created with Inkscape (http://www.inkscape.org/) -->

<svg
   xmlns:dc="http://purl.org/dc/elements/1.1/"
   xmlns:cc="http://creativecommons.org/ns#"
   xmlns:rdf="http://www.w3.org/1999/02/22-rdf-syntax-ns#"
   xmlns:svg="http://www.w3.org/2000/svg"
   xmlns="http://www.w3.org/2000/svg"
   xmlns:sodipodi="http://sodipodi.sourceforge.net/DTD/sodipodi-0.dtd"
   xmlns:inkscape="http://www.inkscape.org/namespaces/inkscape"
   width="1052.3622"
   height="744.09448"
   id="svg2"
   version="1.1"
   inkscape:version="0.48.3.1 r9886"
   sodipodi:docname="play_pausa.svg"
   inkscape:export-filename="/home/paolo/programmazione/unicaradio-apps/apps/docs/grafica/v2/pause_ldpi.png"
   inkscape:export-xdpi="57.009998"
   inkscape:export-ydpi="57.009998">
  <defs
     id="defs4">
    <marker
       inkscape:stockid="TriangleOutL"
       orient="auto"
       refY="0.0"
       refX="0.0"
       id="TriangleOutL"
       style="overflow:visible">
      <path
         id="path4168"
         d="M 5.77,0.0 L -2.88,5.0 L -2.88,-5.0 L 5.77,0.0 z "
         style="fill-rule:evenodd;stroke:#000000;stroke-width:1.0pt"
         transform="scale(0.8)" />
    </marker>
    <marker
       inkscape:stockid="Arrow2Lend"
       orient="auto"
       refY="0.0"
       refX="0.0"
       id="Arrow2Lend"
       style="overflow:visible;">
      <path
         id="path4047"
         style="fill-rule:evenodd;stroke-width:0.62500000;stroke-linejoin:round;"
         d="M 8.7185878,4.0337352 L -2.2072895,0.016013256 L 8.7185884,-4.0017078 C 6.9730900,-1.6296469 6.9831476,1.6157441 8.7185878,4.0337352 z "
         transform="scale(1.1) rotate(180) translate(1,0)" />
    </marker>
    <filter
       inkscape:collect="always"
       id="filter3823"
       x="-0.15671642"
       width="1.3134328"
       y="-0.15671642"
       height="1.3134328"
       color-interpolation-filters="sRGB">
      <feGaussianBlur
         inkscape:collect="always"
         stdDeviation="3.9576873"
         id="feGaussianBlur3825" />
    </filter>
    <filter
       inkscape:collect="always"
       id="filter3845"
       color-interpolation-filters="sRGB">
      <feGaussianBlur
         inkscape:collect="always"
         stdDeviation="0.90913731"
         id="feGaussianBlur3847" />
    </filter>
    <filter
       inkscape:collect="always"
       id="filter3877"
       color-interpolation-filters="sRGB">
      <feGaussianBlur
         inkscape:collect="always"
         stdDeviation="0.95459419"
         id="feGaussianBlur3879" />
    </filter>
  </defs>
  <sodipodi:namedview
     id="base"
     pagecolor="#ffffff"
     bordercolor="#666666"
     borderopacity="1.0"
     inkscape:pageopacity="0.0"
     inkscape:pageshadow="2"
     inkscape:zoom="0.98994949"
     inkscape:cx="327.07825"
     inkscape:cy="360.68166"
     inkscape:document-units="px"
     inkscape:current-layer="layer1"
     showgrid="false"
     inkscape:window-width="1920"
     inkscape:window-height="1025"
     inkscape:window-x="-2"
     inkscape:window-y="-3"
     inkscape:window-maximized="1"
     inkscape:snap-nodes="false" />
  <metadata
     id="metadata7">
    <rdf:RDF>
      <cc:Work
         rdf:about="">
        <dc:format>image/svg+xml</dc:format>
        <dc:type
           rdf:resource="http://purl.org/dc/dcmitype/StillImage" />
        <dc:title></dc:title>
      </cc:Work>
    </rdf:RDF>
  </metadata>
  <g
     inkscape:label="Livello 1"
     inkscape:groupmode="layer"
     id="layer1"
     transform="translate(0,-308.2677)">
    <g
       id="g3915"
       transform="translate(17.142857,537.85715)"
       inkscape:export-filename="/home/paolo/programmazione/unicaradio-apps/apps/docs/grafica/v2/pause_ldpi.png"
       inkscape:export-xdpi="74.550003"
       inkscape:export-ydpi="74.550003">
      <path
         transform="translate(-55.55839,-19.697974)"
         d="m 161.62441,78.827667 c 0,26.360393 -21.36932,47.729713 -47.72971,47.729713 -26.360392,0 -47.729711,-21.36932 -47.729711,-47.729713 0,-26.360391 21.369319,-47.729709 47.729711,-47.729709 26.36039,0 47.72971,21.369318 47.72971,47.729709 z"
         sodipodi:ry="47.72971"
         sodipodi:rx="47.72971"
         sodipodi:cy="78.827667"
         sodipodi:cx="113.8947"
         id="path2985"
         style="fill:#ffffff;fill-opacity:1;stroke:#000000;stroke-opacity:1;filter:url(#filter3877)"
         sodipodi:type="arc" />
      <path
         transform="matrix(1.2889967,0,0,1.2889967,-88.799106,-46.059635)"
         d="m 144.45182,81.605583 c 0,16.736756 -13.56782,30.304577 -30.30458,30.304577 -16.736756,0 -30.304577,-13.567821 -30.304577,-30.304577 0,-16.736755 13.567821,-30.304577 30.304577,-30.304577 16.73676,0 30.30458,13.567822 30.30458,30.304577 z"
         sodipodi:ry="30.304577"
         sodipodi:rx="30.304577"
         sodipodi:cy="81.605583"
         sodipodi:cx="114.14724"
         id="path3755"
         style="opacity:0.80303034;fill:#000000;fill-opacity:1;stroke:none;filter:url(#filter3823)"
         sodipodi:type="arc" />
      <path
         sodipodi:type="arc"
         style="fill:#cc0000;fill-opacity:1;stroke:none;filter:url(#filter3845)"
         id="path3827"
         sodipodi:cx="114.14724"
         sodipodi:cy="81.605583"
         sodipodi:rx="30.304577"
         sodipodi:ry="30.304577"
         d="m 144.45182,81.605583 c 0,16.736756 -13.56782,30.304577 -30.30458,30.304577 -16.736756,0 -30.304577,-13.567821 -30.304577,-30.304577 0,-16.736755 13.567821,-30.304577 30.304577,-30.304577 16.73676,0 30.30458,13.567822 30.30458,30.304577 z"
         transform="matrix(1.1549411,0,0,1.1549411,-73.497029,-35.11995)" />
      <path
         transform="matrix(0.59957596,0,0,0.59957596,-96.120934,16.257577)"
         inkscape:transform-center-x="-4.6188001"
         d="m 287.39253,71.504059 -46.22069,26.685526 0,-53.371052 z"
         inkscape:randomized="0"
         inkscape:rounded="0"
         inkscape:flatsided="true"
         sodipodi:arg2="1.0471976"
         sodipodi:arg1="0"
         sodipodi:r2="15.406896"
         sodipodi:r1="30.813791"
         sodipodi:cy="71.504059"
         sodipodi:cx="256.57874"
         sodipodi:sides="3"
         id="path3849"
         style="fill:#ffffff;fill-opacity:1;stroke:none"
         sodipodi:type="star" />
    </g>
    <g
       id="g4091"
       transform="translate(13.571429,189.28572)"
       inkscape:export-filename="/mnt/storage/paolo/programmazione/unicaradio-apps/apps/docs/grafica/v2/anim/pause_0.png"
       inkscape:export-xdpi="57.009998"
       inkscape:export-ydpi="57.009998">
      <path
         sodipodi:type="arc"
         style="fill:#ffffff;fill-opacity:1;stroke:#000000;stroke-opacity:1;filter:url(#filter3877)"
         id="path3967"
         sodipodi:cx="113.8947"
         sodipodi:cy="78.827667"
         sodipodi:rx="47.72971"
         sodipodi:ry="47.72971"
         d="m 161.62441,78.827667 c 0,26.360393 -21.36932,47.729713 -47.72971,47.729713 -26.360392,0 -47.729711,-21.36932 -47.729711,-47.729713 0,-26.360391 21.369319,-47.729709 47.729711,-47.729709 26.36039,0 47.72971,21.369318 47.72971,47.729709 z"
         transform="translate(-54.844104,116.7306)" />
      <path
         sodipodi:type="arc"
         style="opacity:0.80303034;fill:#000000;fill-opacity:1;stroke:none;filter:url(#filter3823)"
         id="path3969"
         sodipodi:cx="114.14724"
         sodipodi:cy="81.605583"
         sodipodi:rx="30.304577"
         sodipodi:ry="30.304577"
         d="m 144.45182,81.605583 c 0,16.736756 -13.56782,30.304577 -30.30458,30.304577 -16.736756,0 -30.304577,-13.567821 -30.304577,-30.304577 0,-16.736755 13.567821,-30.304577 30.304577,-30.304577 16.73676,0 30.30458,13.567822 30.30458,30.304577 z"
         transform="matrix(1.2889967,0,0,1.2889967,-88.08482,90.368935)" />
      <path
         transform="matrix(1.1549411,0,0,1.1549411,-72.782743,101.30862)"
         d="m 144.45182,81.605583 c 0,16.736756 -13.56782,30.304577 -30.30458,30.304577 -16.736756,0 -30.304577,-13.567821 -30.304577,-30.304577 0,-16.736755 13.567821,-30.304577 30.304577,-30.304577 16.73676,0 30.30458,13.567822 30.30458,30.304577 z"
         sodipodi:ry="30.304577"
         sodipodi:rx="30.304577"
         sodipodi:cy="81.605583"
         sodipodi:cx="114.14724"
         id="path3971"
         style="fill:#cc0000;fill-opacity:1;stroke:none;filter:url(#filter3845)"
         sodipodi:type="arc" />
      <g
         transform="translate(-1.3098781,1.7305948)"
         id="g3985">
        <rect
           style="fill:#ffffff;fill-opacity:1;stroke:none"
           id="rect3851"
           width="8"
           height="32"
           x="47.360474"
           y="177.82767" />
        <rect
           y="177.82767"
           x="65.360474"
           height="32"
           width="8"
           id="rect3979"
           style="fill:#ffffff;fill-opacity:1;stroke:none" />
      </g>
    </g>
    <g
       id="g3834"
       inkscape:export-filename="/mnt/storage/paolo/programmazione/unicaradio-apps/apps/docs/grafica/v2/anim/pause_1.png"
       inkscape:export-xdpi="57.009998"
       inkscape:export-ydpi="57.009998"
       transform="translate(9.2857143,323.57143)">
      <path
         transform="translate(68.790408,-23.651927)"
         sodipodi:type="arc"
         style="fill:#ffffff;fill-opacity:1;stroke:#000000;stroke-opacity:1;filter:url(#filter3877)"
         id="path3883"
         sodipodi:cx="113.8947"
         sodipodi:cy="78.827667"
         sodipodi:rx="47.72971"
         sodipodi:ry="47.72971"
         d="m 161.62441,78.827667 c 0,26.360393 -21.36932,47.729713 -47.72971,47.729713 -26.360392,0 -47.729711,-21.36932 -47.729711,-47.729713 0,-26.360391 21.369319,-47.729709 47.729711,-47.729709 26.36039,0 47.72971,21.369318 47.72971,47.729709 z" />
      <path
         sodipodi:type="arc"
         style="opacity:0.80303034;fill:#000000;fill-opacity:1;stroke:none;filter:url(#filter3823)"
         id="path3885"
         sodipodi:cx="114.14724"
         sodipodi:cy="81.605583"
         sodipodi:rx="30.304577"
         sodipodi:ry="30.304577"
         d="m 144.45182,81.605583 c 0,16.736756 -13.56782,30.304577 -30.30458,30.304577 -16.736756,0 -30.304577,-13.567821 -30.304577,-30.304577 0,-16.736755 13.567821,-30.304577 30.304577,-30.304577 16.73676,0 30.30458,13.567822 30.30458,30.304577 z"
         transform="matrix(1.2889967,0,0,1.2889967,35.549688,-50.013587)" />
      <path
         transform="matrix(1.1549411,0,0,1.1549411,50.851768,-39.073902)"
         d="m 144.45182,81.605583 c 0,16.736756 -13.56782,30.304577 -30.30458,30.304577 -16.736756,0 -30.304577,-13.567821 -30.304577,-30.304577 0,-16.736755 13.567821,-30.304577 30.304577,-30.304577 16.73676,0 30.30458,13.567822 30.30458,30.304577 z"
         sodipodi:ry="30.304577"
         sodipodi:rx="30.304577"
         sodipodi:cy="81.605583"
         sodipodi:cx="114.14724"
         id="path3887"
         style="fill:#cc0000;fill-opacity:1;stroke:none;filter:url(#filter3845)"
         sodipodi:type="arc" />
      <path
         transform="matrix(1.1015935,0,0,1.1015935,-276.05741,-37.780583)"
         d="m 456.08388,84.383507 c 0,21.897253 -17.75123,39.648483 -39.64849,39.648483 -21.89725,0 -39.64848,-17.75123 -39.64848,-39.648483 0,-21.897255 17.75123,-39.648487 39.64848,-39.648487 21.89726,0 39.64849,17.751232 39.64849,39.648487 z"
         sodipodi:ry="39.648487"
         sodipodi:rx="39.648487"
         sodipodi:cy="84.383507"
         sodipodi:cx="416.43539"
         id="path3891"
         style="fill:none;stroke:#ff0000;stroke-width:1.81555176;stroke-miterlimit:4;stroke-opacity:0.17647059;stroke-dasharray:none"
         sodipodi:type="arc" />
      <g
         id="g4061"
         transform="translate(122.32463,-138.65193)">
        <rect
           y="177.82767"
           x="47.360474"
           height="32"
           width="8"
           id="rect4063"
           style="fill:#ffffff;fill-opacity:1;stroke:none" />
        <rect
           style="fill:#ffffff;fill-opacity:1;stroke:none"
           id="rect4065"
           width="8"
           height="32"
           x="65.360474"
           y="177.82767" />
      </g>
    </g>
    <g
       id="g3843"
       inkscape:export-filename="/mnt/storage/paolo/programmazione/unicaradio-apps/apps/docs/grafica/v2/anim/pause_2.png"
       inkscape:export-xdpi="57.009998"
       inkscape:export-ydpi="57.009998"
       transform="translate(9.2857143,323.57143)">
      <path
         d="m 161.62441,78.827667 c 0,26.360393 -21.36932,47.729713 -47.72971,47.729713 -26.360392,0 -47.729711,-21.36932 -47.729711,-47.729713 0,-26.360391 21.369319,-47.729709 47.729711,-47.729709 26.36039,0 47.72971,21.369318 47.72971,47.729709 z"
         sodipodi:ry="47.72971"
         sodipodi:rx="47.72971"
         sodipodi:cy="78.827667"
         sodipodi:cx="113.8947"
         id="path3895"
         style="fill:#ffffff;fill-opacity:1;stroke:#000000;stroke-opacity:1;filter:url(#filter3877)"
         sodipodi:type="arc"
         transform="translate(202.13055,-22.641775)" />
      <path
         transform="matrix(1.2889967,0,0,1.2889967,168.88983,-49.003435)"
         d="m 144.45182,81.605583 c 0,16.736756 -13.56782,30.304577 -30.30458,30.304577 -16.736756,0 -30.304577,-13.567821 -30.304577,-30.304577 0,-16.736755 13.567821,-30.304577 30.304577,-30.304577 16.73676,0 30.30458,13.567822 30.30458,30.304577 z"
         sodipodi:ry="30.304577"
         sodipodi:rx="30.304577"
         sodipodi:cy="81.605583"
         sodipodi:cx="114.14724"
         id="path3897"
         style="opacity:0.80303034;fill:#000000;fill-opacity:1;stroke:none;filter:url(#filter3823)"
         sodipodi:type="arc" />
      <path
         sodipodi:type="arc"
         style="fill:#cc0000;fill-opacity:1;stroke:none;filter:url(#filter3845)"
         id="path3899"
         sodipodi:cx="114.14724"
         sodipodi:cy="81.605583"
         sodipodi:rx="30.304577"
         sodipodi:ry="30.304577"
         d="m 144.45182,81.605583 c 0,16.736756 -13.56782,30.304577 -30.30458,30.304577 -16.736756,0 -30.304577,-13.567821 -30.304577,-30.304577 0,-16.736755 13.567821,-30.304577 30.304577,-30.304577 16.73676,0 30.30458,13.567822 30.30458,30.304577 z"
         transform="matrix(1.1549411,0,0,1.1549411,184.19191,-38.06375)" />
      <path
         sodipodi:type="arc"
         style="fill:none;stroke:#ff0000;stroke-width:1.81555176;stroke-miterlimit:4;stroke-opacity:0.35294118;stroke-dasharray:none"
         id="path3903"
         sodipodi:cx="416.43539"
         sodipodi:cy="84.383507"
         sodipodi:rx="39.648487"
         sodipodi:ry="39.648487"
         d="m 456.08388,84.383507 c 0,21.897253 -17.75123,39.648483 -39.64849,39.648483 -21.89725,0 -39.64848,-17.75123 -39.64848,-39.648483 0,-21.897255 17.75123,-39.648487 39.64848,-39.648487 21.89726,0 39.64849,17.751232 39.64849,39.648487 z"
         transform="matrix(1.1015935,0,0,1.1015935,-142.71727,-36.770431)" />
      <g
         transform="translate(255.66477,-137.64178)"
         id="g4067">
        <rect
           style="fill:#ffffff;fill-opacity:1;stroke:none"
           id="rect4069"
           width="8"
           height="32"
           x="47.360474"
           y="177.82767" />
        <rect
           y="177.82767"
           x="65.360474"
           height="32"
           width="8"
           id="rect4071"
           style="fill:#ffffff;fill-opacity:1;stroke:none" />
      </g>
    </g>
    <g
       id="g3859"
       inkscape:export-filename="/mnt/storage/paolo/programmazione/unicaradio-apps/apps/docs/grafica/v2/anim/pause_3.png"
       inkscape:export-xdpi="57.009998"
       inkscape:export-ydpi="57.009998"
       transform="translate(9.2857143,323.57143)">
      <path
         transform="translate(315.77271,-23.651927)"
         sodipodi:type="arc"
         style="fill:#ffffff;fill-opacity:1;stroke:#000000;stroke-opacity:1;filter:url(#filter3877)"
         id="path3905"
         sodipodi:cx="113.8947"
         sodipodi:cy="78.827667"
         sodipodi:rx="47.72971"
         sodipodi:ry="47.72971"
         d="m 161.62441,78.827667 c 0,26.360393 -21.36932,47.729713 -47.72971,47.729713 -26.360392,0 -47.729711,-21.36932 -47.729711,-47.729713 0,-26.360391 21.369319,-47.729709 47.729711,-47.729709 26.36039,0 47.72971,21.369318 47.72971,47.729709 z" />
      <path
         sodipodi:type="arc"
         style="opacity:0.80303034;fill:#000000;fill-opacity:1;stroke:none;filter:url(#filter3823)"
         id="path3907"
         sodipodi:cx="114.14724"
         sodipodi:cy="81.605583"
         sodipodi:rx="30.304577"
         sodipodi:ry="30.304577"
         d="m 144.45182,81.605583 c 0,16.736756 -13.56782,30.304577 -30.30458,30.304577 -16.736756,0 -30.304577,-13.567821 -30.304577,-30.304577 0,-16.736755 13.567821,-30.304577 30.304577,-30.304577 16.73676,0 30.30458,13.567822 30.30458,30.304577 z"
         transform="matrix(1.2889967,0,0,1.2889967,282.53199,-50.013587)" />
      <path
         transform="matrix(1.1549411,0,0,1.1549411,297.83407,-39.073902)"
         d="m 144.45182,81.605583 c 0,16.736756 -13.56782,30.304577 -30.30458,30.304577 -16.736756,0 -30.304577,-13.567821 -30.304577,-30.304577 0,-16.736755 13.567821,-30.304577 30.304577,-30.304577 16.73676,0 30.30458,13.567822 30.30458,30.304577 z"
         sodipodi:ry="30.304577"
         sodipodi:rx="30.304577"
         sodipodi:cy="81.605583"
         sodipodi:cx="114.14724"
         id="path3909"
         style="fill:#cc0000;fill-opacity:1;stroke:none;filter:url(#filter3845)"
         sodipodi:type="arc" />
      <path
         transform="matrix(1.1015935,0,0,1.1015935,-29.075114,-37.780583)"
         d="m 456.08388,84.383507 c 0,21.897253 -17.75123,39.648483 -39.64849,39.648483 -21.89725,0 -39.64848,-17.75123 -39.64848,-39.648483 0,-21.897255 17.75123,-39.648487 39.64848,-39.648487 21.89726,0 39.64849,17.751232 39.64849,39.648487 z"
         sodipodi:ry="39.648487"
         sodipodi:rx="39.648487"
         sodipodi:cy="84.383507"
         sodipodi:cx="416.43539"
         id="path3913"
         style="fill:none;stroke:#ff0000;stroke-width:1.81555176;stroke-miterlimit:4;stroke-opacity:0.52941165;stroke-dasharray:none"
         sodipodi:type="arc" />
      <g
         id="g4073"
         transform="translate(369.30693,-138.65193)">
        <rect
           y="177.82767"
           x="47.360474"
           height="32"
           width="8"
           id="rect4075"
           style="fill:#ffffff;fill-opacity:1;stroke:none" />
        <rect
           style="fill:#ffffff;fill-opacity:1;stroke:none"
           id="rect4077"
           width="8"
           height="32"
           x="65.360474"
           y="177.82767" />
      </g>
    </g>
    <g
       id="g3875"
       inkscape:export-filename="/mnt/storage/paolo/programmazione/unicaradio-apps/apps/docs/grafica/v2/anim/pause_4.png"
       inkscape:export-xdpi="57.009998"
       inkscape:export-ydpi="57.009998"
       transform="translate(9.2857143,323.57143)">
      <path
         d="m 161.62441,78.827667 c 0,26.360393 -21.36932,47.729713 -47.72971,47.729713 -26.360392,0 -47.729711,-21.36932 -47.729711,-47.729713 0,-26.360391 21.369319,-47.729709 47.729711,-47.729709 26.36039,0 47.72971,21.369318 47.72971,47.729709 z"
         sodipodi:ry="47.72971"
         sodipodi:rx="47.72971"
         sodipodi:cy="78.827667"
         sodipodi:cx="113.8947"
         id="path3935"
         style="fill:#ffffff;fill-opacity:1;stroke:#000000;stroke-opacity:1;filter:url(#filter3877)"
         sodipodi:type="arc"
         transform="translate(432.44533,-26.177308)" />
      <path
         transform="matrix(1.2889967,0,0,1.2889967,399.20461,-52.538968)"
         d="m 144.45182,81.605583 c 0,16.736756 -13.56782,30.304577 -30.30458,30.304577 -16.736756,0 -30.304577,-13.567821 -30.304577,-30.304577 0,-16.736755 13.567821,-30.304577 30.304577,-30.304577 16.73676,0 30.30458,13.567822 30.30458,30.304577 z"
         sodipodi:ry="30.304577"
         sodipodi:rx="30.304577"
         sodipodi:cy="81.605583"
         sodipodi:cx="114.14724"
         id="path3937"
         style="opacity:0.80303034;fill:#000000;fill-opacity:1;stroke:none;filter:url(#filter3823)"
         sodipodi:type="arc" />
      <path
         sodipodi:type="arc"
         style="fill:#cc0000;fill-opacity:1;stroke:none;filter:url(#filter3845)"
         id="path3939"
         sodipodi:cx="114.14724"
         sodipodi:cy="81.605583"
         sodipodi:rx="30.304577"
         sodipodi:ry="30.304577"
         d="m 144.45182,81.605583 c 0,16.736756 -13.56782,30.304577 -30.30458,30.304577 -16.736756,0 -30.304577,-13.567821 -30.304577,-30.304577 0,-16.736755 13.567821,-30.304577 30.304577,-30.304577 16.73676,0 30.30458,13.567822 30.30458,30.304577 z"
         transform="matrix(1.1549411,0,0,1.1549411,414.50669,-41.599283)" />
      <path
         sodipodi:type="arc"
         style="fill:none;stroke:#ff0000;stroke-width:1.81555176;stroke-miterlimit:4;stroke-opacity:0.70588235;stroke-dasharray:none"
         id="path3943"
         sodipodi:cx="416.43539"
         sodipodi:cy="84.383507"
         sodipodi:rx="39.648487"
         sodipodi:ry="39.648487"
         d="m 456.08388,84.383507 c 0,21.897253 -17.75123,39.648483 -39.64849,39.648483 -21.89725,0 -39.64848,-17.75123 -39.64848,-39.648483 0,-21.897255 17.75123,-39.648487 39.64848,-39.648487 21.89726,0 39.64849,17.751232 39.64849,39.648487 z"
         transform="matrix(1.1015935,0,0,1.1015935,87.597505,-40.305964)" />
      <g
         transform="translate(485.97955,-141.17731)"
         id="g4079">
        <rect
           style="fill:#ffffff;fill-opacity:1;stroke:none"
           id="rect4081"
           width="8"
           height="32"
           x="47.360474"
           y="177.82767" />
        <rect
           y="177.82767"
           x="65.360474"
           height="32"
           width="8"
           id="rect4083"
           style="fill:#ffffff;fill-opacity:1;stroke:none" />
      </g>
    </g>
    <g
       id="g3891"
       inkscape:export-filename="/mnt/storage/paolo/programmazione/unicaradio-apps/apps/docs/grafica/v2/anim/pause_5.png"
       inkscape:export-xdpi="57.009998"
       inkscape:export-ydpi="57.009998"
       transform="translate(9.2857143,323.57143)">
      <path
         transform="translate(548.61287,-23.651927)"
         sodipodi:type="arc"
         style="fill:#ffffff;fill-opacity:1;stroke:#000000;stroke-opacity:1;filter:url(#filter3877)"
         id="path3955"
         sodipodi:cx="113.8947"
         sodipodi:cy="78.827667"
         sodipodi:rx="47.72971"
         sodipodi:ry="47.72971"
         d="m 161.62441,78.827667 c 0,26.360393 -21.36932,47.729713 -47.72971,47.729713 -26.360392,0 -47.729711,-21.36932 -47.729711,-47.729713 0,-26.360391 21.369319,-47.729709 47.729711,-47.729709 26.36039,0 47.72971,21.369318 47.72971,47.729709 z" />
      <path
         sodipodi:type="arc"
         style="opacity:0.80303034;fill:#000000;fill-opacity:1;stroke:none;filter:url(#filter3823)"
         id="path3957"
         sodipodi:cx="114.14724"
         sodipodi:cy="81.605583"
         sodipodi:rx="30.304577"
         sodipodi:ry="30.304577"
         d="m 144.45182,81.605583 c 0,16.736756 -13.56782,30.304577 -30.30458,30.304577 -16.736756,0 -30.304577,-13.567821 -30.304577,-30.304577 0,-16.736755 13.567821,-30.304577 30.304577,-30.304577 16.73676,0 30.30458,13.567822 30.30458,30.304577 z"
         transform="matrix(1.2889967,0,0,1.2889967,515.37215,-50.013587)" />
      <path
         transform="matrix(1.1549411,0,0,1.1549411,530.67423,-39.073902)"
         d="m 144.45182,81.605583 c 0,16.736756 -13.56782,30.304577 -30.30458,30.304577 -16.736756,0 -30.304577,-13.567821 -30.304577,-30.304577 0,-16.736755 13.567821,-30.304577 30.304577,-30.304577 16.73676,0 30.30458,13.567822 30.30458,30.304577 z"
         sodipodi:ry="30.304577"
         sodipodi:rx="30.304577"
         sodipodi:cy="81.605583"
         sodipodi:cx="114.14724"
         id="path3959"
         style="fill:#cc0000;fill-opacity:1;stroke:none;filter:url(#filter3845)"
         sodipodi:type="arc" />
      <path
         transform="matrix(1.1015935,0,0,1.1015935,203.76505,-37.780583)"
         d="m 456.08388,84.383507 c 0,21.897253 -17.75123,39.648483 -39.64849,39.648483 -21.89725,0 -39.64848,-17.75123 -39.64848,-39.648483 0,-21.897255 17.75123,-39.648487 39.64848,-39.648487 21.89726,0 39.64849,17.751232 39.64849,39.648487 z"
         sodipodi:ry="39.648487"
         sodipodi:rx="39.648487"
         sodipodi:cy="84.383507"
         sodipodi:cx="416.43539"
         id="path3963"
         style="fill:none;stroke:#ff0000;stroke-width:1.81555176;stroke-miterlimit:4;stroke-opacity:0.98039216;stroke-dasharray:none"
         sodipodi:type="arc" />
      <g
         id="g4085"
         transform="translate(602.14709,-138.65193)">
        <rect
           y="177.82767"
           x="47.360474"
           height="32"
           width="8"
           id="rect4087"
           style="fill:#ffffff;fill-opacity:1;stroke:none" />
        <rect
           style="fill:#ffffff;fill-opacity:1;stroke:none"
           id="rect4089"
           width="8"
           height="32"
           x="65.360474"
           y="177.82767" />
      </g>
    </g>
    <g
       id="g3842"
       transform="translate(12.142857,309.28571)">
      <path
         sodipodi:type="arc"
         style="fill:#ffffff;fill-opacity:1;stroke:#000000;stroke-opacity:1;filter:url(#filter3877)"
         id="path3042"
         sodipodi:cx="113.8947"
         sodipodi:cy="78.827667"
         sodipodi:rx="47.72971"
         sodipodi:ry="47.72971"
         d="m 161.62441,78.827667 c 0,26.360393 -21.36932,47.729713 -47.72971,47.729713 -26.360392,0 -47.729711,-21.36932 -47.729711,-47.729713 0,-26.360391 21.369319,-47.729709 47.729711,-47.729709 26.36039,0 47.72971,21.369318 47.72971,47.729709 z"
         transform="translate(-49.844104,316.7306)" />
      <path
         sodipodi:type="arc"
         style="opacity:0.80303034;fill:#000000;fill-opacity:1;stroke:none;filter:url(#filter3823)"
         id="path3044"
         sodipodi:cx="114.14724"
         sodipodi:cy="81.605583"
         sodipodi:rx="30.304577"
         sodipodi:ry="30.304577"
         d="m 144.45182,81.605583 c 0,16.736756 -13.56782,30.304577 -30.30458,30.304577 -16.736756,0 -30.304577,-13.567821 -30.304577,-30.304577 0,-16.736755 13.567821,-30.304577 30.304577,-30.304577 16.73676,0 30.30458,13.567822 30.30458,30.304577 z"
         transform="matrix(1.2889967,0,0,1.2889967,-83.08482,290.36893)" />
      <path
         transform="matrix(1.1549411,0,0,1.1549411,-67.782743,301.30862)"
         d="m 144.45182,81.605583 c 0,16.736756 -13.56782,30.304577 -30.30458,30.304577 -16.736756,0 -30.304577,-13.567821 -30.304577,-30.304577 0,-16.736755 13.567821,-30.304577 30.304577,-30.304577 16.73676,0 30.30458,13.567822 30.30458,30.304577 z"
         sodipodi:ry="30.304577"
         sodipodi:rx="30.304577"
         sodipodi:cy="81.605583"
         sodipodi:cx="114.14724"
         id="path3046"
         style="fill:#ff751b;fill-opacity:1;stroke:none;filter:url(#filter3845)"
         sodipodi:type="arc" />
      <path
         sodipodi:type="star"
         style="fill:#ffffff;fill-opacity:1;stroke:none"
         id="path3048"
         sodipodi:sides="3"
         sodipodi:cx="256.57874"
         sodipodi:cy="71.504059"
         sodipodi:r1="30.813791"
         sodipodi:r2="15.406896"
         sodipodi:arg1="0"
         sodipodi:arg2="1.0471976"
         inkscape:flatsided="true"
         inkscape:rounded="0"
         inkscape:randomized="0"
         d="m 287.39253,71.504059 -46.22069,26.685526 0,-53.371052 z"
         inkscape:transform-center-x="-4.6188001"
         transform="matrix(0.59957596,0,0,0.59957596,-90.406648,352.68615)" />
    </g>
    <g
       id="g3848"
       transform="translate(8.5714286,314.28571)">
      <path
         transform="translate(-46.272675,101.7306)"
         d="m 161.62441,78.827667 c 0,26.360393 -21.36932,47.729713 -47.72971,47.729713 -26.360392,0 -47.729711,-21.36932 -47.729711,-47.729713 0,-26.360391 21.369319,-47.729709 47.729711,-47.729709 26.36039,0 47.72971,21.369318 47.72971,47.729709 z"
         sodipodi:ry="47.72971"
         sodipodi:rx="47.72971"
         sodipodi:cy="78.827667"
         sodipodi:cx="113.8947"
         id="path3824"
         style="fill:#ffffff;fill-opacity:1;stroke:#000000;stroke-opacity:1;filter:url(#filter3877)"
         sodipodi:type="arc" />
      <path
         transform="matrix(1.2889967,0,0,1.2889967,-79.513391,75.368939)"
         d="m 144.45182,81.605583 c 0,16.736756 -13.56782,30.304577 -30.30458,30.304577 -16.736756,0 -30.304577,-13.567821 -30.304577,-30.304577 0,-16.736755 13.567821,-30.304577 30.304577,-30.304577 16.73676,0 30.30458,13.567822 30.30458,30.304577 z"
         sodipodi:ry="30.304577"
         sodipodi:rx="30.304577"
         sodipodi:cy="81.605583"
         sodipodi:cx="114.14724"
         id="path3826"
         style="opacity:0.80303034;fill:#000000;fill-opacity:1;stroke:none;filter:url(#filter3823)"
         sodipodi:type="arc" />
      <path
         sodipodi:type="arc"
         style="fill:#ff751b;fill-opacity:1;stroke:none;filter:url(#filter3845)"
         id="path3828"
         sodipodi:cx="114.14724"
         sodipodi:cy="81.605583"
         sodipodi:rx="30.304577"
         sodipodi:ry="30.304577"
         d="m 144.45182,81.605583 c 0,16.736756 -13.56782,30.304577 -30.30458,30.304577 -16.736756,0 -30.304577,-13.567821 -30.304577,-30.304577 0,-16.736755 13.567821,-30.304577 30.304577,-30.304577 16.73676,0 30.30458,13.567822 30.30458,30.304577 z"
         transform="matrix(1.1549411,0,0,1.1549411,-64.211314,86.308624)" />
      <g
         id="g3830"
         transform="translate(7.2615505,-13.269401)">
        <rect
           y="177.82767"
           x="47.360474"
           height="32"
           width="8"
           id="rect3832"
           style="fill:#ffffff;fill-opacity:1;stroke:none" />
        <rect
           style="fill:#ffffff;fill-opacity:1;stroke:none"
           id="rect3834"
           width="8"
           height="32"
           x="65.360474"
           y="177.82767" />
      </g>
    </g>
    <g
       id="g5997"
       inkscape:export-filename="/mnt/storage/paolo/programmazione/unicaradio-apps/apps/docs/grafica/v2/wait.png"
       inkscape:export-xdpi="153.49089"
       inkscape:export-ydpi="153.49089">
      <path
         transform="translate(-35.558388,735.30204)"
         d="m 161.62441,78.827667 a 47.72971,47.72971 0 1 1 -95.459421,0 47.72971,47.72971 0 1 1 95.459421,0 z"
         sodipodi:ry="47.72971"
         sodipodi:rx="47.72971"
         sodipodi:cy="78.827667"
         sodipodi:cx="113.8947"
         id="path3054"
         style="fill:#ffffff;fill-opacity:1;stroke:#000000;stroke-opacity:1;filter:url(#filter3877)"
         sodipodi:type="arc" />
      <path
         transform="matrix(1.2889967,0,0,1.2889967,-68.799104,708.94038)"
         d="m 144.45182,81.605583 a 30.304577,30.304577 0 1 1 -60.609157,0 30.304577,30.304577 0 1 1 60.609157,0 z"
         sodipodi:ry="30.304577"
         sodipodi:rx="30.304577"
         sodipodi:cy="81.605583"
         sodipodi:cx="114.14724"
         id="path3056"
         style="opacity:0.80303034;fill:#000000;fill-opacity:1;stroke:none;filter:url(#filter3823)"
         sodipodi:type="arc" />
      <path
         sodipodi:type="arc"
         style="fill:#cc0000;fill-opacity:1;stroke:none;filter:url(#filter3845)"
         id="path3058"
         sodipodi:cx="114.14724"
         sodipodi:cy="81.605583"
         sodipodi:rx="30.304577"
         sodipodi:ry="30.304577"
         d="m 144.45182,81.605583 a 30.304577,30.304577 0 1 1 -60.609157,0 30.304577,30.304577 0 1 1 60.609157,0 z"
         transform="matrix(1.1549411,0,0,1.1549411,-53.497027,719.88006)" />
      <path
         inkscape:connector-curvature="0"
         id="path5963"
         d="m 77.036998,834.5928 c -0.561656,-0.0371 -1.925015,-0.20639 -2.478371,-0.30788 -1.823672,-0.33444 -3.373084,-0.84388 -4.973888,-1.63538 -1.732115,-0.85642 -3.093258,-1.83214 -4.455365,-3.19377 -1.316236,-1.31576 -2.478846,-2.93205 -3.330191,-4.62965 -0.582487,-1.16151 -1.161882,-2.69467 -1.547942,-4.09606 -0.107926,-0.39178 -0.218579,-0.72613 -0.24589,-0.74302 -0.02731,-0.0169 -0.6173,-0.0442 -1.311076,-0.0607 -1.810023,-0.0431 -2.275413,-0.0731 -2.259285,-0.1453 0.01267,-0.0567 4.716068,-5.42642 5.40656,-6.17247 0.184628,-0.19948 0.429281,-0.47218 0.543672,-0.60598 0.191934,-0.22451 0.215459,-0.23882 0.304818,-0.18528 0.280088,0.1678 8.843938,6.69459 8.856397,6.74974 0.0081,0.0358 -0.03924,0.15719 -0.105178,0.26971 -0.117478,0.20047 -0.123627,0.20409 -0.305641,0.17976 -0.102163,-0.0137 -1.087071,-0.0386 -2.188686,-0.0552 l -2.002935,-0.0303 0,0.11294 c 0,0.15852 0.156486,0.90436 0.312185,1.48795 0.639679,2.39759 1.834437,4.74973 3.435476,6.7635 0.476254,0.59903 1.808885,1.93819 2.385956,2.39765 1.50605,1.1991 3.07473,2.01944 4.809792,2.51526 0.849487,0.24275 0.85563,0.24286 1.519006,0.027 3.312088,-1.07754 6.172047,-3.35252 8.395983,-6.67865 1.170865,-1.75116 2.178127,-3.82305 2.774847,-5.70772 0.103334,-0.32638 0.20348,-0.60306 0.222547,-0.61484 0.04273,-0.0264 5.934233,0.0655 6.081698,0.0949 0.09753,0.0194 0.103675,0.0363 0.07616,0.20915 -0.04603,0.28975 -0.279119,1.06084 -0.501868,1.66041 -1.355586,3.64891 -3.709298,6.83672 -6.605782,8.94678 -0.300542,0.21894 -0.718273,0.50036 -0.928291,0.62539 -0.569573,0.33911 -1.92881,1.02137 -1.976321,0.99201 -0.02279,-0.014 -0.03589,-0.002 -0.02913,0.0271 0.01737,0.0746 -0.971677,0.49935 -1.831497,0.78663 -1.593582,0.53244 -3.2634,0.86214 -5.069121,1.00087 -0.546338,0.0419 -2.427915,0.0516 -2.97867,0.0154 z m 2.775016,-0.68697 c -0.147703,-0.0183 -0.349117,-0.0324 -0.447584,-0.0311 -0.169387,0.003 -0.166975,0.004 0.04476,0.0328 0.123085,0.0169 0.324499,0.0309 0.447584,0.0311 l 0.223791,0 -0.268549,-0.0333 z m -0.850408,-0.0932 c -1.858363,-0.33328 -3.555251,-0.97903 -5.206437,-1.98131 -0.55331,-0.33586 -0.48258,-0.24233 0.117935,0.15595 0.550446,0.36508 1.793908,0.98947 2.447761,1.22913 0.762521,0.2795 2.314667,0.64205 2.730256,0.63774 0.08693,-0.002 0.05536,-0.0155 -0.08952,-0.0416 z m 5.246978,-0.20069 c -0.01487,-0.0149 -0.05347,-0.0164 -0.08579,-0.004 -0.03571,0.0143 -0.02511,0.0249 0.02704,0.0271 0.04719,0.003 0.07362,-0.009 0.05875,-0.0235 z m 0.223793,-0.0447 c -0.01487,-0.0149 -0.05347,-0.0165 -0.08579,-0.004 -0.03571,0.0143 -0.02511,0.0249 0.02704,0.0271 0.04719,0.003 0.07362,-0.009 0.05875,-0.0235 z m 0.179033,-0.0447 c -0.01487,-0.0149 -0.05347,-0.0165 -0.08579,-0.004 -0.0357,0.0143 -0.0251,0.0249 0.02704,0.027 0.04718,0.003 0.07362,-0.009 0.05874,-0.0235 z m 0.460603,-0.1089 c 0.442695,-0.12058 1.306809,-0.40637 1.287396,-0.42578 -0.0084,-0.009 -0.296716,0.0733 -0.640626,0.18162 -0.343909,0.10833 -0.725997,0.226 -0.849082,0.26148 -0.123085,0.0355 -0.203244,0.0666 -0.178132,0.0692 0.02511,0.003 0.196312,-0.0364 0.380444,-0.0865 z m 8.861247,-17.97667 c -0.319419,-0.22294 -8.799524,-6.66012 -8.825209,-6.69915 -0.03493,-0.053 0.103586,-0.34425 0.20299,-0.42676 0.0538,-0.0447 0.499243,-0.0456 2.20184,-0.004 1.496496,0.0359 2.148511,0.0372 2.181602,0.004 0.10865,-0.10864 -0.391584,-2.06455 -0.821263,-3.21113 -1.2473,-3.32835 -3.382299,-6.17648 -6.073604,-8.10234 -1.300153,-0.93036 -2.873253,-1.65419 -4.414555,-2.03127 l -0.531785,-0.1301 -0.658819,0.22002 c -1.654532,0.55255 -3.222801,1.41027 -4.63329,2.53406 -0.675343,0.53805 -2.097231,1.97282 -2.680115,2.70439 -1.656306,2.07877 -2.997908,4.62677 -3.88851,7.38512 l -0.108387,0.33569 -1.875838,-0.008 c -1.03171,-0.004 -2.424687,-0.0219 -3.095502,-0.0386 l -1.219664,-0.0306 0,-0.11052 c 0,-0.15255 0.146687,-0.70936 0.327827,-1.24442 0.794761,-2.34753 2.11406,-4.69509 3.697594,-6.57947 1.064349,-1.26655 2.548586,-2.57862 3.823197,-3.37975 0.885178,-0.55634 2.576153,-1.40023 3.481511,-1.73746 2.964288,-1.10415 6.503524,-1.49395 9.826146,-1.08224 7.894466,0.97823 13.451177,5.91496 15.587152,13.84805 l 0.170095,0.63169 0.397674,0.0294 c 0.218726,0.0162 1.01444,0.0436 1.768256,0.061 0.753825,0.0173 1.397537,0.0482 1.430497,0.0685 0.0491,0.0303 0.0472,0.0516 -0.0105,0.11808 -0.453344,0.52222 -5.398709,6.13657 -5.551492,6.30244 -0.113359,0.1231 -0.293829,0.32018 -0.401047,0.43796 -0.194181,0.21331 -0.195378,0.21385 -0.306838,0.13605 z M 83.255267,796.61888 c -0.05572,-0.0901 -0.926511,-0.63265 -1.473888,-0.91822 -0.639811,-0.33377 -1.383952,-0.6386 -2.058882,-0.84335 -0.533582,-0.16186 -1.463299,-0.36305 -1.857471,-0.40194 -0.184812,-0.0182 -0.145766,-0.004 0.156655,0.0607 1.750846,0.36925 3.245655,0.94864 4.677243,1.81288 0.307712,0.18577 0.565703,0.33822 0.57331,0.33878 0.0076,0 -2.9e-5,-0.0214 -0.01697,-0.0488 z m -12.999155,-1.29292 c 0.03692,-0.0239 0.047,-0.0434 0.02238,-0.0434 -0.02462,0 -0.07497,0.0195 -0.111895,0.0434 -0.03692,0.0238 -0.047,0.0434 -0.02238,0.0434 0.02462,0 0.07498,-0.0195 0.111895,-0.0434 z m 0.648997,-0.22117 c 0.295404,-0.0959 0.51525,-0.17608 0.488544,-0.17806 -0.06627,-0.004 -1.048023,0.30767 -1.048023,0.33367 0,0.0281 -0.04139,0.0396 0.559479,-0.15561 z m 0.760892,-0.22641 c 0.05642,-0.0242 0.06469,-0.0385 0.02238,-0.0385 -0.03692,0 -0.10742,0.0173 -0.156654,0.0385 -0.05642,0.0243 -0.06469,0.0385 -0.02238,0.0385 0.03692,0 0.107418,-0.0173 0.156654,-0.0385 z m 0.234048,-0.0718 c -0.01487,-0.0149 -0.05348,-0.0165 -0.08579,-0.004 -0.03571,0.0143 -0.02511,0.0249 0.02704,0.027 0.04718,0.003 0.07362,-0.009 0.05875,-0.0234 z m 0.179033,-0.0447 c -0.01487,-0.0149 -0.05347,-0.0165 -0.08579,-0.004 -0.0357,0.0143 -0.0251,0.0249 0.02704,0.027 0.04718,0.003 0.07362,-0.009 0.05874,-0.0234 z m 0.179033,-0.0447 c -0.01487,-0.0149 -0.05348,-0.0165 -0.08579,-0.004 -0.03571,0.0143 -0.02511,0.0249 0.02704,0.027 0.04718,0.003 0.07362,-0.009 0.05875,-0.0234 z m 0.179033,-0.0447 c -0.01487,-0.0149 -0.05347,-0.0165 -0.08579,-0.004 -0.0357,0.0143 -0.0251,0.0249 0.02704,0.0271 0.04718,0.003 0.07362,-0.009 0.05874,-0.0235 z m 4.957917,-0.28834 c -0.123087,-0.0191 -0.304358,-0.0335 -0.402826,-0.0317 -0.170924,0.004 -0.168898,0.004 0.04476,0.0337 0.123085,0.0169 0.304355,0.0312 0.402824,0.0317 0.168823,0.002 0.166271,-0.002 -0.04476,-0.0338 z m -0.772081,-0.0742 c -0.05539,-0.0106 -0.146025,-0.0106 -0.201414,0 -0.05539,0.0106 -0.01006,0.0194 0.100707,0.0194 0.110776,0 0.156094,-0.009 0.100707,-0.0194 z"
         style="fill:#ffffff;fill-opacity:1" />
    </g>
    <g
       id="g6003"
       inkscape:export-filename="/mnt/storage/paolo/programmazione/unicaradio-apps/apps/docs/grafica/v2/wait_pressed.png"
       inkscape:export-xdpi="153.49091"
       inkscape:export-ydpi="153.49091">
      <path
         transform="translate(-34.670789,841.68388)"
         d="m 161.62441,78.827667 a 47.72971,47.72971 0 1 1 -95.459421,0 47.72971,47.72971 0 1 1 95.459421,0 z"
         sodipodi:ry="47.72971"
         sodipodi:rx="47.72971"
         sodipodi:cy="78.827667"
         sodipodi:cx="113.8947"
         id="path5967"
         style="fill:#ffffff;fill-opacity:1;stroke:#000000;stroke-opacity:1;filter:url(#filter3877)"
         sodipodi:type="arc" />
      <path
         transform="matrix(1.2889967,0,0,1.2889967,-67.911505,815.32221)"
         d="m 144.45182,81.605583 a 30.304577,30.304577 0 1 1 -60.609157,0 30.304577,30.304577 0 1 1 60.609157,0 z"
         sodipodi:ry="30.304577"
         sodipodi:rx="30.304577"
         sodipodi:cy="81.605583"
         sodipodi:cx="114.14724"
         id="path5969"
         style="opacity:0.80303034;fill:#000000;fill-opacity:1;stroke:none;filter:url(#filter3823)"
         sodipodi:type="arc" />
      <path
         sodipodi:type="arc"
         style="fill:#ff751b;fill-opacity:1;stroke:none;filter:url(#filter3845)"
         id="path5971"
         sodipodi:cx="114.14724"
         sodipodi:cy="81.605583"
         sodipodi:rx="30.304577"
         sodipodi:ry="30.304577"
         d="m 144.45182,81.605583 a 30.304577,30.304577 0 1 1 -60.609157,0 30.304577,30.304577 0 1 1 60.609157,0 z"
         transform="matrix(1.1549411,0,0,1.1549411,-52.609428,826.2619)" />
      <path
         inkscape:connector-curvature="0"
         id="path5963-2"
         d="m 77.924597,940.97464 c -0.561656,-0.0371 -1.925015,-0.20639 -2.478371,-0.30788 -1.823672,-0.33444 -3.373084,-0.84388 -4.973888,-1.63538 -1.732115,-0.85642 -3.093258,-1.83214 -4.455365,-3.19377 -1.316236,-1.31576 -2.478846,-2.93205 -3.330191,-4.62965 -0.582487,-1.16151 -1.161882,-2.69467 -1.547942,-4.09606 -0.107926,-0.39178 -0.218579,-0.72613 -0.24589,-0.74302 -0.02731,-0.0169 -0.6173,-0.0442 -1.311076,-0.0607 -1.810023,-0.0431 -2.275413,-0.0731 -2.259285,-0.1453 0.01267,-0.0567 4.716068,-5.42642 5.40656,-6.17247 0.184628,-0.19948 0.429281,-0.47218 0.543672,-0.60598 0.191934,-0.22451 0.215459,-0.23882 0.304818,-0.18528 0.280088,0.1678 8.843938,6.69459 8.856397,6.74974 0.0081,0.0358 -0.03924,0.15719 -0.105178,0.26971 -0.117478,0.20047 -0.123627,0.20409 -0.305641,0.17976 -0.102163,-0.0137 -1.087071,-0.0386 -2.188686,-0.0552 l -2.002935,-0.0303 0,0.11294 c 0,0.15852 0.156486,0.90436 0.312185,1.48795 0.639679,2.39759 1.834437,4.74973 3.435476,6.7635 0.476254,0.59903 1.808885,1.93819 2.385956,2.39765 1.50605,1.1991 3.07473,2.01944 4.809792,2.51526 0.849487,0.24275 0.85563,0.24286 1.519006,0.027 3.312088,-1.07754 6.172047,-3.35252 8.395983,-6.67865 1.170865,-1.75116 2.178127,-3.82305 2.774847,-5.70772 0.103334,-0.32638 0.20348,-0.60306 0.222547,-0.61484 0.04273,-0.0264 5.934233,0.0655 6.081698,0.0949 0.09753,0.0194 0.103675,0.0363 0.07616,0.20915 -0.04603,0.28975 -0.279119,1.06084 -0.501868,1.66041 -1.355586,3.64891 -3.709298,6.83672 -6.605782,8.94678 -0.300542,0.21894 -0.718273,0.50036 -0.928291,0.62539 -0.569573,0.33911 -1.92881,1.02137 -1.976321,0.99201 -0.02279,-0.014 -0.03589,-0.002 -0.02913,0.0271 0.01737,0.0746 -0.971677,0.49935 -1.831497,0.78663 -1.593582,0.53244 -3.2634,0.86214 -5.069121,1.00087 -0.546338,0.0419 -2.427915,0.0516 -2.97867,0.0154 z m 2.775016,-0.68697 c -0.147703,-0.0183 -0.349117,-0.0324 -0.447584,-0.0311 -0.169387,0.003 -0.166975,0.004 0.04476,0.0328 0.123085,0.0169 0.324499,0.0309 0.447584,0.0311 l 0.223791,0 -0.268549,-0.0333 z m -0.850408,-0.0932 c -1.858363,-0.33328 -3.555251,-0.97903 -5.206437,-1.98131 -0.55331,-0.33586 -0.48258,-0.24233 0.117935,0.15595 0.550446,0.36508 1.793908,0.98947 2.447761,1.22913 0.762521,0.2795 2.314667,0.64205 2.730256,0.63774 0.08693,-0.002 0.05536,-0.0155 -0.08952,-0.0416 z m 5.246978,-0.20069 c -0.01487,-0.0149 -0.05347,-0.0164 -0.08579,-0.004 -0.03571,0.0143 -0.02511,0.0249 0.02704,0.0271 0.04719,0.003 0.07362,-0.009 0.05875,-0.0235 z m 0.223793,-0.0447 c -0.01487,-0.0149 -0.05347,-0.0165 -0.08579,-0.004 -0.03571,0.0143 -0.02511,0.0249 0.02704,0.0271 0.04719,0.003 0.07362,-0.009 0.05875,-0.0235 z m 0.179033,-0.0447 c -0.01487,-0.0149 -0.05347,-0.0165 -0.08579,-0.004 -0.0357,0.0143 -0.0251,0.0249 0.02704,0.027 0.04718,0.003 0.07362,-0.009 0.05874,-0.0235 z m 0.460603,-0.1089 c 0.442695,-0.12058 1.306809,-0.40637 1.287396,-0.42578 -0.0084,-0.009 -0.296716,0.0733 -0.640626,0.18162 -0.343909,0.10833 -0.725997,0.226 -0.849082,0.26148 -0.123085,0.0355 -0.203244,0.0666 -0.178132,0.0692 0.02511,0.003 0.196312,-0.0364 0.380444,-0.0865 z m 8.861247,-17.97667 c -0.319419,-0.22294 -8.799524,-6.66012 -8.825209,-6.69915 -0.03493,-0.053 0.103586,-0.34425 0.20299,-0.42676 0.0538,-0.0447 0.499243,-0.0456 2.20184,-0.004 1.496496,0.0359 2.148511,0.0372 2.181602,0.004 0.10865,-0.10864 -0.391584,-2.06455 -0.821263,-3.21113 -1.2473,-3.32835 -3.382299,-6.17648 -6.073604,-8.10234 -1.300153,-0.93036 -2.873253,-1.65419 -4.414555,-2.03127 l -0.531785,-0.1301 -0.658819,0.22002 c -1.654532,0.55255 -3.222801,1.41027 -4.63329,2.53406 -0.675343,0.53805 -2.097231,1.97282 -2.680115,2.70439 -1.656306,2.07877 -2.997908,4.62677 -3.88851,7.38512 l -0.108387,0.33569 -1.875838,-0.008 c -1.03171,-0.004 -2.424687,-0.0219 -3.095502,-0.0386 l -1.219664,-0.0306 0,-0.11052 c 0,-0.15255 0.146687,-0.70936 0.327827,-1.24442 0.794761,-2.34753 2.11406,-4.69509 3.697594,-6.57947 1.064349,-1.26655 2.548586,-2.57862 3.823197,-3.37975 0.885178,-0.55634 2.576153,-1.40023 3.481511,-1.73746 2.964288,-1.10415 6.503524,-1.49395 9.826146,-1.08224 7.894466,0.97823 13.451177,5.91496 15.587152,13.84805 l 0.170095,0.63169 0.397674,0.0294 c 0.218726,0.0162 1.01444,0.0436 1.768256,0.061 0.753828,0.0173 1.397538,0.0482 1.430498,0.0685 0.0491,0.0303 0.0472,0.0516 -0.0105,0.11808 -0.45335,0.52222 -5.39871,6.13657 -5.551493,6.30244 -0.113359,0.1231 -0.293829,0.32018 -0.401047,0.43796 -0.194181,0.21331 -0.195378,0.21385 -0.306838,0.13605 z M 84.142866,903.00072 c -0.05572,-0.0901 -0.926511,-0.63265 -1.473888,-0.91822 -0.639811,-0.33377 -1.383952,-0.6386 -2.058882,-0.84335 -0.533582,-0.16186 -1.463299,-0.36305 -1.857471,-0.40194 -0.184812,-0.0182 -0.145766,-0.004 0.156655,0.0607 1.750846,0.36925 3.245655,0.94864 4.677243,1.81288 0.307712,0.18577 0.565703,0.33822 0.57331,0.33878 0.0076,0 -2.9e-5,-0.0214 -0.01697,-0.0488 z M 71.143711,901.7078 c 0.03692,-0.0239 0.047,-0.0434 0.02238,-0.0434 -0.02462,0 -0.07497,0.0195 -0.111895,0.0434 -0.03692,0.0238 -0.047,0.0434 -0.02238,0.0434 0.02462,0 0.07498,-0.0195 0.111895,-0.0434 z m 0.648997,-0.22117 c 0.295404,-0.0959 0.51525,-0.17608 0.488544,-0.17806 -0.06627,-0.004 -1.048023,0.30767 -1.048023,0.33367 0,0.0281 -0.04139,0.0396 0.559479,-0.15561 z m 0.760892,-0.22641 c 0.05642,-0.0242 0.06469,-0.0385 0.02238,-0.0385 -0.03692,0 -0.10742,0.0173 -0.156654,0.0385 -0.05642,0.0243 -0.06469,0.0385 -0.02238,0.0385 0.03692,0 0.107418,-0.0173 0.156654,-0.0385 z m 0.234048,-0.0718 c -0.01487,-0.0149 -0.05348,-0.0165 -0.08579,-0.004 -0.03571,0.0143 -0.02511,0.0249 0.02704,0.027 0.04718,0.003 0.07362,-0.009 0.05875,-0.0234 z m 0.179033,-0.0447 c -0.01487,-0.0149 -0.05347,-0.0165 -0.08579,-0.004 -0.0357,0.0143 -0.0251,0.0249 0.02704,0.027 0.04718,0.003 0.07362,-0.009 0.05874,-0.0234 z m 0.179033,-0.0447 c -0.01487,-0.0149 -0.05348,-0.0165 -0.08579,-0.004 -0.03571,0.0143 -0.02511,0.0249 0.02704,0.027 0.04718,0.003 0.07362,-0.009 0.05875,-0.0234 z m 0.179033,-0.0447 c -0.01487,-0.0149 -0.05347,-0.0165 -0.08579,-0.004 -0.0357,0.0143 -0.0251,0.0249 0.02704,0.0271 0.04718,0.003 0.07362,-0.009 0.05874,-0.0235 z m 4.957917,-0.28834 c -0.123087,-0.0191 -0.304358,-0.0335 -0.402826,-0.0317 -0.170924,0.004 -0.168898,0.004 0.04476,0.0337 0.123085,0.0169 0.304355,0.0312 0.402824,0.0317 0.168823,0.002 0.166271,-0.002 -0.04476,-0.0338 z m -0.772081,-0.0742 c -0.05539,-0.0106 -0.146025,-0.0106 -0.201414,0 -0.05539,0.0106 -0.01006,0.0194 0.100707,0.0194 0.110776,0 0.156094,-0.009 0.100707,-0.0194 z"
         style="fill:#ffffff;fill-opacity:1" />
    </g>
  </g>
</svg>
