<?xml version="1.0" encoding="UTF-8" standalone="no"?>
<!-- Created with Inkscape (http://www.inkscape.org/) -->

<svg
   xmlns:dc="http://purl.org/dc/elements/1.1/"
   xmlns:cc="http://creativecommons.org/ns#"
   xmlns:rdf="http://www.w3.org/1999/02/22-rdf-syntax-ns#"
   xmlns:svg="http://www.w3.org/2000/svg"
   xmlns="http://www.w3.org/2000/svg"
   xmlns:xlink="http://www.w3.org/1999/xlink"
   xmlns:sodipodi="http://sodipodi.sourceforge.net/DTD/sodipodi-0.dtd"
   xmlns:inkscape="http://www.inkscape.org/namespaces/inkscape"
   width="744.09448819"
   height="1052.3622047"
   id="svg2"
   version="1.1"
   inkscape:version="0.48.3.1 r9886"
   sodipodi:docname="social.svg">
  <defs
     id="defs4">
    <linearGradient
       id="linearGradient3843">
      <stop
         style="stop-color:#2acaf2;stop-opacity:1;"
         offset="0"
         id="stop3845" />
      <stop
         id="stop3853"
         offset="0.5"
         style="stop-color:#8fe5fa;stop-opacity:1;" />
      <stop
         style="stop-color:#b0f0fe;stop-opacity:1;"
         offset="1"
         id="stop3847" />
    </linearGradient>
    <linearGradient
       inkscape:collect="always"
       xlink:href="#linearGradient3843"
       id="linearGradient3849"
       x1="233.4604"
       y1="87.402237"
       x2="233.4604"
       y2="47.417046"
       gradientUnits="userSpaceOnUse"
       gradientTransform="translate(-43.5,0)" />
    <linearGradient
       inkscape:collect="always"
       xlink:href="#linearGradient3843"
       id="linearGradient3897"
       gradientUnits="userSpaceOnUse"
       gradientTransform="translate(-43.5,0)"
       x1="233.4604"
       y1="87.402237"
       x2="233.4604"
       y2="47.417046" />
    <linearGradient
       inkscape:collect="always"
       xlink:href="#linearGradient3843"
       id="linearGradient3901"
       gradientUnits="userSpaceOnUse"
       gradientTransform="translate(108,1.25)"
       x1="233.4604"
       y1="87.402237"
       x2="233.4604"
       y2="47.417046" />
  </defs>
  <sodipodi:namedview
     id="base"
     pagecolor="#ffffff"
     bordercolor="#666666"
     borderopacity="1.0"
     inkscape:pageopacity="0.0"
     inkscape:pageshadow="2"
     inkscape:zoom="2.8284271"
     inkscape:cx="161.82626"
     inkscape:cy="1003.7782"
     inkscape:document-units="px"
     inkscape:current-layer="layer1"
     showgrid="false"
     inkscape:window-width="1920"
     inkscape:window-height="1025"
     inkscape:window-x="-2"
     inkscape:window-y="-3"
     inkscape:window-maximized="1"
     inkscape:snap-object-midpoints="true" />
  <metadata
     id="metadata7">
    <rdf:RDF>
      <cc:Work
         rdf:about="">
        <dc:format>image/svg+xml</dc:format>
        <dc:type
           rdf:resource="http://purl.org/dc/dcmitype/StillImage" />
        <dc:title></dc:title>
      </cc:Work>
    </rdf:RDF>
  </metadata>
  <g
     inkscape:label="Livello 1"
     inkscape:groupmode="layer"
     id="layer1">
    <g
       id="g3863">
      <rect
         inkscape:export-ydpi="95.294121"
         inkscape:export-xdpi="95.294121"
         inkscape:export-filename="/mnt/storage/paolo/desktop/email.png"
         ry="15"
         rx="15"
         y="33.86377"
         x="73.708672"
         height="68"
         width="68"
         id="rect3012"
         style="fill:#ff6600;stroke:none" />
      <rect
         inkscape:export-ydpi="95.294121"
         inkscape:export-xdpi="95.294121"
         inkscape:export-filename="/mnt/storage/paolo/desktop/email.png"
         style="fill:#ffffff;stroke:none"
         id="rect3016"
         width="63"
         height="63"
         x="76.208672"
         y="36.36377"
         rx="12"
         ry="12" />
      <rect
         inkscape:export-ydpi="95.294121"
         inkscape:export-xdpi="95.294121"
         inkscape:export-filename="/mnt/storage/paolo/desktop/email.png"
         ry="10"
         rx="10"
         y="38.36377"
         x="78.208664"
         height="59"
         width="59"
         id="rect3014"
         style="fill:#ff6600;fill-opacity:1;stroke:none" />
      <g
         inkscape:export-ydpi="95.294121"
         inkscape:export-xdpi="95.294121"
         inkscape:export-filename="/mnt/storage/paolo/desktop/email.png"
         transform="matrix(1.0105043,0,0,1.0105043,-115.55274,-79.127449)"
         id="g3816"
         style="display:inline">
        <rect
           style="fill:#ffffff;fill-opacity:0;stroke:#ffffff;stroke-width:4.5;stroke-miterlimit:4;stroke-opacity:1;stroke-dasharray:none"
           id="rect2989"
           width="42.901573"
           height="28.948645"
           x="199.48979"
           y="130.98891"
           rx="2.1450787"
           ry="2.0677605" />
        <path
           sodipodi:type="star"
           style="fill:#ffffff;fill-opacity:0;stroke:#ffffff;stroke-width:11.65757561;stroke-linecap:round;stroke-linejoin:round;stroke-miterlimit:0;stroke-opacity:1;stroke-dasharray:none"
           id="path3759"
           sodipodi:sides="3"
           sodipodi:cx="118.61195"
           sodipodi:cy="125.74318"
           sodipodi:r1="38.044029"
           sodipodi:r2="19.022015"
           sodipodi:arg1="-0.52359878"
           sodipodi:arg2="0.52359878"
           inkscape:flatsided="false"
           inkscape:rounded="0"
           inkscape:randomized="0"
           d="m 151.55905,106.72116 -16.47355,28.53303 -16.47355,28.53302 -16.47354,-28.53302 -16.473552,-28.53303 32.947092,0 z"
           inkscape:transform-center-y="2.2568564"
           transform="matrix(0.62857688,0,0,0.23705555,146.38459,106.00282)" />
      </g>
      <path
         inkscape:export-ydpi="95"
         inkscape:export-xdpi="95"
         inkscape:export-filename="/mnt/storage/paolo/desktop/email.png"
         id="rect3821"
         d="M 88.71875 33.875 C 80.40875 33.875 73.71875 40.565 73.71875 48.875 L 73.71875 57.84375 C 82.464047 61.453728 94.466791 63.6875 107.71875 63.6875 C 120.97071 63.6875 132.97345 61.453728 141.71875 57.84375 L 141.71875 48.875 C 141.71875 40.565 135.02875 33.875 126.71875 33.875 L 88.71875 33.875 z "
         style="fill:#ffffff;stroke:none;opacity:0.5" />
    </g>
    <g
       id="g3855"
       inkscape:export-filename="/mnt/storage/paolo/desktop/twitter.png"
       inkscape:export-xdpi="95"
       inkscape:export-ydpi="95">
      <rect
         style="fill:#33b1d3;fill-opacity:0.83529412;stroke:none"
         id="rect2997"
         width="68"
         height="68"
         x="156.85626"
         y="34.133232"
         rx="15"
         ry="15"
         inkscape:export-filename="/mnt/storage/paolo/desktop/email.png"
         inkscape:export-xdpi="95.294121"
         inkscape:export-ydpi="95.294121" />
      <rect
         ry="12"
         rx="12"
         y="36.633232"
         x="159.35626"
         height="63"
         width="63"
         id="rect2999"
         style="fill:#ffffff;stroke:none"
         inkscape:export-filename="/mnt/storage/paolo/desktop/email.png"
         inkscape:export-xdpi="95.294121"
         inkscape:export-ydpi="95.294121" />
      <rect
         style="fill:#33b1d3;fill-opacity:0.83529621;stroke:none"
         id="rect3001"
         width="59"
         height="59"
         x="161.35626"
         y="38.633232"
         rx="10"
         ry="10"
         inkscape:export-filename="/mnt/storage/paolo/desktop/email.png"
         inkscape:export-xdpi="95.294121"
         inkscape:export-ydpi="95.294121" />
      <path
         sodipodi:nodetypes="sscaascsssccssssasss"
         inkscape:connector-curvature="0"
         id="rect3817"
         d="m 178.76251,43.086357 c -4.432,0 -8,3.568 -8,8 l 0,28.5625 c 0.13026,2.535392 0.89344,5.130453 2.28125,7.25 1.22549,1.871643 3.13619,3.26861 5.0625,4.40625 1.56631,0.925035 4.00945,1.875 5.125,1.875 l 14.5625,0 4.875,0 c 4.432,0 8,-3.568 8,-8 l 0,-3.96875 c 0,-4.325619 -3.40388,-7.834347 -7.6875,-8 l 0,-1 c 4.41721,-0.0175 7.96875,-3.656154 7.96875,-8.1875 l 0,-1.8125 c 0,-4.542249 -3.568,-8.1875 -8,-8.1875 l -9.46875,0 c -0.86563,0 -1.6337,-0.114252 -2.1152,-0.676507 -0.49618,-0.5794 -0.35355,-2.260993 -0.35355,-2.260993 -0.0632,-4.43155 -3.568,-8 -8,-8 z"
         style="fill:#ffffff;fill-opacity:0.83529621;stroke:none" />
      <path
         sodipodi:nodetypes="sscccccssscccssscss"
         inkscape:connector-curvature="0"
         id="rect3022"
         d="m 180.99689,47.320732 c -3.35808,0 -6.0625,2.748952 -6.0625,6.1875 l 0,26.0625 c 0.16,2.805077 1.95533,5.055929 4.1875,6.8125 2.31525,1.481526 5.21559,2.5625 7.90625,2.5625 l 4.25,0 7.25,0 3,0 c 2.77,0 5,-2.704416 5,-6.0625 0,-3.358084 -2.23,-6.0625 -5,-6.0625 l -3,0 -11.46875,0 0,-7.21875 14.71875,0 c 2.77,0 5,-2.704416 5,-6.0625 0,-3.358084 -2.23,-6.0625 -5,-6.0625 l -14.71875,0 0,-3.96875 c 0,-3.438548 -2.70442,-6.1875 -6.0625,-6.1875 z"
         style="fill:url(#linearGradient3849);fill-opacity:1;stroke:none" />
      <path
         inkscape:connector-curvature="0"
         style="opacity:0.5;fill:#ffffff;stroke:none"
         d="m 171.86634,34.144463 c -8.31,0 -15,6.69 -15,15 l 0,8.96875 c 8.7453,3.609978 20.74805,5.84375 34,5.84375 13.25196,0 25.2547,-2.233772 34,-5.84375 l 0,-8.96875 c 0,-8.31 -6.69,-15 -15,-15 l -38,0 z"
         id="path3009"
         inkscape:export-filename="/mnt/storage/paolo/desktop/email.png"
         inkscape:export-xdpi="95"
         inkscape:export-ydpi="95" />
    </g>
    <g
       id="g3925"
       transform="translate(-68.37868,-1.5606602)"
       inkscape:export-filename="/mnt/storage/paolo/desktop/facebook.png"
       inkscape:export-xdpi="95"
       inkscape:export-ydpi="95">
      <rect
         inkscape:export-ydpi="95.294121"
         inkscape:export-xdpi="95.294121"
         inkscape:export-filename="/mnt/storage/paolo/desktop/email.png"
         ry="15"
         rx="15"
         y="35.383232"
         x="308.35626"
         height="68"
         width="68"
         id="rect3885"
         style="fill:#5671af;fill-opacity:1;stroke:none" />
      <rect
         inkscape:export-ydpi="95.294121"
         inkscape:export-xdpi="95.294121"
         inkscape:export-filename="/mnt/storage/paolo/desktop/email.png"
         style="fill:#ffffff;stroke:none"
         id="rect3887"
         width="63"
         height="63"
         x="310.85626"
         y="37.883232"
         rx="12"
         ry="12" />
      <rect
         inkscape:export-ydpi="95.294121"
         inkscape:export-xdpi="95.294121"
         inkscape:export-filename="/mnt/storage/paolo/desktop/email.png"
         ry="10"
         rx="10"
         y="39.883232"
         x="312.85626"
         height="59"
         width="59"
         id="rect3889"
         style="fill:#5671af;fill-opacity:1;stroke:none" />
      <path
         sodipodi:nodetypes="caazcccccccccccccc"
         inkscape:connector-curvature="0"
         id="rect3907"
         d="m 355.6063,45.143439 c -0.86818,0.07985 -2.68491,0.09162 -3.86717,0.649051 -1.61584,0.761853 -3.0498,2.031086 -4.04721,3.513154 -1.20948,1.797183 -2.00952,4.017448 -2.09856,6.15064 -0.089,2.133192 -0.0496,4.843405 -0.0496,4.843405 l -7.1875,0 0,9.96875 7.1875,0 0,27.093744 12.90625,0 0,-27.093744 7.9375,0 0,-9.96875 -7.9375,0 c 0,-1.697917 0,-3.395833 0,-5.09375 l 8.125,0 0,-10.0625 c -3.38352,0.0085 -8.56033,0.0034 -10.96871,0 z"
         style="fill:#ffffff;fill-opacity:1;stroke:none" />
      <path
         inkscape:export-ydpi="95"
         inkscape:export-xdpi="95"
         inkscape:export-filename="/mnt/storage/paolo/desktop/email.png"
         id="path3895"
         d="m 323.36634,35.394463 c -8.31,0 -15,6.69 -15,15 l 0,8.96875 c 8.7453,3.609978 20.74805,5.84375 34,5.84375 13.25196,0 25.2547,-2.233772 34,-5.84375 l 0,-8.96875 c 0,-8.31 -6.69,-15 -15,-15 l -38,0 z"
         style="opacity:0.5;fill:#ffffff;stroke:none"
         inkscape:connector-curvature="0" />
    </g>
  </g>
</svg>
