<?xml version="1.0" encoding="UTF-8" standalone="no"?>
<!-- Created with Inkscape (http://www.inkscape.org/) -->

<svg
   xmlns:dc="http://purl.org/dc/elements/1.1/"
   xmlns:cc="http://creativecommons.org/ns#"
   xmlns:rdf="http://www.w3.org/1999/02/22-rdf-syntax-ns#"
   xmlns:svg="http://www.w3.org/2000/svg"
   xmlns="http://www.w3.org/2000/svg"
   xmlns:sodipodi="http://sodipodi.sourceforge.net/DTD/sodipodi-0.dtd"
   xmlns:inkscape="http://www.inkscape.org/namespaces/inkscape"
   width="744.09448819"
   height="1052.3622047"
   id="svg2"
   version="1.1"
   inkscape:version="0.48.1 r9760"
   sodipodi:docname="tabs_and_play_pause.svg">
  <defs
     id="defs4">
    <linearGradient
       id="linearGradient3005">
      <stop
         style="stop-color:#999999;stop-opacity:1;"
         offset="0"
         id="stop3007" />
      <stop
         style="stop-color:#ffffff;stop-opacity:1;"
         offset="1"
         id="stop3009" />
    </linearGradient>
  </defs>
  <sodipodi:namedview
     id="base"
     pagecolor="#ffffff"
     bordercolor="#666666"
     borderopacity="1.0"
     inkscape:pageopacity="0.0"
     inkscape:pageshadow="2"
     inkscape:zoom="1.5660008"
     inkscape:cx="360.15505"
     inkscape:cy="780.2506"
     inkscape:document-units="px"
     inkscape:current-layer="layer1"
     showgrid="false"
     inkscape:window-width="1920"
     inkscape:window-height="1025"
     inkscape:window-x="-2"
     inkscape:window-y="-3"
     inkscape:window-maximized="1"
     inkscape:snap-global="false" />
  <metadata
     id="metadata7">
    <rdf:RDF>
      <cc:Work
         rdf:about="">
        <dc:format>image/svg+xml</dc:format>
        <dc:type
           rdf:resource="http://purl.org/dc/dcmitype/StillImage" />
        <dc:title />
      </cc:Work>
    </rdf:RDF>
  </metadata>
  <g
     inkscape:label="Livello 1"
     inkscape:groupmode="layer"
     id="layer1"
     style="display:inline">
    <rect
       style="fill:#800000;fill-opacity:1;stroke:none"
       id="rect4004"
       width="900.36414"
       height="397.35226"
       x="-92.654831"
       y="30.978443"
       rx="2"
       ry="2" />
    <g
       id="g3816"
       transform="matrix(1.0105043,0,0,1.0105043,10.834537,-1.7036797)"
       inkscape:export-filename="/home/paolo/Desktop/unicaradio/imgs/tmp/song.png"
       inkscape:export-xdpi="87.899063"
       inkscape:export-ydpi="87.899063">
      <rect
         ry="2.0677605"
         rx="2.1450787"
         y="130.98891"
         x="199.48979"
         height="28.948645"
         width="42.901573"
         id="rect2989"
         style="fill:#ffffff;fill-opacity:0;stroke:#ffffff;stroke-width:4.5;stroke-miterlimit:4;stroke-opacity:1;stroke-dasharray:none" />
      <path
         transform="matrix(0.62857688,0,0,0.23705555,146.38459,106.00282)"
         inkscape:transform-center-y="2.2568564"
         d="m 151.55905,106.72116 -16.47355,28.53303 -16.47355,28.53302 -16.47354,-28.53302 -16.473552,-28.53303 32.947092,0 z"
         inkscape:randomized="0"
         inkscape:rounded="0"
         inkscape:flatsided="false"
         sodipodi:arg2="0.52359878"
         sodipodi:arg1="-0.52359878"
         sodipodi:r2="19.022015"
         sodipodi:r1="38.044029"
         sodipodi:cy="125.74318"
         sodipodi:cx="118.61195"
         sodipodi:sides="3"
         id="path3759"
         style="fill:#ffffff;fill-opacity:0;stroke:#ffffff;stroke-width:11.65757561;stroke-linecap:round;stroke-linejoin:round;stroke-miterlimit:0;stroke-opacity:1;stroke-dasharray:none"
         sodipodi:type="star" />
    </g>
    <path
       style="fill:#ffffff"
       d="m 631.62863,380.15285 c -11.02865,-9.06515 -12.72213,-11.85069 -14.45557,-19.85041 -0.64302,-2.96751 -0.17249,-5.95492 1.8333,-8.92274 4.75365,-7.03362 14.15915,-8.9258 19.48715,-3.92039 l 2.40953,2.26364 2.40953,-2.26364 c 5.32801,-5.00541 14.7335,-3.11323 19.48715,3.92039 2.00022,2.95957 2.47849,5.92329 1.8381,8.87614 -1.72803,7.968 -3.32098,10.74864 -14.43649,19.74495 -5.09407,4.12288 -9.383,7.46618 -9.53093,7.42955 -0.14795,-0.0366 -4.21674,-3.3115 -9.04177,-7.27749 z m 27.97646,-22.25973 c 2.12157,-3.29256 -6.32468,-10.26279 -8.79702,-7.79044 -0.76633,0.76632 0.0362,2.23713 2.78617,5.10612 4.30756,4.49403 4.82229,4.52889 6.01085,2.68432 z"
       id="path3853"
       inkscape:connector-curvature="0"
       sodipodi:nodetypes="sasscssascsassa"
       inkscape:export-filename="/home/paolo/Desktop/unicaradio/imgs/tmp/favorites.png"
       inkscape:export-xdpi="90"
       inkscape:export-ydpi="90" />
    <path
       style="fill:#ffffff"
       d="m 497.71749,385.7124 c -4.14571,-1.82995 -4.62383,-5.94214 -1.10053,-9.46544 3.50545,-3.50546 8.71603,-4.47187 13.34304,-2.47476 0.81533,0.35191 0.86563,-0.66429 0.86563,-17.48658 0,-11.19956 0.1788,-17.86021 0.47945,-17.86021 0.26369,0 1.22746,1.1686 2.14171,2.5969 1.6129,2.51977 2.4728,3.36905 7.63761,7.54336 6.57257,5.31209 8.61263,11.3584 5.82241,17.25644 -1.46592,3.0987 -5.83125,7.47141 -7.008,7.01985 -0.62925,-0.24146 -0.28792,-0.8355 1.66904,-2.90469 2.76811,-2.92686 3.58016,-4.24949 4.15528,-6.76788 0.94114,-4.12121 -1.99508,-8.17401 -8.53918,-11.78643 -2.06776,-1.14143 -4.00152,-2.07532 -4.29725,-2.07532 -0.37304,0 -0.58161,4.8646 -0.68108,15.88465 l -0.14337,15.88466 -2.32602,2.1053 c -3.32661,3.01095 -8.47442,4.09466 -12.01874,2.53015 z m 2.23547,-8.09086 c 1.50157,-0.60958 2.94841,-1.10925 3.21521,-1.1104 0.2668,-9.9e-4 1.53345,-0.53399 2.81479,-1.18412 2.05137,-1.04082 2.19911,-1.21706 1.23662,-1.47511 -1.86429,-0.49983 -4.76209,-0.33692 -6.43416,0.36171 -1.88202,0.78636 -4.96215,4.10898 -4.50093,4.85525 0.17602,0.28482 0.45916,0.32505 0.6292,0.0894 0.17003,-0.23564 1.53771,-0.92718 3.03927,-1.53675 z"
       id="path3917"
       inkscape:connector-curvature="0"
       inkscape:export-filename="/home/paolo/Desktop/unicaradio/imgs/tmp/song.png"
       inkscape:export-xdpi="90"
       inkscape:export-ydpi="90" />
    <path
       style="fill:#ffffff"
       d="m 573.62918,385.50607 c 0.0583,-0.66274 0.30041,-5.82145 0.74508,-15.87312 0.15927,-3.60037 0.15002,-3.98625 -0.0989,-4.12555 -0.47219,-0.26425 -0.76903,-1.20299 -0.56524,-1.78756 0.47618,-1.36598 2.37094,-1.36598 2.84712,0 0.20312,0.58266 -0.0926,1.52305 -0.56145,1.78544 -0.28367,0.15875 -0.21228,2.73155 0.45868,16.52785 l 0.20392,4.19299 -1.54625,-2e-5 -1.54626,-2e-5 0.0633,-0.72001 z m -13.26012,-2.47267 c -4.02308,-3.11254 -6.91682,-7.41528 -8.3387,-12.39892 -0.67978,-2.3826 -0.90023,-4.02247 -0.89664,-6.66983 0.009,-6.34867 2.42742,-12.23509 6.89378,-16.77679 1.21492,-1.23541 3.52365,-3.14984 3.7902,-3.14288 0.13356,0.004 2.11887,3.03879 2.03204,3.10674 -0.0367,0.0287 -0.44789,0.33558 -0.91377,0.68193 -3.6384,2.70487 -6.28194,6.68225 -7.49312,11.27391 -0.57997,2.1987 -0.72603,6.15627 -0.30915,8.37707 0.79436,4.2318 2.63745,7.84464 5.47583,10.73378 1.01571,1.03388 2.59418,2.3628 3.39923,2.86184 0.0663,0.0411 -1.98333,3.11288 -2.077,3.11288 -0.0351,0 -0.73825,-0.52188 -1.5627,-1.15973 z m 26.8882,-0.37647 -1.00625,-1.55598 1.04843,-0.77083 c 3.14317,-2.31092 5.93775,-6.22352 7.11786,-9.96547 0.79945,-2.53494 1.00677,-4.11992 0.9168,-7.00928 -0.0903,-2.9009 -0.47021,-4.74744 -1.47148,-7.15261 -1.31699,-3.16355 -3.78768,-6.3295 -6.53123,-8.36911 -0.46588,-0.34635 -0.87315,-0.64929 -0.90504,-0.6732 -0.0824,-0.0618 1.90017,-3.11634 2.02331,-3.11732 0.27045,-0.002 2.57985,1.91396 3.79019,3.14473 4.46637,4.5417 6.88516,10.42812 6.89379,16.77679 0.004,2.64736 -0.21686,4.28723 -0.89664,6.66983 -1.11021,3.89124 -2.91543,7.04083 -5.8076,10.13257 -0.86169,0.92115 -3.19591,2.88272 -3.9543,3.32302 -0.14223,0.0826 -0.54147,-0.38725 -1.21784,-1.43314 z m -22.14607,-5.55003 c -3.61571,-2.85995 -5.84575,-6.90054 -6.30215,-11.41881 -0.56842,-5.62721 1.81697,-11.19518 6.26807,-14.63091 l 0.95524,-0.73735 0.69806,1.05421 0.69805,1.05421 -0.46741,0.39294 c -4.06711,3.41905 -5.81435,7.13706 -5.58269,11.87958 0.0526,1.07698 0.22013,2.41556 0.37228,2.97462 0.71024,2.60976 2.6112,5.50372 4.71468,7.17751 l 1.12483,0.89506 -0.68163,1.00374 c -0.3749,0.55206 -0.74818,1.00374 -0.82952,1.00374 -0.0813,0 -0.51685,-0.29184 -0.96781,-0.64854 z m 18.32892,-0.28651 c -0.32899,-0.51429 -0.59815,-0.99857 -0.59815,-1.0762 0,-0.0776 0.46567,-0.50698 1.03482,-0.95413 2.00583,-1.57587 3.9421,-4.54544 4.63903,-7.11467 0.37975,-1.39994 0.51873,-4.48979 0.26697,-5.9355 -0.57255,-3.28781 -2.24842,-6.1577 -4.9103,-8.40877 l -1.00066,-0.84623 0.67967,-1.08401 0.67967,-1.084 0.95717,0.73882 c 6.86403,5.29821 8.37383,14.94501 3.48936,22.29502 -1.04096,1.5664 -3.93451,4.40472 -4.49044,4.40472 -0.082,0 -0.41816,-0.42077 -0.74714,-0.93505 z m -15.41289,-5.56206 c -0.96179,-0.96179 -1.40021,-1.56929 -1.92561,-2.66825 -0.90926,-1.90187 -1.1143,-2.94197 -1.00341,-5.08994 0.10606,-2.05438 0.50689,-3.36197 1.50304,-4.90321 0.70154,-1.08543 2.43631,-2.86513 2.79278,-2.86513 0.11336,0 0.36563,0.25811 0.5606,0.57357 l 0.35449,0.57357 -1.1604,1.16291 c -3.71992,3.72794 -3.31682,9.70824 0.86904,12.89269 l 0.47468,0.36113 -0.38998,0.60189 c -0.21448,0.33104 -0.48896,0.60284 -0.60994,0.604 -0.12098,0.001 -0.78036,-0.5583 -1.46529,-1.24323 z m 12.16452,0.6065 -0.36314,-0.63622 0.67027,-0.50417 c 1.34039,-1.00825 2.50389,-2.87012 2.93425,-4.69549 0.70006,-2.96933 -0.11111,-5.77897 -2.30253,-7.97515 l -1.14846,-1.15097 0.34547,-0.58552 c 0.19,-0.32203 0.4369,-0.58551 0.54866,-0.58551 0.35401,0 2.09098,1.78384 2.78986,2.86513 0.99615,1.54124 1.39698,2.84883 1.50304,4.90321 0.11089,2.14797 -0.0942,3.18807 -1.00341,5.08994 -0.52541,1.09896 -0.96382,1.70646 -1.92561,2.66825 -0.68493,0.68493 -1.34431,1.24473 -1.46529,1.24402 -0.12098,-7.2e-4 -0.38338,-0.2876 -0.58311,-0.63752 z m -8.84528,-3.79956 c -1.09651,-1.0834 -1.5901,-2.16963 -1.6783,-3.69343 -0.0951,-1.64255 0.36317,-2.94032 1.44761,-4.09968 0.4184,-0.44731 0.80819,-0.81328 0.86621,-0.81328 0.058,0 0.2014,0.1536 0.31865,0.34135 0.18823,0.3014 0.14785,0.39871 -0.34491,0.83136 -1.91421,1.68071 -1.93642,5.02435 -0.0449,6.76785 0.7199,0.66359 0.73584,0.6997 0.45949,1.04098 -0.28534,0.35239 -0.28872,0.35115 -1.02381,-0.37515 z m 6.58478,0.37669 c -0.17321,-0.32365 -0.10854,-0.46009 0.55362,-1.16799 1.76731,-1.8894 1.69037,-5.00612 -0.16378,-6.63408 -0.53241,-0.46747 -0.53991,-0.4925 -0.25341,-0.84631 l 0.29523,-0.36459 0.77471,0.82822 c 1.09925,1.17519 1.55712,2.46419 1.46159,4.11463 -0.0974,1.68339 -0.66788,2.81908 -2.02896,4.03948 l -0.44287,0.3971 -0.19613,-0.36646 z"
       id="path3985"
       inkscape:connector-curvature="0"
       inkscape:export-filename="/home/paolo/Desktop/unicaradio/imgs/tmp/onair.png"
       inkscape:export-xdpi="90"
       inkscape:export-ydpi="90" />
    <g
       id="g3999"
       transform="matrix(0.75503745,0,0,0.75503745,47.683996,-39.511333)"
       inkscape:export-filename="/home/paolo/Desktop/unicaradio/imgs/tmp/schedule.png"
       inkscape:export-xdpi="90"
       inkscape:export-ydpi="90"
       style="fill:#ffffff">
      <rect
         ry="2"
         rx="2"
         y="222.37158"
         x="107.46573"
         height="10"
         width="48.765961"
         id="rect3991"
         style="fill:#ffffff;fill-opacity:1;stroke:none" />
      <rect
         ry="2"
         rx="2"
         y="239.75456"
         x="107.46573"
         height="10"
         width="61.408989"
         id="rect3993"
         style="fill:#ffffff;fill-opacity:1;stroke:none" />
      <rect
         ry="2"
         rx="2"
         y="257.13757"
         x="107.46573"
         height="10"
         width="38.832157"
         id="rect3995"
         style="fill:#ffffff;fill-opacity:1;stroke:none" />
    </g>
    <path
       style="fill:#ffffff"
       d="m 72.425319,161.9786 c -0.212659,-0.11626 -2.702641,-2.21917 -5.533303,-4.67315 l -5.146652,-4.46179 -4.97842,-0.0469 c -4.808252,-0.0453 -4.989642,-0.0535 -5.306862,-0.2399 -0.452374,-0.26576 -0.728592,-0.71261 -0.798189,-1.29125 -0.03234,-0.26862 -0.04568,-3.17253 -0.02964,-6.45311 0.03162,-6.49336 0.0098,-6.231 0.560277,-6.72664 0.440959,-0.39705 0.646664,-0.41198 5.75282,-0.41781 l 4.893952,-0.006 5.250427,-4.55019 c 5.515286,-4.77974 5.588467,-4.8343 6.287647,-4.68658 0.476123,0.10059 0.899479,0.40913 1.099571,0.80134 0.183164,0.35903 0.185416,0.58461 0.161461,16.1704 l -0.02433,15.80628 -0.225545,0.31623 c -0.253541,0.35551 -0.849226,0.66491 -1.286088,0.668 -0.159775,8.8e-4 -0.464499,-0.0931 -0.67716,-0.20928 z m 14.014986,-0.0615 c -0.580566,-0.26366 -0.836099,-0.6836 -0.836099,-1.3741 0,-0.553 0.0163,-0.58948 0.671988,-1.5029 1.844354,-2.56934 3.120647,-5.23516 3.792439,-7.92131 0.573358,-2.29259 0.80237,-4.38804 0.715918,-6.55079 -0.186705,-4.67134 -1.626477,-8.85425 -4.357634,-12.6601 -0.862658,-1.20211 -1.021687,-1.55198 -0.928838,-2.0434 0.19456,-1.02974 1.302005,-1.59792 2.217646,-1.13778 0.556797,0.27983 1.825074,2.02248 2.992437,4.11168 1.498198,2.68133 2.541156,5.84173 2.990601,9.0622 0.203434,1.45768 0.230894,5.12329 0.0491,6.54886 -0.574962,4.50785 -2.222332,8.66648 -4.87991,12.31893 -0.948011,1.30288 -1.506369,1.56708 -2.427611,1.14871 z m -4.288777,-4.1916 c -0.597799,-0.40622 -0.852027,-1.16082 -0.596835,-1.77156 0.08009,-0.19179 0.37376,-0.69528 0.652529,-1.1189 2.546299,-3.86942 3.423074,-8.40503 2.503046,-12.94836 -0.422473,-2.08627 -1.398404,-4.40791 -2.577011,-6.1305 -0.66416,-0.9707 -0.788739,-1.33863 -0.669133,-1.9762 0.08181,-0.43589 0.600575,-0.95373 1.086606,-1.0846 0.503763,-0.13565 1.048625,0.0154 1.45862,0.40468 0.843793,0.80091 2.47809,3.84847 3.132683,5.84164 1.741055,5.30141 1.284321,10.91861 -1.28951,15.85885 -0.750962,1.4414 -1.676486,2.77145 -2.078536,2.987 -0.486068,0.26059 -1.187104,0.23378 -1.622459,-0.0621 z m -4.368057,-4.36467 c -0.373906,-0.22796 -0.648134,-0.66015 -0.731332,-1.15262 -0.05523,-0.32711 0.0027,-0.50017 0.509284,-1.51079 0.871757,-1.74041 1.213635,-2.91192 1.374727,-4.71079 0.07712,-0.86121 -0.07775,-2.30788 -0.370373,-3.46021 -0.204047,-0.80344 -0.757783,-2.0828 -1.387502,-3.20571 -0.08793,-0.15679 -0.161894,-0.46891 -0.16438,-0.69358 -0.01586,-1.43559 1.698145,-2.11364 2.657795,-1.05143 0.168921,0.18697 0.543295,0.80329 0.831946,1.3696 1.996662,3.91726 2.07686,8.41806 0.220912,12.39851 -0.574195,1.23148 -1.003551,1.86251 -1.393024,2.04733 -0.455447,0.21611 -1.166725,0.2022 -1.548053,-0.0302 z"
       id="path3014"
       inkscape:connector-curvature="0"
       inkscape:export-filename="/home/paolo/Desktop/unicaradio/imgs/tmp/onair.png"
       inkscape:export-xdpi="90"
       inkscape:export-ydpi="90" />
    <path
       sodipodi:type="star"
       style="fill:#ffffff;fill-opacity:1;stroke:none"
       id="path3020"
       sodipodi:sides="5"
       sodipodi:cx="184.22696"
       sodipodi:cy="301.00519"
       sodipodi:r1="36.849377"
       sodipodi:r2="18.424688"
       sodipodi:arg1="0.94200004"
       sodipodi:arg2="1.5703186"
       inkscape:flatsided="false"
       inkscape:rounded="0"
       inkscape:randomized="0"
       d="m 205.90072,330.80661 -21.66496,-11.37674 -21.65408,11.39743 4.12508,-24.1202 -17.53108,-17.07225 24.2144,-3.53037 10.81927,-21.94866 10.84025,21.93831 24.21775,3.50723 -17.51475,17.089 z"
       inkscape:transform-center-x="0.0027632555"
       inkscape:transform-center-y="-1.7812785"
       transform="matrix(0.50696333,0,0,0.50696333,217.37456,-5.529773)"
       inkscape:export-filename="/home/paolo/Desktop/unicaradio/imgs/tmp/favorites.png"
       inkscape:export-xdpi="90"
       inkscape:export-ydpi="90" />
    <text
       inkscape:export-ydpi="90"
       inkscape:export-xdpi="90"
       inkscape:export-filename="/home/paolo/Desktop/unicaradio/imgs/tmp/info.png"
       sodipodi:linespacing="125%"
       id="use3808"
       y="161.61554"
       x="361.25455"
       style="font-size:52.25999832px;font-style:normal;font-variant:normal;font-weight:normal;font-stretch:normal;text-align:start;line-height:125%;letter-spacing:0px;word-spacing:0px;writing-mode:lr-tb;text-anchor:start;fill:#ffffff;fill-opacity:1;stroke:none;font-family:TSCu_Times;-inkscape-font-specification:TSCu_Times"
       xml:space="preserve"><tspan
         y="161.61554"
         x="361.25455"
         id="tspan3812"
         sodipodi:role="line">i</tspan></text>
  </g>
  <g
     inkscape:groupmode="layer"
     id="layer2"
     inkscape:label="chiaro"
     style="display:inline" />
  <g
     inkscape:groupmode="layer"
     id="layer3"
     inkscape:label="scuro"
     style="display:inline" />
</svg>
